<svg width="24" height="24" viewBox="0 0 24 24" fill="none" xmlns="http://www.w3.org/2000/svg">
<path d="M12 22C12 21.0054 11.6137 20.0516 10.9261 19.3483C10.2384 18.6451 9.30579 18.25 8.33333 18.25H3.44444C2.29189 18.25 1.71622 18.25 1.35811 17.8838C1 17.5175 1 16.9288 1 15.75V4.5C1 3.32125 1 2.7325 1.35811 2.36625C1.71622 2 2.29189 2 3.44444 2H4.66667C8.12311 2 9.85256 2 10.9257 3.09875C12 4.19625 12 5.965 12 9.5M12 22V9.5M12 22C12 21.0054 12.3863 20.0516 13.0739 19.3483C13.7616 18.6451 14.6942 18.25 15.6667 18.25H20.5556C21.7081 18.25 22.2838 18.25 22.6419 17.8838C23 17.5175 23 16.9288 23 15.75V4.5C23 3.32125 23 2.7325 22.6419 2.36625C22.2838 2 21.7081 2 20.5556 2H19.3333C15.8769 2 14.1474 2 13.0743 3.09875C12 4.19625 12 5.965 12 9.5" stroke="black"/>
</svg>
