<svg width="24" height="24" viewBox="0 0 24 24" fill="none" xmlns="http://www.w3.org/2000/svg">
<g clip-path="url(#clip0_958_4310)">
<path d="M11.2446 10.4894C11.6613 10.9067 12.3379 10.9067 12.7553 10.4894L16.9099 6.33535C17.11 6.13488 17.2223 5.86323 17.2223 5.58002C17.2223 5.2968 17.11 5.02516 16.9099 4.82469L12.7553 0.670685C12.6562 0.57131 12.5384 0.492465 12.4088 0.438667C12.2792 0.38487 12.1403 0.357178 11.9999 0.357178C11.8596 0.357178 11.7206 0.38487 11.591 0.438667C11.4614 0.492465 11.3437 0.57131 11.2446 0.670685L7.08993 4.82469C6.99055 4.92377 6.91171 5.0415 6.85791 5.17111C6.80411 5.30073 6.77642 5.43968 6.77642 5.58002C6.77642 5.72035 6.80411 5.85931 6.85791 5.98892C6.91171 6.11854 6.99055 6.23626 7.08993 6.33535L11.2446 10.4894ZM17.6653 16.9094C18.0819 17.3267 18.7586 17.3267 19.1759 16.9094L23.3306 12.7554C23.5306 12.5549 23.643 12.2832 23.643 12C23.643 11.7168 23.5306 11.4452 23.3306 11.2447L19.1759 7.09068C19.0768 6.99131 18.9591 6.91247 18.8295 6.85867C18.6999 6.80487 18.5609 6.77718 18.4206 6.77718C18.2803 6.77718 18.1413 6.80487 18.0117 6.85867C17.8821 6.91247 17.7643 6.99131 17.6653 7.09068L13.5106 11.2447C13.4112 11.3438 13.3324 11.4615 13.2786 11.5911C13.2248 11.7207 13.1971 11.8597 13.1971 12C13.1971 12.1404 13.2248 12.2793 13.2786 12.4089C13.3324 12.5385 13.4112 12.6563 13.5106 12.7554L17.6653 16.9094ZM16.9093 17.6654L12.7553 13.5107C12.6562 13.4113 12.5384 13.3325 12.4088 13.2787C12.2792 13.2249 12.1403 13.1972 11.9999 13.1972C11.8596 13.1972 11.7206 13.2249 11.591 13.2787C11.4614 13.3325 11.3437 13.4113 11.2446 13.5107L7.09059 17.6654C6.99132 17.7644 6.91256 17.8821 6.85882 18.0117C6.80508 18.1412 6.77742 18.2801 6.77742 18.4204C6.77742 18.5606 6.80508 18.6995 6.85882 18.829C6.91256 18.9586 6.99132 19.0763 7.09059 19.1754L11.2446 23.33C11.6619 23.7467 12.3379 23.7467 12.7553 23.33L16.9093 19.1754C17.0085 19.0763 17.0873 18.9586 17.141 18.829C17.1948 18.6995 17.2224 18.5606 17.2224 18.4204C17.2224 18.2801 17.1948 18.1412 17.141 18.0117C17.0873 17.8821 17.0085 17.7644 16.9093 17.6654ZM10.4893 11.2454L6.33526 7.09068C6.23617 6.99131 6.11845 6.91247 5.98883 6.85867C5.85922 6.80487 5.72026 6.77718 5.57993 6.77718C5.43959 6.77718 5.30064 6.80487 5.17102 6.85867C5.04141 6.91247 4.92368 6.99131 4.82459 7.09068L0.670595 11.2454C0.57132 11.3444 0.492559 11.4621 0.438821 11.5917C0.385083 11.7212 0.357422 11.8601 0.357422 12.0004C0.357422 12.1406 0.385083 12.2795 0.438821 12.409C0.492559 12.5386 0.57132 12.6563 0.670595 12.7554L4.82459 16.91C5.24193 17.3267 5.91793 17.3267 6.33526 16.91L10.4893 12.7554C10.5885 12.6563 10.6673 12.5386 10.721 12.409C10.7748 12.2795 10.8024 12.1406 10.8024 12.0004C10.8024 11.8601 10.7748 11.7212 10.721 11.5917C10.6673 11.4621 10.5885 11.3444 10.4893 11.2454Z" fill="#55ACEE"/>
<path d="M10.4895 11.2454L8.34683 9.10204C7.69047 9.92533 7.33318 10.9471 7.3335 12C7.3335 13.096 7.71416 14.102 8.34683 14.898L10.4895 12.7554C10.5888 12.6563 10.6675 12.5386 10.7213 12.4091C10.775 12.2795 10.8027 12.1406 10.8027 12.0004C10.8027 11.8601 10.775 11.7212 10.7213 11.5917C10.6675 11.4621 10.5888 11.3445 10.4895 11.2454ZM14.8988 15.6534L12.7555 13.51C12.5549 13.3102 12.2833 13.1979 12.0002 13.1979C11.717 13.1979 11.4454 13.3102 11.2448 13.51L9.1015 15.6534C9.92497 16.3099 10.947 16.6672 12.0002 16.6667C13.0533 16.6672 14.0754 16.3099 14.8988 15.6534ZM13.5108 12.7554L15.6542 14.8987C16.3104 14.0751 16.6675 13.0531 16.6668 12C16.6677 10.947 16.3103 9.92507 15.6535 9.10204L13.5102 11.2454C13.3102 11.4458 13.198 11.7174 13.1982 12.0005C13.1983 12.2836 13.3107 12.5551 13.5108 12.7554ZM12.7555 10.4894L14.8988 8.34671C14.0754 7.69021 13.0533 7.33291 12.0002 7.33338C10.9472 7.33253 9.9252 7.68988 9.10216 8.34671L11.2455 10.4894C11.3446 10.5887 11.4623 10.6674 11.5918 10.7211C11.7214 10.7749 11.8602 10.8025 12.0005 10.8025C12.1408 10.8025 12.2796 10.7749 12.4092 10.7211C12.5387 10.6674 12.6564 10.5887 12.7555 10.4894Z" fill="#3B88C3"/>
<path d="M11.9998 15.3333C13.8408 15.3333 15.3332 13.8409 15.3332 12C15.3332 10.159 13.8408 8.66663 11.9998 8.66663C10.1589 8.66663 8.6665 10.159 8.6665 12C8.6665 13.8409 10.1589 15.3333 11.9998 15.3333Z" fill="#BBDDF5"/>
</g>
<defs>
<clipPath id="clip0_958_4310">
<rect width="24" height="24" fill="white"/>
</clipPath>
</defs>
</svg>
