<svg width="24" height="24" viewBox="0 0 24 24" fill="none" xmlns="http://www.w3.org/2000/svg">
<rect width="24" height="24" fill="#1E1E1E"/>
<g id="My story" clip-path="url(#clip0_0_1)">
<rect width="360" height="3694" transform="translate(-16 -1856)" fill="white"/>
<g id="container">
<g id="Frame 2367">
<g id="Frame 2428">
<g id="Frame 2427">
<g id="house" clip-path="url(#clip1_0_1)">
<path id="Vector" d="M22.017 5.83096L21 5.14496V1.49996C21 1.22396 20.776 0.999957 20.5 0.999957C20.224 0.999957 20 1.22396 20 1.49996V4.46996L14.518 0.770957C12.99 -0.261043 11.014 -0.262043 9.483 0.770957L1.983 5.83096C0.741 6.66896 0 8.06296 0 9.55996V19.499C0 21.98 2.019 23.999 4.5 23.999H19.5C21.981 23.999 24 21.98 24 19.499V9.55996C24 8.06296 23.259 6.66796 22.017 5.83096ZM23 19.5C23 21.43 21.43 23 19.5 23H4.5C2.57 23 1 21.43 1 19.5V9.56096C1 8.39696 1.577 7.31196 2.542 6.65996L10.042 1.59896C10.637 1.19796 11.318 0.996957 12 0.996957C12.682 0.996957 13.363 1.19696 13.958 1.59896L21.458 6.65996C22.424 7.31196 23 8.39596 23 9.56096V19.5ZM14.538 8.99996C13.458 8.99996 12.562 9.47896 12.038 10.254C11.514 9.47996 10.618 8.99996 9.538 8.99996C7.884 8.99996 6.538 10.436 6.538 12.2C6.538 14.531 9.356 17.393 10.847 18.581C11.198 18.861 11.618 19.001 12.038 19.001C12.458 19.001 12.878 18.861 13.229 18.581C14.719 17.393 17.538 14.531 17.538 12.2C17.538 10.435 16.192 8.99996 14.538 8.99996ZM12.605 17.8C12.271 18.068 11.805 18.066 11.47 17.8C9.837 16.498 7.538 13.901 7.538 12.2C7.538 10.987 8.435 9.99996 9.538 9.99996C10.716 9.99996 11.538 10.804 11.538 11.954C11.538 12.23 11.762 12.454 12.038 12.454C12.314 12.454 12.538 12.23 12.538 11.954C12.538 10.804 13.36 9.99996 14.538 9.99996C15.641 9.99996 16.538 10.987 16.538 12.2C16.538 13.901 14.238 16.498 12.605 17.8Z" fill="black"/>
</g>
</g>
</g>
</g>
</g>
</g>
<defs>
<clipPath id="clip0_0_1">
<rect width="360" height="3694" fill="white" transform="translate(-16 -1856)"/>
</clipPath>
<clipPath id="clip1_0_1">
<rect width="24" height="24" fill="white"/>
</clipPath>
</defs>
</svg>
