<svg width="24" height="24" viewBox="0 0 24 24" fill="none" xmlns="http://www.w3.org/2000/svg">
<path d="M3.03357 21C2.47419 21 2.0075 20.813 1.6335 20.439C1.2595 20.065 1.0721 19.5979 1.07129 19.0377V5.96229C1.07129 5.4029 1.25869 4.93621 1.6335 4.56221C2.00831 4.18821 2.4746 4.00081 3.03236 4H20.9674C21.5259 4 21.9922 4.1874 22.3662 4.56221C22.7402 4.93702 22.9276 5.40371 22.9284 5.96229V19.0389C22.9284 19.5975 22.741 20.0642 22.3662 20.439C21.9914 20.8138 21.5251 21.0008 20.9674 21H3.03357ZM21.7141 6.28893L12.5439 12.2924C12.458 12.3369 12.3714 12.3745 12.284 12.4053C12.1958 12.4352 12.101 12.4502 11.9999 12.4502C11.8987 12.4502 11.804 12.4352 11.7157 12.4053C11.6275 12.3753 11.5409 12.3377 11.4559 12.2924L2.28557 6.28771V19.0377C2.28557 19.2563 2.3556 19.4356 2.49565 19.5756C2.63569 19.7157 2.815 19.7857 3.03357 19.7857H20.9674C21.1851 19.7857 21.364 19.7157 21.5041 19.5756C21.6441 19.4356 21.7141 19.2563 21.7141 19.0377V6.28893ZM11.9999 11.2857L21.3401 5.21429H2.65957L11.9999 11.2857ZM2.28557 6.54514V5.56036V5.60164V5.21429V5.60286V5.53971V6.54514Z" fill="black"/>
</svg>
