<svg width="24" height="24" viewBox="0 0 24 24" fill="none" xmlns="http://www.w3.org/2000/svg">
<g clip-path="url(#clip0_930_3032)">
<path d="M12 23.1426C14.9553 23.1426 17.7895 21.9687 19.8792 19.879C21.9689 17.7893 23.1429 14.9551 23.1429 11.9998C23.1429 9.04452 21.9689 6.21029 19.8792 4.1206C17.7895 2.03091 14.9553 0.856934 12 0.856934C9.04476 0.856934 6.21054 2.03091 4.12084 4.1206C2.03115 6.21029 0.857178 9.04452 0.857178 11.9998C0.857178 14.9551 2.03115 17.7893 4.12084 19.879C6.21054 21.9687 9.04476 23.1426 12 23.1426Z" stroke="black" stroke-linecap="round" stroke-linejoin="round"/>
<path d="M12 0.856934C12 0.856934 5.02286 7.01122 12 11.9998C18 16.2855 12 23.1426 12 23.1426M15.4286 9.42836C15.8832 9.42836 16.3193 9.24775 16.6408 8.92626C16.9622 8.60477 17.1429 8.16873 17.1429 7.71408C17.1429 7.25942 16.9622 6.82338 16.6408 6.50189C16.3193 6.1804 15.8832 5.99979 15.4286 5.99979C14.9739 5.99979 14.5379 6.1804 14.2164 6.50189C13.8949 6.82338 13.7143 7.25942 13.7143 7.71408C13.7143 8.16873 13.8949 8.60477 14.2164 8.92626C14.5379 9.24775 14.9739 9.42836 15.4286 9.42836Z" stroke="black" stroke-linecap="round" stroke-linejoin="round"/>
<path d="M8.57146 17.9999C9.02612 17.9999 9.46216 17.8192 9.78365 17.4978C10.1051 17.1763 10.2857 16.7402 10.2857 16.2856C10.2857 15.8309 10.1051 15.3949 9.78365 15.0734C9.46216 14.7519 9.02612 14.5713 8.57146 14.5713C8.11681 14.5713 7.68077 14.7519 7.35928 15.0734C7.03779 15.3949 6.85718 15.8309 6.85718 16.2856C6.85718 16.7402 7.03779 17.1763 7.35928 17.4978C7.68077 17.8192 8.11681 17.9999 8.57146 17.9999Z" stroke="black" stroke-linecap="round" stroke-linejoin="round"/>
</g>
<defs>
<clipPath id="clip0_930_3032">
<rect width="24" height="24" fill="white"/>
</clipPath>
</defs>
</svg>
