<svg width="252" height="298" viewBox="0 0 252 298" fill="none" xmlns="http://www.w3.org/2000/svg">
<path d="M130.529 155.581C134.687 155.581 138.058 151.773 138.058 147.074C138.058 142.376 134.687 138.567 130.529 138.567C126.37 138.567 122.999 142.376 122.999 147.074C122.999 151.773 126.37 155.581 130.529 155.581Z" stroke="#CC9A63" stroke-width="2" stroke-linecap="round" stroke-linejoin="round"/>
<path d="M125.019 141.278C125.019 141.278 120.716 133.919 123.787 122.798C126.858 111.677 130.47 106.929 131.138 101.846C131.807 96.7631 135.023 96.7631 138.059 97.7351C141.094 98.707 140.201 103.865 144.881 108.05C149.561 112.236 148.907 111.557 150.794 115.709C152.682 119.861 152.985 123.349 154.909 125.393C156.834 127.436 156.841 126.293 157.584 129.693C158.327 133.092 157.661 135.611 156.137 137.491C154.612 139.371 150.898 139.968 148.372 142.585C145.846 145.201 138.058 144.752 138.058 144.752" stroke="#CC9A63" stroke-width="2" stroke-linecap="round" stroke-linejoin="round"/>
<path d="M157.585 129.692C157.585 129.692 163.85 126.301 166.425 124.314C169 122.328 171.08 124.603 171.774 127.003C172.467 129.404 170.586 136.359 172.269 138.463C173.953 140.566 173.534 143.73 172.951 146.933C172.368 150.135 174.547 151.674 170.882 153.894C167.217 156.114 145.226 146.078 138.096 150.399" stroke="#CC9A63" stroke-width="2" stroke-linecap="round" stroke-linejoin="round"/>
<path d="M170 154.171C170 154.171 174.843 157.582 173.061 163.276C171.279 168.971 168.733 172.26 168.966 176.048C169.2 179.835 168.227 187.011 162.819 186.612C157.412 186.213 149.488 185.914 148.2 187.509C146.913 189.103 138.779 189.103 136.655 183.522" stroke="#CC9A63" stroke-width="2" stroke-linecap="round" stroke-linejoin="round"/>
<path d="M130.529 155.581C130.529 155.581 134.628 157.111 135.026 162.593C135.423 168.075 135.012 172.084 135.828 176.603C136.643 181.123 137.69 189.249 134.279 191.02C130.867 192.792 129.759 201.708 118.427 200.938C107.095 200.167 102.86 203.946 97.4499 197.074C92.0395 190.201 93.026 189.386 88.9871 186.137C84.9483 182.888 79.2111 179.602 84.0407 172.094C88.8703 164.586 97.0915 164.785 101.153 161.795C105.214 158.805 118.644 150.785 124.459 152.104" stroke="#CC9A63" stroke-width="2" stroke-linecap="round" stroke-linejoin="round"/>
<path d="M122.296 131.261C122.296 131.261 114.821 127.624 109.868 123.556C104.916 119.488 103.088 109.097 94.939 111.003C86.7896 112.909 77.5781 121.357 78.6177 131.261C79.6574 141.165 76.8252 150.23 87.8293 155.581C98.8335 160.933 99.0588 160.301 106.682 158.248" stroke="#CC9A63" stroke-width="2" stroke-linecap="round" stroke-linejoin="round"/>
<path d="M129.281 138.174C129.119 138.148 129.058 137.944 128.986 137.815C128.712 137.323 128.607 136.803 128.545 136.247C128.365 134.638 128.526 133.027 128.753 131.432C129.033 129.449 129.494 127.53 130.074 125.616" stroke="#CC9A63" stroke-width="2" stroke-linecap="round" stroke-linejoin="round"/>
<path d="M136.908 142.261C137.791 141.905 138.535 141.207 139.275 140.624C140.31 139.809 141.157 138.818 141.96 137.775" stroke="#CC9A63" stroke-width="2" stroke-linecap="round" stroke-linejoin="round"/>
<path d="M142.95 136.381C143.272 136.028 143.526 135.622 143.825 135.25C144.103 134.905 144.364 134.604 144.535 134.188" stroke="#CC9A63" stroke-width="2" stroke-linecap="round" stroke-linejoin="round"/>
<path d="M132.946 138.573C132.944 138.591 132.941 138.61 132.938 138.629C132.98 138.216 133.16 137.904 133.348 137.544C133.782 136.717 134.121 135.832 134.525 134.988C135.032 133.931 135.336 132.805 135.595 131.663C136.079 129.513 136.315 127.31 136.512 125.117" stroke="#CC9A63" stroke-width="2" stroke-linecap="round" stroke-linejoin="round"/>
<path d="M131.262 138.075C131.255 138.105 131.248 138.135 131.24 138.165C130.964 138.106 131.057 137.499 131.053 137.322C131.032 135.788 131.373 134.268 131.757 132.792" stroke="#CC9A63" stroke-width="2" stroke-linecap="round" stroke-linejoin="round"/>
<path d="M132.253 130.102C132.279 129.764 132.333 129.433 132.377 129.096C132.404 128.881 132.385 128.568 132.55 128.407" stroke="#CC9A63" stroke-width="2" stroke-linecap="round" stroke-linejoin="round"/>
<path d="M134.53 139.371C135.98 137.929 137.316 136.324 138.619 134.753C139.205 134.047 139.753 133.327 140.239 132.546C140.831 131.594 141.217 130.598 141.504 129.515C141.964 127.771 142.05 125.971 142.454 124.221" stroke="#CC9A63" stroke-width="2" stroke-linecap="round" stroke-linejoin="round"/>
<path d="M137.799 131.795C138.305 130.191 139.183 128.623 139.285 126.912" stroke="#CC9A63" stroke-width="2" stroke-linecap="round" stroke-linejoin="round"/>
<path d="M142.752 121.63C142.828 121.122 142.951 120.648 142.95 120.135" stroke="#CC9A63" stroke-width="2" stroke-linecap="round" stroke-linejoin="round"/>
<path d="M135.323 140.068C137.523 138.618 139.634 136.988 141.464 135.085" stroke="#CC9A63" stroke-width="2" stroke-linecap="round" stroke-linejoin="round"/>
<path d="M143.148 131.496C143.181 131.396 143.214 131.297 143.248 131.197" stroke="#CC9A63" stroke-width="2" stroke-linecap="round" stroke-linejoin="round"/>
<path d="M138.098 147.643C139.198 147.867 140.346 147.875 141.462 147.836C142.421 147.803 143.379 147.626 144.338 147.643" stroke="#CC9A63" stroke-width="2" stroke-linecap="round" stroke-linejoin="round"/>
<path d="M145.625 147.643H146.12" stroke="#CC9A63" stroke-width="2" stroke-linecap="round" stroke-linejoin="round"/>
<path d="M138.592 146.446C140.025 146.456 141.427 146.193 142.851 146.047" stroke="#CC9A63" stroke-width="2" stroke-linecap="round" stroke-linejoin="round"/>
<path d="M145.525 145.948H145.723" stroke="#CC9A63" stroke-width="2" stroke-linecap="round" stroke-linejoin="round"/>
<path d="M137.008 151.928C137.71 151.928 138.414 151.912 139.117 151.932C140.592 151.974 142.15 152.257 143.559 152.679C145.885 153.375 148.006 154.675 149.876 156.214C150.919 157.072 152.071 157.995 152.856 159.104" stroke="#CC9A63" stroke-width="2" stroke-linecap="round" stroke-linejoin="round"/>
<path d="M135.126 154.52C135.153 154.803 135.457 155.145 135.647 155.346C136.659 156.413 137.599 157.581 138.39 158.823C139.507 160.572 140.529 162.534 140.976 164.576C141.16 165.418 141.338 166.268 141.454 167.123C141.529 167.672 141.532 168.233 141.662 168.772" stroke="#CC9A63" stroke-width="2" stroke-linecap="round" stroke-linejoin="round"/>
<path d="M136.413 153.423C136.675 153.37 136.909 153.591 137.103 153.726C137.843 154.238 138.597 154.729 139.369 155.192C140.826 156.065 142.376 156.745 143.891 157.503C144.432 157.776 145.193 158.039 145.624 158.505" stroke="#CC9A63" stroke-width="2" stroke-linecap="round" stroke-linejoin="round"/>
<path d="M142.06 154.32C142.732 154.35 143.312 154.563 143.934 154.823C144.635 155.115 145.368 155.427 146.022 155.815" stroke="#CC9A63" stroke-width="2" stroke-linecap="round" stroke-linejoin="round"/>
<path d="M142.157 158.705C142.527 158.954 142.769 159.236 143.072 159.576C143.772 160.362 144.398 161.185 144.968 162.074C145.648 163.135 146.24 164.24 146.875 165.33C147.239 165.953 147.638 166.554 148.002 167.178" stroke="#CC9A63" stroke-width="2" stroke-linecap="round" stroke-linejoin="round"/>
<path d="M148.992 170.366C149.21 170.89 149.349 171.449 149.586 171.961" stroke="#CC9A63" stroke-width="2" stroke-linecap="round" stroke-linejoin="round"/>
<path d="M153.647 160.6C154.124 160.939 154.606 161.269 155.089 161.597C155.299 161.741 155.556 162.001 155.826 161.995" stroke="#CC9A63" stroke-width="2" stroke-linecap="round" stroke-linejoin="round"/>
<path d="M133.64 155.217C133.684 155.201 133.71 155.324 133.762 155.428C133.955 155.814 134.198 156.144 134.48 156.472C135.229 157.345 135.905 158.294 136.61 159.204" stroke="#CC9A63" stroke-width="2" stroke-linecap="round" stroke-linejoin="round"/>
<path d="M125.567 153.648C125.583 153.655 125.599 153.663 125.615 153.67C125.383 153.87 125.115 154.024 124.864 154.198C123.53 155.126 122.283 156.177 121.045 157.228C117.676 160.093 114.628 163.239 112.194 166.954" stroke="#CC9A63" stroke-width="2" stroke-linecap="round" stroke-linejoin="round"/>
<path d="M126.807 154.798C126.485 155.052 126.497 155.265 126.271 155.555C125.412 156.652 124.569 157.767 123.745 158.892C122.389 160.745 121.185 162.673 119.996 164.636" stroke="#CC9A63" stroke-width="2" stroke-linecap="round" stroke-linejoin="round"/>
<path d="M128.168 155.516C127.944 155.997 127.69 156.466 127.43 156.927C126.977 157.729 126.639 158.535 126.304 159.397C125.94 160.333 125.51 161.232 125.27 162.212C125.113 162.849 124.847 163.529 124.825 164.188" stroke="#CC9A63" stroke-width="2" stroke-linecap="round" stroke-linejoin="round"/>
<path d="M124.379 165.757C124.359 166.062 124.335 166.365 124.23 166.654" stroke="#CC9A63" stroke-width="2" stroke-linecap="round" stroke-linejoin="round"/>
<path d="M118.063 168.373C118.088 168.026 118.218 167.781 118.379 167.474C118.456 167.329 118.59 166.923 118.732 166.879" stroke="#CC9A63" stroke-width="2" stroke-linecap="round" stroke-linejoin="round"/>
<path d="M129.579 156.114C129.559 156.111 129.538 156.109 129.518 156.106C129.972 156.67 130.273 157.392 130.528 158.06C131.105 159.572 131.34 161.189 131.472 162.795C131.593 164.274 131.701 165.755 131.583 167.238C131.492 168.369 131.23 169.479 131.213 170.615" stroke="#CC9A63" stroke-width="2" stroke-linecap="round" stroke-linejoin="round"/>
<path d="M128.687 158.208C128.645 158.522 128.812 158.873 128.83 159.189C128.863 159.756 128.835 160.33 128.835 160.899" stroke="#CC9A63" stroke-width="2" stroke-linecap="round" stroke-linejoin="round"/>
<path d="M128.984 163.14C128.952 163.303 128.905 163.408 128.907 163.585C128.915 164.166 128.925 164.741 128.881 165.322C128.757 167.019 128.487 168.71 128.24 170.39" stroke="#CC9A63" stroke-width="2" stroke-linecap="round" stroke-linejoin="round"/>
<path d="M124.972 153.498C124.915 153.657 124.463 153.691 124.362 153.716C123.88 153.833 123.396 153.997 122.927 154.154C120.867 154.84 119.009 155.924 117.099 156.937" stroke="#CC9A63" stroke-width="2" stroke-linecap="round" stroke-linejoin="round"/>
<path d="M113.193 159.403C113.381 159.503 114.207 158.873 114.365 158.769C114.51 158.673 114.69 158.517 114.87 158.506" stroke="#CC9A63" stroke-width="2" stroke-linecap="round" stroke-linejoin="round"/>
<path d="M124.334 141.404C124.096 141.431 123.868 141.49 123.627 141.495C123.318 141.501 123.021 141.432 122.72 141.37C121.209 141.064 119.704 140.645 118.295 140.009C115.694 138.835 113.305 137.253 111.067 135.49C109.968 134.625 108.899 133.72 107.83 132.816C107.008 132.121 106.183 131.422 105.522 130.564" stroke="#CC9A63" stroke-width="2" stroke-linecap="round" stroke-linejoin="round"/>
<path d="M113.312 132.316C113.851 132.712 114.405 133.103 114.902 133.555C115.593 134.18 116.209 134.89 116.94 135.472C118.222 136.493 119.585 137.403 120.939 138.32C121.409 138.639 121.92 138.885 122.364 139.234C122.598 139.417 122.842 139.619 123.095 139.775C123.272 139.884 123.445 139.953 123.606 140.088C123.903 140.339 124.249 140.471 124.587 140.655C124.746 140.742 125.009 140.848 125.128 140.991C125.111 140.99 125.094 140.988 125.078 140.987" stroke="#CC9A63" stroke-width="2" stroke-linecap="round" stroke-linejoin="round"/>
<path d="M123.256 149.575C121.807 149.954 120.212 150.039 118.725 150.069C117.802 150.087 116.878 150.055 115.954 150.089C114.77 150.132 113.587 150.21 112.404 150.284C109.302 150.475 106.164 150.86 103.12 151.494" stroke="#CC9A63" stroke-width="2" stroke-linecap="round" stroke-linejoin="round"/>
<path d="M122.924 147.157C122.369 146.891 121.795 146.81 121.186 146.737C119.997 146.593 118.784 146.593 117.588 146.551C115.791 146.49 114.009 146.465 112.211 146.568C111.003 146.637 109.798 146.786 108.588 146.824" stroke="#CC9A63" stroke-width="2" stroke-linecap="round" stroke-linejoin="round"/>
<path d="M102.209 147.407C102.552 147.349 102.898 147.304 103.24 147.239C103.447 147.2 103.653 147.136 103.866 147.156" stroke="#CC9A63" stroke-width="2" stroke-linecap="round" stroke-linejoin="round"/>
<path d="M123.422 143.822C122.729 143.468 122.031 143.199 121.28 142.985C119.878 142.589 118.493 142.068 117.125 141.57" stroke="#CC9A63" stroke-width="2" stroke-linecap="round" stroke-linejoin="round"/>
<path d="M122.593 145.406C122.389 145.164 122.175 145.132 121.86 145.054C121.062 144.857 120.265 144.726 119.444 144.673C118.014 144.58 116.566 144.527 115.132 144.501C113.585 144.473 112.042 144.582 110.495 144.573" stroke="#CC9A63" stroke-width="2" stroke-linecap="round" stroke-linejoin="round"/>
<path d="M103.7 141.57C105.576 141.383 107.46 141.251 109.346 141.246C110.205 141.244 111.047 141.325 111.901 141.406C112.345 141.449 112.795 141.463 113.229 141.57" stroke="#CC9A63" stroke-width="2" stroke-linecap="round" stroke-linejoin="round"/>
<path d="M131.265 256.915C118.997 256.915 113.601 258.103 104.001 263.181C96.0126 267.407 87.1083 269.973 78.0739 270.92C73.8261 271.365 69.0324 271.641 64.8809 270.454C61.4771 269.481 56.9834 268.567 59.3813 264.308C61.5027 260.538 68.0336 259.553 71.7806 258.347C76.5641 256.808 81.3466 255.255 86.0277 253.419C90.4885 251.67 94.8511 250.309 99.1839 248.214C103.545 246.105 107.838 243.837 112.083 241.499C120.254 236.999 127.267 230.413 134.243 224.289C137.64 221.306 142.159 219.506 146.346 217.897C150.619 216.255 155.036 214.997 159.528 214.137C168.876 212.345 178.089 212.662 187.491 213.767C207.72 216.143 237.735 219.781 240.149 220.387C240.149 220.387 235.993 265.741 232.734 264.811C209.138 258.079 218.338 259.29 194.772 251.641C189.727 250.122 183.119 252.005 178.229 255.51C157.052 271.261 149.852 285.142 123.268 287.648C113.28 287.96 103.24 286.597 93.1999 285.233C65.9144 281.528 51.4603 275.308 24.4247 270.124C21.571 269.576 17.2966 268.154 14.7891 266.677C10.9244 264.4 9.57846 260.567 18.9734 261.132C37.3362 262.237 39.7269 264.85 58.8057 265.846" stroke="#CC9A63" stroke-width="2" stroke-linecap="round" stroke-linejoin="round"/>
<path d="M58.7508 264.4C52.8825 263.612 45.7052 261.169 40.1135 259.327C34.9121 257.614 29.6911 255.938 24.6147 253.871L17.5449 251.298C16.0494 250.754 15.23 249.135 15.6725 247.597C16.1621 245.897 17.9813 244.975 19.6284 245.596C27.6528 248.625 52.4544 255.828 74.6368 257.425" stroke="#CC9A63" stroke-width="2" stroke-linecap="round" stroke-linejoin="round"/>
<path d="M22.0508 246.462C22.0508 246.462 22.6654 241.774 27.4366 242.737C32.2078 243.701 62.8879 252.616 83.331 254.446" stroke="#CC9A63" stroke-width="2" stroke-linecap="round" stroke-linejoin="round"/>
<path d="M45.0938 247.196C45.0938 247.196 45.8404 243.472 50.838 243.929C55.8367 244.386 79.238 249.149 90.825 251.11" stroke="#CC9A63" stroke-width="2" stroke-linecap="round" stroke-linejoin="round"/>
<path d="M194.141 32.4618C213.488 33.4729 215.913 36.1228 234.534 37.2431C244.061 37.8162 242.697 33.9285 238.777 31.6197C236.234 30.1221 231.899 28.6792 229.006 28.1247C201.589 22.8671 186.932 16.5593 159.262 12.8015C149.08 11.4193 138.898 10.0361 128.77 10.3525C101.811 12.8942 94.511 26.9703 73.0353 42.9428C68.0756 46.4987 61.3756 48.4075 56.2581 46.8666C32.3621 39.1107 41.6905 40.3383 17.7626 33.511C14.4582 32.5679 10.2432 78.5613 10.2432 78.5613C12.6913 79.1756 43.1286 82.8644 63.6434 85.2741C73.1767 86.3945 82.5204 86.715 91.9993 84.899C96.5544 84.026 101.035 82.751 105.368 81.0854C109.613 79.4539 114.197 77.6275 117.641 74.6024C124.714 68.3915 131.826 61.7127 140.113 57.1498C144.417 54.7792 148.771 52.4787 153.194 50.3401C157.587 48.2158 162.012 46.8357 166.535 45.0619C171.282 43.2005 176.132 41.6256 180.983 40.0652C184.783 38.8428 191.405 37.843 193.557 34.0202C195.988 29.7016 191.432 28.774 187.98 27.7876C183.77 26.5848 178.909 26.8641 174.602 27.3156C165.44 28.2762 160.024 28.5411 147.634 32.0877C147.634 32.0877 120.612 37.8389 113.597 45.1598" stroke="#CC9A63" stroke-width="2" stroke-linecap="round" stroke-linejoin="round"/>
<path d="M194.196 33.9285C200.147 34.7283 207.425 37.206 213.097 39.0726C218.372 40.8093 223.667 42.5089 228.814 44.6054L235.983 47.215C237.5 47.7675 238.331 49.4094 237.882 50.9688C237.386 52.6931 235.54 53.628 233.871 52.9972C225.734 49.9258 200.583 42.6213 178.087 41.001" stroke="#CC9A63" stroke-width="2" stroke-linecap="round" stroke-linejoin="round"/>
<path d="M231.413 52.1191C231.413 52.1191 230.79 56.8736 225.952 55.8965C221.114 54.9194 190.002 45.8783 169.27 44.024" stroke="#CC9A63" stroke-width="2" stroke-linecap="round" stroke-linejoin="round"/>
<path d="M208.046 51.3749C208.046 51.3749 207.289 55.1514 202.221 54.6875C197.153 54.2237 173.422 49.3939 161.672 47.4037" stroke="#CC9A63" stroke-width="2" stroke-linecap="round" stroke-linejoin="round"/>
</svg>
