<svg width="254" height="232" viewBox="0 0 254 232" fill="none" xmlns="http://www.w3.org/2000/svg">
<path d="M130.098 59.0797C130.098 50.942 135.25 43.9995 142.498 41.2654C140.371 40.4634 138.065 40.0198 135.653 40.0198C125.023 40.0198 116.406 48.5533 116.406 59.0788C116.406 69.6044 125.023 78.1378 135.653 78.1378C138.065 78.1378 140.371 77.6942 142.498 76.8922C135.25 74.159 130.098 67.2174 130.098 59.0797Z" fill="#CC9A63"/>
<path d="M140.661 88.2371L148.055 106.547" stroke="#CC9A63" stroke-width="2" stroke-miterlimit="10" stroke-linecap="round"/>
<path d="M119.393 87.2107L112.23 106.612" stroke="#CC9A63" stroke-width="2" stroke-miterlimit="10" stroke-linecap="round"/>
<path d="M129.084 27.3126L128.446 6.95142" stroke="#CC9A63" stroke-width="2" stroke-miterlimit="10" stroke-linecap="round"/>
<path d="M149.425 34.3013L162.438 18.1555" stroke="#CC9A63" stroke-width="2" stroke-miterlimit="10" stroke-linecap="round"/>
<path d="M161.485 52.2635L181.006 48.4951" stroke="#CC9A63" stroke-width="2" stroke-miterlimit="10" stroke-linecap="round"/>
<path d="M158.312 74.0598L175.308 83.5188" stroke="#CC9A63" stroke-width="2" stroke-miterlimit="10" stroke-linecap="round"/>
<path d="M104.432 72.7141L84.8955 83.6807" stroke="#CC9A63" stroke-width="2" stroke-miterlimit="10" stroke-linecap="round"/>
<path d="M101.24 52.8748L79.0684 48.6768" stroke="#CC9A63" stroke-width="2" stroke-miterlimit="10" stroke-linecap="round"/>
<path d="M111.656 35.6723L97.5264 18.2712" stroke="#CC9A63" stroke-width="2" stroke-miterlimit="10" stroke-linecap="round"/>
<path d="M136.727 35.072C136.646 35.072 136.564 35.0606 136.482 35.0372C136.016 34.9041 135.748 34.4213 135.882 33.9602L136.177 32.9503C136.312 32.4884 136.801 32.2222 137.265 32.3562C137.731 32.4893 137.999 32.9721 137.865 33.4331L137.57 34.443C137.459 34.8241 137.108 35.072 136.727 35.072Z" fill="#CC9A63"/>
<path d="M137.588 32.1241C137.507 32.1241 137.425 32.1128 137.343 32.0893C136.878 31.9562 136.609 31.4734 136.744 31.0115L137.299 29.1134C137.434 28.6515 137.92 28.3862 138.388 28.5202C138.853 28.6533 139.122 29.1361 138.987 29.598L138.431 31.496C138.321 31.877 137.969 32.1241 137.588 32.1241ZM138.699 28.3279C138.618 28.3279 138.535 28.3166 138.454 28.2931C137.988 28.1601 137.72 27.6773 137.854 27.2162L138.409 25.3181C138.543 24.8562 139.032 24.5927 139.496 24.724C139.963 24.8571 140.23 25.3399 140.096 25.801L139.542 27.699C139.431 28.08 139.08 28.3279 138.699 28.3279ZM139.808 24.5309C139.727 24.5309 139.645 24.5196 139.563 24.4961C139.097 24.363 138.829 23.8802 138.964 23.4183L139.519 21.5203C139.653 21.0584 140.141 20.7939 140.607 20.927C141.073 21.0601 141.342 21.5429 141.206 22.0048L140.651 23.9029C140.541 24.2839 140.189 24.5309 139.808 24.5309Z" fill="#CC9A63"/>
<path d="M140.988 20.4946C140.907 20.4946 140.825 20.4833 140.744 20.4598C140.278 20.3267 140.01 19.8439 140.144 19.3829L140.439 18.373C140.574 17.9111 141.063 17.6475 141.527 17.7788C141.993 17.9119 142.261 18.3947 142.127 18.8558L141.832 19.8657C141.721 20.2467 141.369 20.4946 140.988 20.4946Z" fill="#CC9A63"/>
<path d="M150.414 45.306C150.128 45.306 149.849 45.1685 149.68 44.9162C149.412 44.5152 149.524 43.9759 149.928 43.7106L150.813 43.1304C151.218 42.865 151.763 42.9756 152.031 43.3757C152.299 43.7767 152.187 44.316 151.783 44.5813L150.898 45.1615C150.748 45.259 150.581 45.306 150.414 45.306Z" fill="#CC9A63"/>
<path d="M153.026 43.5948C152.74 43.5948 152.461 43.4574 152.292 43.2051C152.025 42.8041 152.136 42.2648 152.54 41.9995L154.205 40.9095C154.61 40.6442 155.154 40.7547 155.422 41.1548C155.69 41.5558 155.579 42.0951 155.175 42.3605L153.51 43.4513C153.361 43.5487 153.193 43.5957 153.026 43.5957V43.5948ZM156.355 41.4141C156.07 41.4141 155.791 41.2766 155.622 41.0244C155.354 40.6234 155.465 40.084 155.869 39.8187L157.534 38.7288C157.939 38.4634 158.485 38.5739 158.752 38.974C159.019 39.3751 158.908 39.9144 158.504 40.1797L156.839 41.2697C156.69 41.3671 156.522 41.4141 156.355 41.4141ZM159.684 39.2341C159.398 39.2341 159.119 39.0967 158.95 38.8444C158.682 38.4434 158.794 37.9041 159.198 37.6388L160.862 36.5488C161.267 36.2835 161.811 36.394 162.08 36.7941C162.348 37.1951 162.236 37.7345 161.832 37.9998L160.168 39.0897C160.018 39.1872 159.85 39.2341 159.684 39.2341Z" fill="#CC9A63"/>
<path d="M163.389 36.8081C163.105 36.8081 162.825 36.6715 162.656 36.4184C162.388 36.0183 162.499 35.4781 162.904 35.2127L163.789 34.6325C164.193 34.3672 164.738 34.4768 165.007 34.8779C165.275 35.278 165.164 35.8182 164.759 36.0835L163.873 36.6637C163.724 36.7611 163.556 36.8081 163.389 36.8081Z" fill="#CC9A63"/>
<path d="M156.163 61.9747C156.128 61.9747 156.092 61.9729 156.056 61.9686L155.003 61.8425C154.521 61.7851 154.178 61.3518 154.236 60.8743C154.294 60.3976 154.725 60.0557 155.214 60.1157L156.267 60.2419C156.748 60.2993 157.092 60.7333 157.034 61.21C156.98 61.6511 156.601 61.9747 156.163 61.9747Z" fill="#CC9A63"/>
<path d="M168.015 63.3935C167.98 63.3935 167.944 63.3918 167.908 63.3875L165.927 63.1508C165.446 63.0934 165.103 62.6594 165.161 62.1827C165.218 61.706 165.654 61.365 166.139 61.4233L168.12 61.6607C168.601 61.7181 168.945 62.1514 168.887 62.6289C168.833 63.07 168.454 63.3944 168.016 63.3944L168.015 63.3935ZM164.053 62.9186C164.018 62.9186 163.983 62.9169 163.947 62.9125L161.966 62.6759C161.484 62.6185 161.141 62.1844 161.199 61.7077C161.256 61.231 161.691 60.8901 162.176 60.9483L164.157 61.1858C164.639 61.2432 164.982 61.6764 164.923 62.154C164.87 62.595 164.49 62.9186 164.053 62.9186ZM160.091 62.4445C160.056 62.4445 160.02 62.4428 159.984 62.4384L158.003 62.201C157.522 62.1435 157.178 61.7103 157.237 61.2328C157.295 60.7561 157.727 60.4159 158.215 60.4734L160.196 60.71C160.677 60.7674 161.02 61.2015 160.962 61.6782C160.909 62.1192 160.529 62.4436 160.092 62.4436L160.091 62.4445Z" fill="#CC9A63"/>
<path d="M170.838 63.7311C170.803 63.7311 170.767 63.7294 170.731 63.725L169.677 63.5989C169.195 63.5414 168.852 63.1073 168.91 62.6306C168.967 62.154 169.403 61.8104 169.887 61.8713L170.942 61.9974C171.423 62.0548 171.766 62.488 171.708 62.9656C171.655 63.4066 171.275 63.7311 170.838 63.7311Z" fill="#CC9A63"/>
<path d="M148.027 78.3703C147.791 78.3703 147.555 78.2763 147.382 78.091L146.662 77.3194C146.333 76.9663 146.355 76.4165 146.711 76.0903C147.067 75.7641 147.622 75.785 147.952 76.139L148.673 76.9106C149.002 77.2637 148.98 77.8144 148.624 78.1397C148.455 78.2946 148.241 78.3703 148.027 78.3703Z" fill="#CC9A63"/>
<path d="M156.1 87.0211C155.864 87.0211 155.628 86.9272 155.454 86.7419L154.1 85.2901C153.77 84.9369 153.792 84.3863 154.149 84.061C154.505 83.7356 155.061 83.7565 155.39 84.1096L156.745 85.5615C157.074 85.9146 157.052 86.4653 156.696 86.7906C156.527 86.9455 156.314 87.022 156.1 87.022V87.0211ZM153.391 84.1175C153.155 84.1175 152.918 84.0235 152.745 83.8382L151.391 82.3873C151.061 82.0341 151.083 81.4843 151.44 81.1581C151.796 80.8311 152.351 80.8528 152.681 81.2069L154.036 82.6578C154.365 83.011 154.343 83.5608 153.987 83.887C153.818 84.0418 153.604 84.1175 153.391 84.1175ZM150.682 81.2147C150.446 81.2147 150.21 81.1207 150.037 80.9355L148.683 79.4845C148.353 79.1313 148.375 78.5816 148.732 78.2554C149.088 77.9283 149.644 77.9509 149.973 78.3041L151.328 79.755C151.657 80.1082 151.635 80.6579 151.278 80.9841C151.11 81.139 150.895 81.2156 150.682 81.2156V81.2147Z" fill="#CC9A63"/>
<path d="M157.848 88.8939C157.61 88.8939 157.375 88.8 157.202 88.6139L156.482 87.8423C156.153 87.4891 156.175 86.9385 156.532 86.6122C156.888 86.2869 157.444 86.3078 157.773 86.6618L158.493 87.4334C158.822 87.7866 158.8 88.3363 158.443 88.6625C158.275 88.8165 158.061 88.8939 157.848 88.8939Z" fill="#CC9A63"/>
<path d="M130.49 85.1082C130.032 85.1082 129.646 84.7568 129.614 84.2966L129.543 83.2475C129.51 82.7682 129.876 82.3533 130.36 82.3211C130.852 82.2846 131.263 82.6508 131.296 83.1301L131.367 84.1792C131.4 84.6585 131.034 85.0734 130.55 85.1056C130.53 85.1073 130.509 85.1082 130.49 85.1082Z" fill="#CC9A63"/>
<path d="M131.297 96.9054C130.839 96.9054 130.453 96.5539 130.421 96.0938L130.287 94.1217C130.253 93.6424 130.62 93.2275 131.104 93.1953C131.6 93.157 132.007 93.525 132.039 94.0043L132.173 95.9763C132.207 96.4556 131.841 96.8706 131.357 96.9028C131.336 96.9045 131.316 96.9045 131.297 96.9045V96.9054ZM131.027 92.9622C130.569 92.9622 130.183 92.6108 130.152 92.1506L130.018 90.1786C129.984 89.6993 130.351 89.2843 130.835 89.2521C131.331 89.2173 131.738 89.5818 131.77 90.0611L131.905 92.0332C131.938 92.5125 131.572 92.9274 131.088 92.9596C131.068 92.9613 131.047 92.9613 131.028 92.9613L131.027 92.9622ZM130.757 89.019C130.3 89.019 129.913 88.6676 129.882 88.2074L129.747 86.2354C129.714 85.7561 130.08 85.3412 130.564 85.309C131.06 85.2777 131.467 85.6387 131.5 86.118L131.634 88.09C131.667 88.5693 131.301 88.9842 130.817 89.0164C130.797 89.0182 130.777 89.019 130.757 89.019Z" fill="#CC9A63"/>
<path d="M131.49 99.7327C131.032 99.7327 130.646 99.3813 130.614 98.9211L130.543 97.872C130.51 97.3927 130.876 96.9777 131.36 96.9456C131.849 96.9116 132.263 97.2753 132.296 97.7546L132.367 98.8037C132.4 99.283 132.034 99.6979 131.55 99.7301C131.53 99.7318 131.509 99.7318 131.49 99.7318V99.7327Z" fill="#CC9A63"/>
<path d="M113.899 78.9469C113.71 78.9469 113.519 78.8869 113.359 78.7625C112.977 78.4667 112.909 77.9196 113.208 77.5412L113.861 76.713C114.16 76.3338 114.713 76.2677 115.095 76.5634C115.477 76.8592 115.544 77.4063 115.246 77.7847L114.592 78.6129C114.419 78.8321 114.16 78.9469 113.899 78.9469Z" fill="#CC9A63"/>
<path d="M106.481 88.3486C106.292 88.3486 106.101 88.2886 105.941 88.1642C105.559 87.8684 105.491 87.3213 105.79 86.9429L107.019 85.3849C107.317 85.0057 107.87 84.9396 108.252 85.2353C108.634 85.5311 108.702 86.0782 108.403 86.4566L107.174 88.0146C107.001 88.2338 106.742 88.3486 106.481 88.3486ZM108.939 85.2336C108.75 85.2336 108.56 85.1736 108.399 85.0492C108.017 84.7534 107.949 84.2063 108.248 83.8279L109.476 82.2707C109.774 81.8924 110.326 81.8262 110.709 82.1211C111.091 82.4169 111.159 82.9632 110.86 83.3424L109.632 84.8996C109.459 85.1188 109.2 85.2336 108.939 85.2336ZM111.396 82.1194C111.207 82.1194 111.016 82.0594 110.856 81.935C110.474 81.6392 110.406 81.0921 110.705 80.7137L111.934 79.1566C112.232 78.7782 112.785 78.7112 113.167 79.007C113.549 79.3028 113.617 79.8499 113.318 80.2283L112.089 81.7854C111.916 82.0055 111.657 82.1194 111.396 82.1194Z" fill="#CC9A63"/>
<path d="M104.321 91.0843C104.132 91.0843 103.941 91.0243 103.781 90.8999C103.399 90.6042 103.331 90.057 103.63 89.6786L104.283 88.8505C104.582 88.4721 105.135 88.4051 105.517 88.7009C105.899 88.9966 105.966 89.5438 105.668 89.9222L105.014 90.7503C104.841 90.9695 104.582 91.0843 104.321 91.0843Z" fill="#CC9A63"/>
<path d="M105.762 63.7109C105.353 63.7109 104.988 63.4274 104.902 63.0168C104.804 62.5462 105.11 62.086 105.585 61.9895L106.625 61.7772C107.098 61.6789 107.564 61.9834 107.662 62.454C107.759 62.9246 107.454 63.3848 106.979 63.4813L105.938 63.6936C105.879 63.7058 105.819 63.7109 105.76 63.7109H105.762Z" fill="#CC9A63"/>
<path d="M91.4212 66.6319C91.0127 66.6319 90.6473 66.3483 90.5621 65.9369C90.4646 65.4663 90.7703 65.0061 91.2455 64.9096L91.6505 64.8269C92.1266 64.7286 92.5904 65.0339 92.6879 65.5037C92.7854 65.9743 92.4797 66.4344 92.0045 66.531L91.5995 66.6136C91.5398 66.6258 91.48 66.631 91.4221 66.631L91.4212 66.6319ZM93.7815 66.1508C93.3731 66.1508 93.0076 65.8673 92.9224 65.4558C92.8249 64.9852 93.1306 64.5259 93.6059 64.4285L95.5604 64.0301C96.0347 63.93 96.4994 64.2363 96.5978 64.7069C96.6953 65.1766 96.3896 65.6368 95.9144 65.7342L93.9599 66.1326C93.9001 66.1448 93.8404 66.1508 93.7815 66.1508ZM97.6906 65.3549C97.2821 65.3549 96.9167 65.0713 96.8315 64.6599C96.734 64.1893 97.0396 63.73 97.5149 63.6326L99.4694 63.235C99.942 63.1376 100.408 63.4412 100.507 63.9118C100.604 64.3824 100.299 64.8417 99.8234 64.9391L97.8689 65.3367C97.8092 65.3488 97.7503 65.3549 97.6915 65.3549H97.6906ZM101.6 64.559C101.192 64.559 100.827 64.2754 100.741 63.864C100.644 63.3934 100.95 62.934 101.425 62.8366L103.379 62.4391C103.853 62.3417 104.318 62.6453 104.417 63.1159C104.514 63.5865 104.209 64.0457 103.733 64.1432L101.779 64.5407C101.719 64.5529 101.659 64.559 101.6 64.559Z" fill="#CC9A63"/>
<path d="M89.2785 67.0687C88.87 67.0687 88.5046 66.7851 88.4185 66.3745C88.321 65.9039 88.6267 65.4437 89.1019 65.3472L90.142 65.1349C90.6137 65.0357 91.0819 65.3411 91.1794 65.8117C91.2769 66.2823 90.9712 66.7424 90.496 66.839L89.4559 67.0513C89.3962 67.0634 89.3373 67.0687 89.2785 67.0687Z" fill="#CC9A63"/>
<path d="M109.293 47.687C109.149 47.687 109.005 47.6522 108.871 47.58L107.94 47.0746C107.515 46.8432 107.358 46.3143 107.592 45.8933C107.826 45.4723 108.359 45.3175 108.785 45.5489L109.716 46.0542C110.141 46.2856 110.297 46.8145 110.064 47.2355C109.904 47.5243 109.604 47.687 109.293 47.687Z" fill="#CC9A63"/>
<path d="M106.377 46.103C106.234 46.103 106.089 46.0682 105.955 45.9951L104.205 45.0452C103.78 44.8138 103.624 44.2849 103.857 43.8639C104.091 43.4429 104.625 43.2863 105.05 43.5194L106.8 44.4693C107.225 44.7007 107.382 45.2296 107.147 45.6507C106.987 45.9395 106.687 46.103 106.377 46.103ZM102.877 44.2023C102.734 44.2023 102.589 44.1675 102.455 44.0944L100.706 43.1445C100.28 42.9131 100.124 42.3843 100.359 41.9632C100.591 41.5422 101.125 41.3874 101.551 41.6188L103.3 42.5696C103.726 42.8009 103.882 43.3289 103.648 43.7508C103.488 44.0396 103.188 44.2023 102.877 44.2023ZM99.3783 42.3007C99.2351 42.3007 99.091 42.266 98.9566 42.1938L97.2068 41.2438C96.7816 41.0124 96.6252 40.4836 96.8589 40.0626C97.0917 39.6415 97.6249 39.4867 98.0518 39.7181L99.8017 40.668C100.227 40.8994 100.383 41.4283 100.15 41.8493C99.9896 42.1381 99.6892 42.3007 99.3783 42.3007ZM95.8786 40.4001C95.7354 40.4001 95.5905 40.3662 95.4569 40.2931L95.0309 40.0608C94.6057 39.8294 94.4502 39.3005 94.6839 38.8795C94.9176 38.4585 95.4499 38.3028 95.8768 38.5359L96.3029 38.7682C96.728 38.9996 96.8835 39.5284 96.6498 39.9495C96.49 40.2383 96.1895 40.4009 95.8795 40.4009L95.8786 40.4001Z" fill="#CC9A63"/>
<path d="M94.4586 39.6284C94.3154 39.6284 94.1713 39.5945 94.0369 39.5214L93.1058 39.016C92.6806 38.7846 92.5242 38.2557 92.7579 37.8347C92.9916 37.4137 93.5248 37.2589 93.9508 37.4903L94.882 37.9957C95.3071 38.227 95.4635 38.7551 95.2298 39.1769C95.07 39.4657 94.7695 39.6284 94.4586 39.6284Z" fill="#CC9A63"/>
<path d="M121.446 37.1773C121.092 37.1773 120.76 36.9642 120.626 36.6171L120.247 35.635C120.074 35.1861 120.302 34.6833 120.755 34.512C121.208 34.3397 121.716 34.565 121.888 35.0148L122.267 35.9968C122.44 36.4457 122.212 36.9485 121.759 37.1199C121.656 37.159 121.55 37.1773 121.446 37.1773Z" fill="#CC9A63"/>
<path d="M120.263 34.1012C119.909 34.1012 119.576 33.8881 119.442 33.541L118.731 31.6943C118.558 31.2454 118.785 30.7426 119.239 30.5713C119.691 30.4025 120.2 30.6243 120.373 31.0741L121.084 32.9208C121.257 33.3697 121.03 33.8725 120.576 34.0438C120.474 34.0821 120.367 34.1012 120.264 34.1012H120.263ZM118.84 30.4086C118.486 30.4086 118.153 30.1955 118.018 29.8484L117.308 28.0017C117.135 27.5528 117.362 27.05 117.815 26.8786C118.268 26.7081 118.776 26.9326 118.95 27.3814L119.661 29.2282C119.834 29.677 119.607 30.1798 119.153 30.3512C119.051 30.3895 118.943 30.4086 118.84 30.4086ZM117.418 26.716C117.064 26.716 116.731 26.5029 116.597 26.1558L115.886 24.309C115.712 23.8601 115.94 23.3574 116.393 23.186C116.847 23.0155 117.354 23.2399 117.526 23.6888L118.238 25.5347C118.411 25.9835 118.184 26.4863 117.73 26.6577C117.627 26.6968 117.521 26.716 117.418 26.716ZM115.994 23.0233C115.64 23.0233 115.308 22.8102 115.174 22.4631L115.006 22.0273C114.833 21.5785 115.061 21.0757 115.514 20.9043C115.965 20.7321 116.475 20.9574 116.647 21.4071L116.815 21.842C116.988 22.2909 116.761 22.7937 116.307 22.9651C116.204 23.0042 116.098 23.0233 115.994 23.0233Z" fill="#CC9A63"/>
<path d="M115.423 21.5411C115.069 21.5411 114.736 21.3271 114.603 20.9809L114.224 19.9988C114.051 19.55 114.278 19.0472 114.732 18.8758C115.185 18.7062 115.693 18.9297 115.866 19.3786L116.244 20.3607C116.417 20.8095 116.19 21.3123 115.737 21.4837C115.634 21.522 115.528 21.5411 115.423 21.5411Z" fill="#CC9A63"/>
<path d="M63.3182 124.273C63.3182 112.919 62.2158 107.927 57.4986 99.0429C53.5737 91.6506 51.1905 83.4103 50.3112 75.0499C49.8975 71.1198 49.6419 66.6825 50.7434 62.8411C51.6464 59.6913 52.4959 55.5333 56.4515 57.7515C59.9529 59.7148 60.8682 65.7579 61.9883 69.2261C63.4175 73.6529 64.8599 78.0788 66.564 82.4108C68.1882 86.5384 69.4532 90.5764 71.398 94.5856C73.3561 98.6219 75.4634 102.595 77.6341 106.522C81.8128 114.084 87.9293 120.574 93.618 127.029C96.3877 130.171 98.0603 134.355 99.5545 138.228C101.079 142.182 102.247 146.27 103.046 150.427C104.71 159.078 104.416 167.604 103.391 176.304C101.183 195.023 97.8055 222.8 97.2425 225.033C97.2425 225.033 55.1215 221.187 55.9842 218.172C62.2369 196.336 61.1125 204.849 68.2155 183.043C69.6262 178.373 67.8782 172.259 64.6218 167.733C49.9932 148.136 37.1031 141.473 34.7752 116.873C34.4854 107.629 35.7521 98.3383 37.0179 89.048C40.4587 63.798 46.2362 50.4228 51.0509 25.4042C51.5595 22.7624 52.8798 18.8079 54.2519 16.4871C56.3663 12.9102 59.9266 11.6645 59.4013 20.3589C58.3753 37.352 55.949 39.5641 55.0231 57.2192" stroke="#CC9A63" stroke-width="2" stroke-linecap="round" stroke-linejoin="round"/>
<path d="M56.3672 57.1669C57.0989 51.7363 59.3688 45.0947 61.0782 39.9198C62.6682 35.1059 64.2257 30.2746 66.1459 25.5773L68.5353 19.0349C69.0412 17.6501 70.5451 16.8924 71.9726 17.3021C73.5511 17.7545 74.4076 19.4394 73.8305 20.9626C71.0177 28.3879 64.3284 51.3396 62.8439 71.8678" stroke="#CC9A63" stroke-width="2" stroke-linecap="round" stroke-linejoin="round"/>
<path d="M73.0263 23.2061C73.0263 23.2061 77.3798 23.7749 76.4856 28.1904C75.5913 32.6059 67.3103 60.9971 65.6123 79.9152" stroke="#CC9A63" stroke-width="2" stroke-linecap="round" stroke-linejoin="round"/>
<path d="M72.3448 44.5293C72.3448 44.5293 75.8032 45.2199 75.3789 49.8451C74.9547 54.4702 70.5309 76.1259 68.709 86.8488" stroke="#CC9A63" stroke-width="2" stroke-linecap="round" stroke-linejoin="round"/>
<path d="M196.756 124.273C196.756 112.919 197.859 107.927 202.576 99.0429C206.501 91.6506 208.884 83.4103 209.763 75.0499C210.177 71.1198 210.433 66.6825 209.331 62.8411C208.428 59.6913 207.579 55.5333 203.623 57.7515C200.122 59.7148 199.206 65.7579 198.086 69.2261C196.657 73.6529 195.215 78.0788 193.51 82.4108C191.885 86.5384 190.62 90.5764 188.676 94.5856C186.717 98.6219 184.61 102.595 182.44 106.522C178.261 114.084 172.144 120.574 166.456 127.029C163.686 130.171 162.013 134.355 160.519 138.228C158.994 142.182 157.827 146.27 157.027 150.427C155.364 159.078 155.658 167.604 156.683 176.304C158.89 195.023 162.268 222.8 162.831 225.033C162.831 225.033 204.952 221.187 204.089 218.172C197.836 196.336 198.96 204.849 191.857 183.043C190.446 178.373 192.195 172.259 195.451 167.733C210.079 148.136 222.97 141.473 225.297 116.873C225.587 107.629 224.321 98.3383 223.055 89.048C219.614 63.798 213.837 50.4228 209.022 25.4042C208.513 22.7624 207.193 18.8079 205.821 16.4871C203.706 12.9102 200.146 11.6645 200.671 20.3589C201.697 37.352 204.125 39.5641 205.05 57.2192" stroke="#CC9A63" stroke-width="2" stroke-linecap="round" stroke-linejoin="round"/>
<path d="M203.707 57.1669C202.976 51.7363 200.706 45.0947 198.996 39.9198C197.406 35.1059 195.849 30.2746 193.93 25.5773L191.54 19.0349C191.034 17.6501 189.53 16.8924 188.103 17.3021C186.524 17.7545 185.668 19.4394 186.245 20.9626C189.058 28.3879 195.747 51.3396 197.232 71.8678" stroke="#CC9A63" stroke-width="2" stroke-linecap="round" stroke-linejoin="round"/>
<path d="M187.048 23.2061C187.048 23.2061 182.695 23.7749 183.589 28.1904C184.483 32.6059 192.764 60.9971 194.462 79.9152" stroke="#CC9A63" stroke-width="2" stroke-linecap="round" stroke-linejoin="round"/>
<path d="M187.729 44.5293C187.729 44.5293 184.271 45.2199 184.695 49.8451C185.12 54.4702 189.543 76.1259 191.365 86.8488" stroke="#CC9A63" stroke-width="2" stroke-linecap="round" stroke-linejoin="round"/>
<path d="M7.44595 44.5293C7.44595 44.5293 6.57455 55.916 1 55.916C1 55.916 7.44595 60.2288 7.44595 67.6472C7.44595 60.2288 13.8919 55.916 13.8919 55.916C8.31736 55.916 7.44595 44.5293 7.44595 44.5293Z" stroke="#CC9A63" stroke-width="2" stroke-linecap="round" stroke-linejoin="round"/>
<path d="M40.0709 160.076C40.0709 160.076 39.1995 171.463 33.625 171.463C33.625 171.463 40.0709 175.776 40.0709 183.194C40.0709 175.776 46.5169 171.463 46.5169 171.463C40.9424 171.463 40.0709 160.076 40.0709 160.076Z" stroke="#CC9A63" stroke-width="2" stroke-linecap="round" stroke-linejoin="round"/>
<path d="M220.33 160.076C220.33 160.076 219.458 171.463 213.884 171.463C213.884 171.463 220.33 175.776 220.33 183.194C220.33 175.776 226.776 171.463 226.776 171.463C221.201 171.463 220.33 160.076 220.33 160.076Z" stroke="#CC9A63" stroke-width="2" stroke-linecap="round" stroke-linejoin="round"/>
<path d="M246.554 44.5293C246.554 44.5293 245.683 55.916 240.108 55.916C240.108 55.916 246.554 60.2288 246.554 67.6472C246.554 60.2288 253 55.916 253 55.916C247.426 55.916 246.554 44.5293 246.554 44.5293Z" stroke="#CC9A63" stroke-width="2" stroke-linecap="round" stroke-linejoin="round"/>
</svg>
