<svg width="252" height="278" viewBox="0 0 252 278" fill="none" xmlns="http://www.w3.org/2000/svg">
<path d="M179.318 173.379C180.676 172.863 203.277 161.026 208.747 157.06C212.227 154.086 214.712 150.616 217.198 146.651C222.17 138.721 226.147 130.791 230.124 122.861C231.119 120.382 233.107 118.399 232.61 115.922C232.114 114.435 230.621 112.948 229.13 112.452C224.656 111.461 222.17 113.939 219.684 117.409C217.695 120.382 216.203 122.861 214.215 125.834C208.249 133.764 206.067 138.227 200.101 145.662C199.107 146.653 197.615 147.148 196.621 147.645C192.147 150.123 170.089 159.909 167.513 161.521" stroke="#CC9A63" stroke-width="2" stroke-linecap="round" stroke-linejoin="round"/>
<path d="M181.751 188.907C184.792 187.498 186.374 186.302 188.363 185.312C199.798 179.363 210.238 173.416 221.176 166.477C226.147 163.998 227.717 163.438 232.689 160.96C235.588 158.895 241.391 155.408 243.141 152.198C244.094 150.448 242.969 148.32 240.978 148.157C237.195 147.848 229.156 152.105 226.579 153.206C218.128 156.179 202.901 162.289 194.589 165.372" stroke="#CC9A63" stroke-width="2" stroke-linecap="round" stroke-linejoin="round"/>
<path d="M222.351 166.031C224.185 165.621 227.545 166.049 227.52 169.116C227.516 169.642 227.279 170.137 227.017 170.594C225.225 173.727 220.864 175.439 218.155 177.733C215.271 180.175 197.024 192.287 190.034 194.455C175.805 198.865 166.248 201.045 151.43 201.615C145.986 201.824 140.34 201.504 134.893 201.615C120.311 202.732 104.606 206.589 91.7067 214.9C91.7067 214.9 63.0686 241.411 57.1848 269.307C57.1848 269.307 6.2932 234.436 8.58908 233.662C10.8839 232.887 47.1895 187.993 57.1848 173.597C63.208 164.921 68.405 154.927 76.8408 146.673C90.9012 133.218 104.357 120.768 119.732 109.514C121.13 108.491 122.544 107.478 123.975 106.475C133.826 100.556 142.277 92.1292 152.718 86.6773C155.203 85.6857 157.689 87.6688 157.689 90.1471C156.695 100.556 148.244 107.991 141.875 115.499C140.59 116.78 139.299 118.06 138.029 119.354C131.681 125.821 125.866 132.605 124.083 141.364C122.384 149.017 129.806 154.027 136.29 156.743C141.749 158.268 146.184 158.605 150.872 155.625C161.442 148.646 166.804 136.823 166.624 124.581C166.479 121.605 165.947 118.848 165.243 116.159C164.892 114.814 164.498 113.488 164.087 112.16C161.668 104.026 152.293 89.7085 162.636 86.4147C168.892 84.4224 170.119 94.6085 171.706 100.144C172.123 101.73 172.608 103.3 173.145 104.858C175.828 112.651 179.785 120.16 181.976 127.97C180.023 138.938 175.379 149.53 172.228 159.089" stroke="#CC9A63" stroke-width="2" stroke-linecap="round" stroke-linejoin="round"/>
<path d="M163.954 56.306C162.685 58.1233 161.719 60.301 159.258 60.5955C157.88 60.7602 156.362 59.8367 156.652 58.3427C156.865 57.2492 158.419 55.8077 159.11 54.8398C160.017 53.5693 162.091 49.8719 163.986 50.8119C163.986 50.8119 167.003 51.9425 163.954 56.306Z" stroke="#CC9A63" stroke-width="2" stroke-linecap="round" stroke-linejoin="round"/>
<path d="M151.711 68.0428C149.572 69.6779 147.576 71.5106 145.65 73.3722C142.547 76.3705 139.661 79.9237 135.986 82.261C134.658 83.1063 133.288 83.6943 131.859 83.8847C131.845 83.8868 131.83 83.8888 131.816 83.8898C129.675 84.1627 128.296 81.6648 129.613 79.9598C129.73 79.8084 129.848 79.6571 129.967 79.5067C130.893 78.336 131.876 77.2034 132.909 76.1161C135.943 72.9212 139.938 70.0033 143.613 67.5908C147.473 65.0569 150.037 63.3889 154.686 63.043C154.686 63.043 159.864 63.0429 156.041 65.1732C154.526 66.0175 153.089 66.9895 151.711 68.0428Z" stroke="#CC9A63" stroke-width="2" stroke-linecap="round" stroke-linejoin="round"/>
<path d="M159.748 44.7732C159.862 43.6448 159.945 42.5122 160.011 41.3765C160.175 30.0928 169.621 11.2588 156.198 8.78045C146.254 7.29366 139.791 25.1372 137.799 35.8783C137.586 37.0346 137.452 38.3164 137.485 39.5901C137.518 40.8637 137.718 42.1312 138.175 43.2556C139.019 45.3375 140.309 47.7447 142.221 45.5516C143.041 44.6116 143.42 43.4008 143.651 42.1343C143.882 40.8679 143.964 39.5458 144.194 38.3823C145.261 34.0568 140.29 33.0664 136.613 33.471C135.537 33.5771 134.441 33.7892 133.356 34.0744C130.098 34.931 126.925 36.4528 124.583 37.7872C120.126 40.3284 116.296 42.9518 113.181 47.1568C110.664 50.5536 108.131 55.6389 108.42 59.9428C109.029 69.0097 119.421 77.2066 128.377 76.2943" stroke="#CC9A63" stroke-width="2" stroke-linecap="round" stroke-linejoin="round"/>
<path d="M169.076 46.5565C173.789 38.9434 180.061 26.6229 172.107 19.6842C169.621 17.2059 164.649 19.189 163.172 22.5497" stroke="#CC9A63" stroke-width="2" stroke-linecap="round" stroke-linejoin="round"/>
<path d="M165.306 52.6828C168.745 51.5234 175.136 51.2722 178.584 50.1376C180.437 49.527 183.217 49.3962 184.882 48.4448" stroke="#CC9A63" stroke-width="2" stroke-linecap="round" stroke-linejoin="round"/>
<path d="M164.501 51.3803C169.483 45.5156 175.946 40.5589 182.097 34.9629" stroke="#CC9A63" stroke-width="2" stroke-linecap="round" stroke-linejoin="round"/>
</svg>
