<svg width="26" height="26" viewBox="0 0 26 26" fill="none" xmlns="http://www.w3.org/2000/svg">
<g id="Group">
<path id="Vector" d="M19.6406 0.5H6.35938C3.12333 0.5 0.5 3.12333 0.5 6.35938V19.6406C0.5 22.8767 3.12333 25.5 6.35938 25.5H19.6406C22.8767 25.5 25.5 22.8767 25.5 19.6406V6.35938C25.5 3.12333 22.8767 0.5 19.6406 0.5Z" fill="#F9FAFA"/>
<path id="Vector_2" d="M4.56602 20.3279H7.67324V12.7817L3.23438 9.45264V18.9963C3.23438 19.7331 3.83145 20.3279 4.56602 20.3279Z" fill="#414343" fill-opacity="0.8"/>
<path id="Vector_3" d="M18.3267 20.328H21.434C22.1708 20.328 22.7656 19.731 22.7656 18.9964V9.45264L18.3267 12.7818" fill="#414343" fill-opacity="0.8"/>
<path id="Vector_4" d="M18.3267 7.01131V12.7819L22.7656 9.45281V7.67703C22.7656 6.03025 20.8857 5.09138 19.5696 6.07908" fill="#414343"/>
<path id="Vector_5" d="M7.67334 12.7819V7.01143L13 11.0062L18.3267 7.01123V12.7818L13 16.777" fill="#414343" fill-opacity="0.8"/>
<path id="Vector_6" d="M3.23438 7.67703V9.45261L7.67324 12.7818V7.01131L6.43037 6.07908C5.11201 5.09138 3.23438 6.03025 3.23438 7.67703Z" fill="#414343"/>
</g>
</svg>
