<svg width="33" height="32" viewBox="0 0 33 32" fill="none" xmlns="http://www.w3.org/2000/svg">
<g clip-path="url(#clip0_336_9119)">
<path d="M16.492 19.9758C18.7034 19.9758 20.496 18.1831 20.496 15.9718C20.496 13.7604 18.7034 11.9678 16.492 11.9678C14.2807 11.9678 12.488 13.7604 12.488 15.9718C12.488 18.1831 14.2807 19.9758 16.492 19.9758Z" fill="#F9FAFA"/>
<path d="M28.4227 11.0837C28.408 10.0765 28.2215 9.07728 27.8643 8.13527C27.2392 6.52667 25.9665 5.25468 24.3552 4.632C23.4236 4.28207 22.4387 4.09447 21.4418 4.07318C20.1597 4.01597 19.7532 4 16.4987 4C13.2441 4 12.827 4 11.5542 4.07318C10.5586 4.09447 9.57375 4.28207 8.64216 4.632C7.03088 5.25468 5.75677 6.52667 5.13305 8.13527C4.78254 9.06531 4.59329 10.0486 4.57463 11.0425C4.51733 12.3238 4.5 12.7296 4.5 15.9787C4.5 19.2279 4.5 19.643 4.57463 20.915C4.59462 21.9102 4.78254 22.8921 5.13305 23.8248C5.75811 25.4321 7.03088 26.7041 8.64349 27.3268C9.57108 27.6887 10.556 27.8936 11.5555 27.9255C12.839 27.9827 13.2454 28 16.5 28C19.7546 28 20.1717 28 21.4445 27.9255C22.44 27.9055 23.4249 27.7179 24.3578 27.368C25.9691 26.744 27.2419 25.472 27.8669 23.8647C28.2175 22.9334 28.4054 21.9514 28.4254 20.9549C28.4827 19.6749 28.5 19.2691 28.5 16.0186C28.4973 12.7695 28.4973 12.357 28.4227 11.0837ZM16.4907 22.1231C13.0869 22.1231 10.3294 19.3702 10.3294 15.9721C10.3294 12.5739 13.0869 9.82104 16.4907 9.82104C19.8918 9.82104 22.6519 12.5739 22.6519 15.9721C22.6519 19.3702 19.8918 22.1231 16.4907 22.1231ZM22.8972 11.0278C22.1015 11.0278 21.4605 10.3865 21.4605 9.59353C21.4605 8.80053 22.1015 8.15922 22.8972 8.15922C23.6901 8.15922 24.3325 8.80053 24.3325 9.59353C24.3325 10.3865 23.6901 11.0278 22.8972 11.0278Z" fill="#F9FAFA"/>
</g>
<defs>
<clipPath id="clip0_336_9119">
<rect x="0.5" width="32" height="32" rx="8" fill="white"/>
</clipPath>
</defs>
</svg>
