<svg width="90" height="90" viewBox="0 0 90 90" fill="none" xmlns="http://www.w3.org/2000/svg">
<rect width="90" height="90" fill="#1E1E1E"/>
<g id="Mobile" clip-path="url(#clip0_0_1)">
<rect width="360" height="7602" transform="translate(-135 -7436)" fill="white"/>
<g id="Footer">
<rect width="360" height="486" transform="translate(-135 -320)" fill="#212121"/>
<g id="Frame 2392">
<g id="Top">
<g id="right">
<g id="Frame 2364">
<g id="LogoFooter">
<g id="Logo">
<g id="Frame 2351">
<g clip-path="url(#clip1_0_1)">
<g id="Group 12" filter="url(#filter0_d_0_1)">
<g id="Vector (Stroke)">
<path fill-rule="evenodd" clip-rule="evenodd" d="M45 14.4229C44.2353 14.4229 43.6154 15.0428 43.6154 15.8075C43.6154 16.5722 44.2353 17.1922 45 17.1922C45.7647 17.1922 46.3846 16.5722 46.3846 15.8075C46.3846 15.0428 45.7647 14.4229 45 14.4229ZM43.3077 15.8075C43.3077 14.8729 44.0654 14.1152 45 14.1152C45.9346 14.1152 46.6923 14.8729 46.6923 15.8075C46.6923 16.7422 45.9346 17.4998 45 17.4998C44.0654 17.4998 43.3077 16.7422 43.3077 15.8075ZM31.9231 20.5768C31.5832 20.5768 31.3077 20.8523 31.3077 21.1922C31.3077 21.532 31.5832 21.8075 31.9231 21.8075C32.2629 21.8075 32.5385 21.532 32.5385 21.1922C32.5385 20.8523 32.2629 20.5768 31.9231 20.5768ZM31 21.1922C31 20.6824 31.4133 20.2691 31.9231 20.2691C32.4329 20.2691 32.8462 20.6824 32.8462 21.1922C32.8462 21.702 32.4329 22.1152 31.9231 22.1152C31.4133 22.1152 31 21.702 31 21.1922ZM58.0769 20.5768C57.7371 20.5768 57.4615 20.8523 57.4615 21.1922C57.4615 21.532 57.7371 21.8075 58.0769 21.8075C58.4168 21.8075 58.6923 21.532 58.6923 21.1922C58.6923 20.8523 58.4168 20.5768 58.0769 20.5768ZM57.1538 21.1922C57.1538 20.6824 57.5671 20.2691 58.0769 20.2691C58.5867 20.2691 59 20.6824 59 21.1922C59 21.702 58.5867 22.1152 58.0769 22.1152C57.5671 22.1152 57.1538 21.702 57.1538 21.1922Z" fill="#F9FAFA"/>
<path d="M43.6154 15.8075C43.6154 15.0428 44.2353 14.4229 45 14.4229C45.7647 14.4229 46.3846 15.0428 46.3846 15.8075C46.3846 16.5722 45.7647 17.1922 45 17.1922C44.2353 17.1922 43.6154 16.5722 43.6154 15.8075Z" fill="#F9FAFA"/>
<path d="M31.3077 21.1922C31.3077 20.8523 31.5832 20.5768 31.9231 20.5768C32.2629 20.5768 32.5385 20.8523 32.5385 21.1922C32.5385 21.532 32.2629 21.8075 31.9231 21.8075C31.5832 21.8075 31.3077 21.532 31.3077 21.1922Z" fill="#F9FAFA"/>
<path d="M57.4615 21.1922C57.4615 20.8523 57.7371 20.5768 58.0769 20.5768C58.4168 20.5768 58.6923 20.8523 58.6923 21.1922C58.6923 21.532 58.4168 21.8075 58.0769 21.8075C57.7371 21.8075 57.4615 21.532 57.4615 21.1922Z" fill="#F9FAFA"/>
</g>
<g id="Vector">
<path fill-rule="evenodd" clip-rule="evenodd" d="M24.4025 40.9519C29.7191 47.3084 43.3752 49.2602 43.5579 49.3177C43.7406 49.3753 43.5794 49.4626 43.5794 49.4626C33.898 56.868 21.2584 50.8898 17.2659 44.412C17.1835 44.2781 17.1005 44.1466 17.0168 44.0139C16.4494 43.1149 15.8527 42.1696 15.242 40.1608L15 39.1322C15 38.5761 15.0576 38.2885 15.242 38.0863C15.4264 37.8841 16.4292 37.8432 16.4522 37.8432C17.5587 37.8432 19.8638 38.3992 21.316 38.8289L22.9174 39.2924C22.9174 39.2924 23.1829 39.4054 23.188 39.413C23.5951 40.0177 23.9102 40.4169 24.4025 40.9519ZM65.0109 41.5561C61.1414 45.5183 54.3927 47.3724 49.3485 48.6423C48.7359 48.8013 48.117 48.8774 47.4984 48.9534C46.9308 49.0231 46.3635 49.0928 45.8014 49.2265C46.9531 50.1917 48.5193 51.0806 49.8553 51.6902C54.6 53.7983 62.4079 52.5847 66.9224 49.9433C71.0453 47.5558 73.8599 44.5025 74.8273 39.2196C74.8384 39.1593 74.8508 39.0946 74.8639 39.0268C74.9813 38.4168 75.1462 37.5603 74.75 37.4721C74.2087 37.3515 72.9327 37.6517 72.9327 37.6517C72.9327 37.6517 67.4524 38.6861 66.439 39.7274C66.2019 39.9764 65.9813 40.2865 65.7557 40.6038C65.7264 40.645 65.6969 40.6864 65.6674 40.7278C65.4606 41.0173 65.2472 41.3069 65.0109 41.5561ZM57.7644 45.7429C55.7848 46.6353 53.7361 47.3747 51.5723 47.5787C51.3355 47.5412 51.7734 47.1835 52.0874 46.9141C52.1875 46.8282 52.493 46.3732 52.5113 46.3461C52.6006 46.2143 52.6502 45.9298 52.7232 45.5888C52.786 45.2959 52.904 44.9847 53.0422 44.8315C53.359 44.2635 54.0499 44.0427 54.6391 43.6026C54.9977 43.3348 55.3337 43.0837 55.5776 42.8618C58.1327 40.5927 59.3988 38.247 60.1814 34.499C60.2195 34.3184 60.2447 34.1363 60.2695 33.9572C60.3497 33.3779 60.4257 32.8293 60.918 32.4593C61.9078 31.5669 64.7852 30.2666 65.9822 29.7312C67.0863 29.2216 67.5985 28.9794 67.8548 28.8582C68.052 28.7649 68.0981 28.7431 68.1454 28.7266C68.1594 28.7216 68.1736 28.7171 68.1921 28.7113C68.2083 28.7061 68.2246 28.7007 68.2407 28.6954C68.3841 28.6477 68.5143 28.6044 68.5143 28.7878V31.4904C68.5143 31.7964 68.2611 34.0911 67.8928 35.1364C67.8113 35.3678 67.7388 35.6066 67.6641 35.8551L67.6491 35.9051C67.3901 36.7675 67.0958 37.7473 66.3045 38.9354C65.2686 40.4907 64.4169 41.6635 63.3811 42.5049C62.3452 43.3463 59.7169 44.8315 59.7169 44.8315L57.7644 45.7429ZM37.365 47.4361C35.839 47.0494 33.4592 46.4096 32.0544 45.8211C30.5921 45.2151 28.4215 43.8309 26.6487 42.6002C24.9579 41.2668 24.0077 39.8369 24.0077 39.8369C22.0042 36.9456 20.8596 33.5912 21.2672 29.9605C21.3156 29.5383 21.7048 29.4488 22.1193 29.4999C22.626 29.5511 23.2017 29.7046 23.5702 29.807C24.2841 29.9861 24.8811 30.255 25.2726 30.383C25.6641 30.5109 26.5871 30.9072 27.0246 31.1631C27.9458 31.6748 29.2585 32.4424 29.4888 32.8006C29.7126 33.1652 29.7044 33.4869 29.696 33.8213C29.6914 34.0031 29.6867 34.1887 29.7191 34.387C30.2027 37.5085 31.6997 40.3742 33.7954 42.4979C33.7954 42.4979 36.6129 44.789 36.8113 45.0432C37.0096 45.2974 37.2403 46.6096 37.7334 47.3849C37.6985 47.482 37.5574 47.4612 37.4511 47.4455C37.4174 47.4405 37.3872 47.4361 37.365 47.4361ZM46.2402 46.3723C45.2092 45.0346 42.6891 45.8675 42.9869 47.6595C43.0763 48.2011 43.3981 48.4652 43.6186 48.6462C43.7373 48.7435 43.8266 48.8168 43.8346 48.8962C42.2767 48.7196 40.65 48.4924 39.2296 47.7352C38.359 47.2809 37.855 46.9528 37.4884 45.918C36.4116 42.8387 38.2903 40.0877 40.146 38.018C40.146 38.018 40.9708 37.1094 42.2079 36.3522C43.4451 35.595 44.3615 35.2417 44.7739 35.2417C45.1863 35.2417 45.4416 35.3211 46.3292 35.6741C46.7102 35.8257 47.0995 36.0491 47.2774 36.1622C47.4811 36.2918 47.6958 36.4437 48.3387 36.904C49.2551 37.5603 50.0433 38.4976 50.0433 38.4976C51.2117 39.6838 52.403 41.602 52.5176 43.394C52.5634 43.9241 52.4259 45.5394 52.2656 46.0189C51.9677 46.9528 50.1807 48.0129 49.333 48.24C48.597 48.4221 47.8018 48.5173 47.0186 48.6111L46.9427 48.6202C46.5634 48.6656 46.1874 48.7114 45.8229 48.7673C45.8864 48.6707 45.9644 48.5706 46.0463 48.4656C46.4523 47.9447 46.953 47.3023 46.2402 46.3723ZM55.2664 42.7489C54.8425 43.1276 54.4186 43.3169 53.7829 43.6956C53.7489 43.7075 53.4006 43.8967 53.3636 43.9116C53.212 43.9729 53.0534 44.037 53.0422 43.9207C52.8485 40.69 50.9642 38.2487 48.6256 36.5534C48.3304 36.3402 48.2497 35.8986 48.448 35.5763L48.4526 35.5687C48.6578 35.2433 48.8445 34.9431 49.0173 34.6653L49.0191 34.6623L49.0206 34.6598C50.5157 32.2558 50.9934 31.4876 53.8033 29.7825C55.0718 28.945 56.1811 28.2649 56.1811 28.2649L56.9099 27.9045C57.1175 27.8005 57.3343 27.7192 57.558 27.6659C58.4189 27.4609 59.2977 27.9951 59.5347 29.4503C60.8193 34.8762 58.1803 39.6919 56.326 41.613L55.2664 42.7489Z" fill="#F9FAFA"/>
<path d="M43.1624 47.3689C43.1459 47.0894 43.2904 46.7442 43.6255 46.4448C44.0493 46.0661 44.6851 45.8768 45.3209 46.0661C45.9567 46.2555 46.5532 46.9903 46.3413 47.5676C46.1294 48.1449 46.0266 48.1963 45.9174 48.3156C45.8083 48.4348 45.4861 48.7673 44.9255 48.7562C44.7812 48.7562 44.3462 48.7385 44.1236 48.6351C43.8632 48.514 43.5647 48.2289 43.3743 47.9369C43.222 47.7033 43.1789 47.6484 43.1624 47.3689Z" fill="#F9FAFA"/>
<path d="M44.6705 52.025H44.9255L45.0608 49.3206C45.0909 49.1668 45.3243 49.2195 45.2964 49.1141C45.2051 48.9857 44.9508 49.0061 44.7812 48.9857C44.573 48.9606 44.3937 49.1508 44.5693 49.175C44.8176 49.3402 44.7064 50.2724 44.6728 51.1254L44.6707 51.1784L44.6674 51.2613C44.6515 51.6695 44.6411 51.9847 44.6705 52.025Z" fill="#F9FAFA"/>
<path d="M41.7183 26.8723C40.2348 28.7656 39.5807 30.2781 40.0228 32.3627C40.2307 33.343 41.0643 34.341 41.9726 35.1161C42.9474 35.6083 43.8376 34.824 44.8972 34.824C45.9568 34.824 47.4403 35.5705 47.8642 35.1161C48.288 34.6617 48.9662 33.7529 49.4324 32.8063C50.4921 30.6102 48.7543 27.9596 48.0337 26.9751C47.3939 26.1398 46.6685 25.469 45.9568 24.7898C45.4426 24.299 44.8972 23.6538 44.4733 23.6538C44.0495 23.6538 43.594 24.4559 43.2018 24.9791C42.6462 25.7202 42.1531 26.3174 41.7183 26.8723Z" fill="#F9FAFA"/>
<path d="M37.1406 30.4858C37.8467 31.0316 39.0461 32.0586 39.8061 33.1844C40.1051 33.6272 40.3561 34.1056 40.6078 34.5853C40.7231 34.8049 40.8691 35.034 41.0116 35.2576C41.2053 35.5615 41.3925 35.8552 41.4873 36.1013C39.1574 37.9657 36.2929 41.8053 36.8113 44.5823C36.5048 44.2037 35.4542 43.4012 34.8582 42.9236C34.7005 42.7972 34.5633 42.6873 34.4632 42.6002C32.5057 40.8603 30.1567 36.7665 30.1567 33.9008C30.0415 32.3912 30.1883 30.0886 30.2254 29.7643C30.2254 29.7241 30.2524 29.5231 30.3607 29.0407C30.496 28.4377 30.6829 27.9259 30.7667 27.7988L30.7786 27.7807C30.9104 27.5796 31.1061 27.35 31.763 27.4671L32.6614 27.714C33.7803 28.0659 35.4846 29.295 36.6123 30.1084L37.1406 30.4858Z" fill="#F9FAFA"/>
</g>
</g>
<g id="Frame 2346">
<path id="VIKI" d="M36.528 64.9648L34.238 59.2048C34.0447 58.7781 33.7547 58.5648 33.368 58.5648V58.2548H36.068V58.5648H35.608C35.3814 58.5648 35.268 58.6281 35.268 58.7548C35.268 58.8148 35.2747 58.8814 35.288 58.9548C35.3014 59.0281 35.318 59.1114 35.338 59.2048L37.018 63.7048L38.588 59.4048C38.608 59.2848 38.618 59.1681 38.618 59.0548C38.618 58.7281 38.3147 58.5648 37.708 58.5648V58.2548H40.108V58.5648H39.798C39.5647 58.5648 39.388 58.7414 39.268 59.0948L36.868 65.0348L36.528 64.9648ZM41.061 64.8848V64.5848C41.6943 64.5848 42.011 64.3548 42.011 63.8948V59.4448C42.011 58.8581 41.681 58.5648 41.021 58.5648V58.2548H43.911V58.5648C43.2977 58.5648 42.991 58.8581 42.991 59.4448V63.8948C42.991 64.3548 43.311 64.5848 43.951 64.5848V64.8848H41.061ZM49.618 64.8848V64.5848C49.998 64.5848 50.188 64.5314 50.188 64.4248C50.188 64.3381 50.1013 64.1748 49.928 63.9348L48.128 61.6148L47.678 62.0248C47.6046 62.0914 47.538 62.1681 47.478 62.2548C47.4246 62.3414 47.388 62.4448 47.368 62.5648V63.8948C47.368 64.3548 47.7013 64.5848 48.368 64.5848V64.8848H45.468V64.5848C46.0813 64.5848 46.388 64.3548 46.388 63.8948V59.2948C46.388 58.8081 46.058 58.5648 45.398 58.5648V58.2548H48.248V58.5648C47.6613 58.5648 47.368 58.8081 47.368 59.2948V61.7248L49.698 59.5148C49.8513 59.3748 49.9513 59.2648 49.998 59.1848C50.0513 59.0981 50.078 58.9814 50.078 58.8348C50.078 58.6548 49.848 58.5648 49.388 58.5648V58.2548H51.978V58.5648C51.778 58.5848 51.6113 58.6148 51.478 58.6548C51.3513 58.6881 51.2313 58.7414 51.118 58.8148C51.0046 58.8814 50.8846 58.9748 50.758 59.0948C50.6313 59.2081 50.468 59.3614 50.268 59.5548L48.858 60.9248L51.138 63.8948C51.2313 63.9948 51.318 64.0881 51.398 64.1748C51.478 64.2614 51.5613 64.3348 51.648 64.3948C51.7413 64.4548 51.8413 64.5014 51.948 64.5348C52.0613 64.5681 52.198 64.5848 52.358 64.5848V64.8848H49.618ZM53.145 64.8848V64.5848C53.7783 64.5848 54.095 64.3548 54.095 63.8948V59.4448C54.095 58.8581 53.765 58.5648 53.105 58.5648V58.2548H55.995V58.5648C55.3817 58.5648 55.075 58.8581 55.075 59.4448V63.8948C55.075 64.3548 55.395 64.5848 56.035 64.5848V64.8848H53.145Z" fill="#F9FAFA"/>
<g id="Frame 11">
<path id="REIKI MASTER" d="M24.0035 71.7128C24.1235 71.7128 24.2395 71.7048 24.3515 71.6888C24.4635 71.6728 24.5635 71.6368 24.6515 71.5808C24.7395 71.5248 24.8095 71.4448 24.8615 71.3408C24.9175 71.2368 24.9455 71.0948 24.9455 70.9148C24.9455 70.7628 24.9175 70.6368 24.8615 70.5368C24.8095 70.4368 24.7395 70.3588 24.6515 70.3028C24.5675 70.2428 24.4735 70.2008 24.3695 70.1768C24.2655 70.1528 24.1635 70.1408 24.0635 70.1408H23.7755C23.6235 70.1408 23.5475 70.2528 23.5475 70.4768V71.6228C23.5635 71.6828 23.6115 71.7128 23.6915 71.7128H24.0035ZM26.1575 73.3628C26.1575 73.4108 26.1455 73.4688 26.1215 73.5368C26.1015 73.6048 26.0675 73.6688 26.0195 73.7288C25.9755 73.7888 25.9195 73.8408 25.8515 73.8848C25.7875 73.9288 25.7135 73.9508 25.6295 73.9508C25.3855 73.9508 25.2055 73.9108 25.0895 73.8308C24.9735 73.7468 24.8875 73.6128 24.8315 73.4288C24.7835 73.2768 24.7355 73.1148 24.6875 72.9428C24.6395 72.7668 24.5815 72.6068 24.5135 72.4628C24.4495 72.3148 24.3695 72.1928 24.2735 72.0968C24.1775 71.9968 24.0575 71.9468 23.9135 71.9468H23.7335C23.6255 71.9468 23.5635 71.9688 23.5475 72.0128V73.3148C23.5475 73.5748 23.7315 73.7048 24.0995 73.7048V73.8848H22.4075V73.7048C22.7595 73.7048 22.9355 73.5748 22.9355 73.3148V70.4768C22.9355 70.2208 22.7455 70.0928 22.3655 70.0928V69.9068H23.1155C23.2475 69.9068 23.3595 69.9068 23.4515 69.9068C23.5435 69.9028 23.6315 69.8988 23.7155 69.8948C23.8035 69.8908 23.8955 69.8888 23.9915 69.8888C24.0915 69.8848 24.2115 69.8828 24.3515 69.8828C24.5235 69.8828 24.6855 69.9088 24.8375 69.9608C24.9895 70.0088 25.1195 70.0768 25.2275 70.1648C25.3395 70.2528 25.4275 70.3568 25.4915 70.4768C25.5555 70.5968 25.5875 70.7268 25.5875 70.8668C25.5875 71.0068 25.5615 71.1308 25.5095 71.2388C25.4575 71.3468 25.3835 71.4408 25.2875 71.5208C25.1955 71.6008 25.0855 71.6688 24.9575 71.7248C24.8295 71.7808 24.6875 71.8248 24.5315 71.8568V71.8748C24.7235 71.9668 24.8815 72.0828 25.0055 72.2228C25.1335 72.3588 25.2195 72.4908 25.2635 72.6188C25.2875 72.6988 25.3155 72.7948 25.3475 72.9068C25.3795 73.0188 25.4155 73.1248 25.4555 73.2248C25.4995 73.3248 25.5495 73.4108 25.6055 73.4828C25.6615 73.5508 25.7295 73.5848 25.8095 73.5848C25.9055 73.5848 25.9755 73.4948 26.0195 73.3148L26.1575 73.3628ZM26.7036 73.8848V73.7048C27.0716 73.7048 27.2556 73.5748 27.2556 73.3148V70.5968C27.2556 70.2608 27.0576 70.0928 26.6616 70.0928V69.9068H29.8116L29.8596 71.0288L29.6736 71.0528C29.6376 70.8368 29.5836 70.6688 29.5116 70.5488C29.4396 70.4288 29.3516 70.3408 29.2476 70.2848C29.1476 70.2248 29.0316 70.1908 28.8996 70.1828C28.7676 70.1708 28.6236 70.1648 28.4676 70.1648H28.2996C27.9956 70.1648 27.8436 70.2548 27.8436 70.4348V71.5088C27.8436 71.6288 27.8916 71.6888 27.9876 71.6888H28.1916C28.2916 71.6888 28.3836 71.6848 28.4676 71.6768C28.5556 71.6648 28.6316 71.6388 28.6956 71.5988C28.7636 71.5548 28.8176 71.4908 28.8576 71.4068C28.9016 71.3188 28.9316 71.2008 28.9476 71.0528H29.1696V72.6068H28.9476C28.9316 72.4588 28.9076 72.3428 28.8756 72.2588C28.8436 72.1708 28.7976 72.1048 28.7376 72.0608C28.6776 72.0128 28.6036 71.9828 28.5156 71.9708C28.4276 71.9548 28.3196 71.9468 28.1916 71.9468H28.1196C27.9356 71.9468 27.8436 72.0128 27.8436 72.1448V73.2908C27.8436 73.5188 28.0036 73.6328 28.3236 73.6328H28.5096C28.7616 73.6328 28.9636 73.6148 29.1156 73.5788C29.2716 73.5388 29.3976 73.4788 29.4936 73.3988C29.5896 73.3148 29.6656 73.2108 29.7216 73.0868C29.7816 72.9628 29.8416 72.8168 29.9016 72.6488L30.0636 72.6968L29.9016 73.8848H26.7036ZM30.8528 73.8848V73.7048C31.2328 73.7048 31.4228 73.5668 31.4228 73.2908V70.6208C31.4228 70.2688 31.2248 70.0928 30.8288 70.0928V69.9068H32.5628V70.0928C32.1948 70.0928 32.0108 70.2688 32.0108 70.6208V73.2908C32.0108 73.5668 32.2028 73.7048 32.5868 73.7048V73.8848H30.8528ZM35.987 73.8848V73.7048C36.215 73.7048 36.329 73.6728 36.329 73.6088C36.329 73.5568 36.277 73.4588 36.173 73.3148L35.093 71.9228L34.823 72.1688C34.779 72.2088 34.739 72.2548 34.703 72.3068C34.671 72.3588 34.649 72.4208 34.637 72.4928V73.2908C34.637 73.5668 34.837 73.7048 35.237 73.7048V73.8848H33.497V73.7048C33.865 73.7048 34.049 73.5668 34.049 73.2908V70.5308C34.049 70.2388 33.851 70.0928 33.455 70.0928V69.9068H35.165V70.0928C34.813 70.0928 34.637 70.2388 34.637 70.5308V71.9888L36.035 70.6628C36.127 70.5788 36.187 70.5128 36.215 70.4648C36.247 70.4128 36.263 70.3428 36.263 70.2548C36.263 70.1468 36.125 70.0928 35.849 70.0928V69.9068H37.403V70.0928C37.283 70.1048 37.183 70.1228 37.103 70.1468C37.027 70.1668 36.955 70.1988 36.887 70.2428C36.819 70.2828 36.747 70.3388 36.671 70.4108C36.595 70.4788 36.497 70.5708 36.377 70.6868L35.531 71.5088L36.899 73.2908C36.955 73.3508 37.007 73.4068 37.055 73.4588C37.103 73.5108 37.153 73.5548 37.205 73.5908C37.261 73.6268 37.321 73.6548 37.385 73.6748C37.453 73.6948 37.535 73.7048 37.631 73.7048V73.8848H35.987ZM38.1032 73.8848V73.7048C38.4832 73.7048 38.6732 73.5668 38.6732 73.2908V70.6208C38.6732 70.2688 38.4752 70.0928 38.0792 70.0928V69.9068H39.8132V70.0928C39.4452 70.0928 39.2612 70.2688 39.2612 70.6208V73.2908C39.2612 73.5668 39.4532 73.7048 39.8372 73.7048V73.8848H38.1032ZM45.8882 73.8848V73.7048C46.2402 73.7048 46.4162 73.5588 46.4162 73.2668L46.3742 70.4768L45.0962 73.8848H44.9282L43.5602 70.5308L43.5362 73.1768C43.5322 73.5288 43.7322 73.7048 44.1362 73.7048V73.8848H42.6902V73.7048C43.0542 73.7048 43.2462 73.5128 43.2662 73.1288L43.3142 70.4528V70.3928C43.3142 70.3488 43.3082 70.3088 43.2962 70.2728C43.2882 70.2368 43.2622 70.2048 43.2182 70.1768C43.1782 70.1488 43.1182 70.1288 43.0382 70.1168C42.9582 70.1008 42.8502 70.0928 42.7142 70.0928V69.9068H43.9502L45.1622 72.9488L46.3202 69.9068H47.5382V70.0928C47.4062 70.0928 47.3022 70.1028 47.2262 70.1228C47.1502 70.1388 47.0922 70.1648 47.0522 70.2008C47.0162 70.2328 46.9922 70.2708 46.9802 70.3148C46.9722 70.3588 46.9682 70.4048 46.9682 70.4528L47.0342 73.2248C47.0342 73.5448 47.2162 73.7048 47.5802 73.7048V73.8848H45.8882ZM50.5178 73.8848V73.7048C50.5738 73.6968 50.6318 73.6888 50.6918 73.6808C50.7558 73.6728 50.8118 73.6628 50.8598 73.6508C50.9118 73.6388 50.9538 73.6248 50.9858 73.6088C51.0218 73.5888 51.0398 73.5668 51.0398 73.5428C51.0358 73.5268 51.0318 73.5048 51.0278 73.4768C51.0278 73.4448 51.0178 73.4068 50.9978 73.3628L50.7278 72.6248C50.6838 72.5208 50.5618 72.4688 50.3618 72.4688H49.4678C49.3158 72.4688 49.2238 72.5208 49.1918 72.6248L48.9878 73.2488C48.9718 73.2848 48.9638 73.3368 48.9638 73.4048C48.9638 73.5888 49.1398 73.6808 49.4918 73.6808V73.8848H48.1418V73.6808C48.2578 73.6728 48.3558 73.6328 48.4358 73.5608C48.5198 73.4888 48.5898 73.3848 48.6458 73.2488L50.0858 69.8168L50.2658 69.8888L51.6878 73.4528C51.7438 73.5368 51.7878 73.5888 51.8198 73.6088C51.8278 73.6168 51.8598 73.6288 51.9158 73.6448C51.9758 73.6568 52.0578 73.6768 52.1618 73.7048V73.8848H50.5178ZM49.9958 70.6628L49.4678 71.9228C49.4238 72.0188 49.4018 72.0868 49.4018 72.1268C49.4018 72.1868 49.4758 72.2168 49.6238 72.2168H50.3798C50.4998 72.2168 50.5598 72.1928 50.5598 72.1448C50.5598 72.1248 50.5378 72.0588 50.4938 71.9468L49.9958 70.6628ZM55.0373 71.1188C54.9573 70.7948 54.8233 70.5368 54.6353 70.3448C54.4473 70.1488 54.2153 70.0508 53.9393 70.0508C53.7113 70.0508 53.5293 70.1108 53.3933 70.2308C53.2573 70.3508 53.1893 70.5028 53.1893 70.6868C53.1893 70.8308 53.2373 70.9568 53.3333 71.0648C53.4333 71.1688 53.5813 71.2628 53.7773 71.3468C54.0213 71.4508 54.2433 71.5388 54.4433 71.6108C54.6433 71.6788 54.8133 71.7588 54.9533 71.8508C55.0973 71.9428 55.2073 72.0588 55.2833 72.1988C55.3633 72.3388 55.4033 72.5288 55.4033 72.7688C55.4033 72.9168 55.3793 73.0628 55.3313 73.2068C55.2873 73.3508 55.2173 73.4808 55.1213 73.5968C55.0253 73.7088 54.8993 73.8008 54.7433 73.8728C54.5913 73.9408 54.4073 73.9748 54.1913 73.9748C54.0513 73.9748 53.9293 73.9648 53.8253 73.9448C53.7253 73.9248 53.6393 73.9008 53.5673 73.8728C53.4993 73.8448 53.4453 73.8168 53.4053 73.7888C53.3653 73.7608 53.3373 73.7408 53.3213 73.7288C53.2453 73.7848 53.1693 73.8348 53.0933 73.8788C53.0173 73.9228 52.9413 73.9548 52.8653 73.9748C52.8213 73.6748 52.7873 73.4088 52.7633 73.1768C52.7433 72.9408 52.7333 72.7348 52.7333 72.5588H52.9313C52.9313 72.7348 52.9673 72.8968 53.0393 73.0448C53.1113 73.1888 53.2033 73.3128 53.3153 73.4168C53.4273 73.5208 53.5533 73.6028 53.6933 73.6628C53.8333 73.7188 53.9693 73.7468 54.1013 73.7468C54.1853 73.7468 54.2773 73.7328 54.3773 73.7048C54.4813 73.6768 54.5773 73.6328 54.6653 73.5728C54.7573 73.5128 54.8333 73.4368 54.8933 73.3448C54.9573 73.2528 54.9893 73.1428 54.9893 73.0148C54.9893 72.8548 54.9453 72.7148 54.8573 72.5948C54.7733 72.4748 54.6373 72.3808 54.4493 72.3128C54.2293 72.2328 54.0173 72.1588 53.8133 72.0908C53.6133 72.0228 53.4353 71.9428 53.2793 71.8508C53.1273 71.7548 53.0053 71.6368 52.9133 71.4968C52.8213 71.3528 52.7753 71.1648 52.7753 70.9328C52.7753 70.7648 52.8053 70.6128 52.8653 70.4768C52.9253 70.3408 53.0053 70.2248 53.1053 70.1288C53.2093 70.0288 53.3293 69.9528 53.4653 69.9008C53.6013 69.8448 53.7433 69.8168 53.8913 69.8168C54.0633 69.8168 54.2093 69.8488 54.3293 69.9128C54.4533 69.9728 54.5673 70.0268 54.6713 70.0748C54.7953 69.9748 54.9253 69.9048 55.0613 69.8648C55.1173 70.0488 55.1573 70.2448 55.1813 70.4528C55.2053 70.6568 55.2173 70.8788 55.2173 71.1188H55.0373ZM56.7533 73.8848V73.7048C57.1813 73.7048 57.3953 73.5208 57.3953 73.1528V70.3868C57.3953 70.2388 57.2973 70.1648 57.1013 70.1648C56.8373 70.1648 56.6233 70.2508 56.4593 70.4228C56.2953 70.5908 56.1733 70.8468 56.0933 71.1908L55.9073 71.1428L56.0693 69.8648C56.1613 69.8768 56.2473 69.8868 56.3273 69.8948C56.4113 69.9028 56.4913 69.9068 56.5673 69.9068H58.8773C58.9613 69.9068 59.0473 69.9028 59.1353 69.8948C59.2233 69.8868 59.3133 69.8768 59.4053 69.8648V71.1188L59.2433 71.1428C59.1953 70.5028 58.8753 70.1828 58.2833 70.1828C58.0833 70.1828 57.9833 70.2508 57.9833 70.3868V73.1528C57.9833 73.5208 58.1993 73.7048 58.6313 73.7048V73.8848H56.7533ZM60.0892 73.8848V73.7048C60.4572 73.7048 60.6412 73.5748 60.6412 73.3148V70.5968C60.6412 70.2608 60.4432 70.0928 60.0472 70.0928V69.9068H63.1972L63.2452 71.0288L63.0592 71.0528C63.0232 70.8368 62.9692 70.6688 62.8972 70.5488C62.8252 70.4288 62.7372 70.3408 62.6332 70.2848C62.5332 70.2248 62.4172 70.1908 62.2852 70.1828C62.1532 70.1708 62.0092 70.1648 61.8532 70.1648H61.6852C61.3812 70.1648 61.2292 70.2548 61.2292 70.4348V71.5088C61.2292 71.6288 61.2772 71.6888 61.3732 71.6888H61.5772C61.6772 71.6888 61.7692 71.6848 61.8532 71.6768C61.9412 71.6648 62.0172 71.6388 62.0812 71.5988C62.1492 71.5548 62.2032 71.4908 62.2432 71.4068C62.2872 71.3188 62.3172 71.2008 62.3332 71.0528H62.5552V72.6068H62.3332C62.3172 72.4588 62.2932 72.3428 62.2612 72.2588C62.2292 72.1708 62.1832 72.1048 62.1232 72.0608C62.0632 72.0128 61.9892 71.9828 61.9012 71.9708C61.8132 71.9548 61.7052 71.9468 61.5772 71.9468H61.5052C61.3212 71.9468 61.2292 72.0128 61.2292 72.1448V73.2908C61.2292 73.5188 61.3892 73.6328 61.7092 73.6328H61.8952C62.1472 73.6328 62.3492 73.6148 62.5012 73.5788C62.6572 73.5388 62.7832 73.4788 62.8792 73.3988C62.9752 73.3148 63.0512 73.2108 63.1072 73.0868C63.1672 72.9628 63.2272 72.8168 63.2872 72.6488L63.4492 72.6968L63.2872 73.8848H60.0892ZM65.8524 71.7128C65.9724 71.7128 66.0884 71.7048 66.2004 71.6888C66.3124 71.6728 66.4124 71.6368 66.5004 71.5808C66.5884 71.5248 66.6584 71.4448 66.7104 71.3408C66.7664 71.2368 66.7944 71.0948 66.7944 70.9148C66.7944 70.7628 66.7664 70.6368 66.7104 70.5368C66.6584 70.4368 66.5884 70.3588 66.5004 70.3028C66.4164 70.2428 66.3224 70.2008 66.2184 70.1768C66.1144 70.1528 66.0124 70.1408 65.9124 70.1408H65.6244C65.4724 70.1408 65.3964 70.2528 65.3964 70.4768V71.6228C65.4124 71.6828 65.4604 71.7128 65.5404 71.7128H65.8524ZM68.0064 73.3628C68.0064 73.4108 67.9944 73.4688 67.9704 73.5368C67.9504 73.6048 67.9164 73.6688 67.8684 73.7288C67.8244 73.7888 67.7684 73.8408 67.7004 73.8848C67.6364 73.9288 67.5624 73.9508 67.4784 73.9508C67.2344 73.9508 67.0544 73.9108 66.9384 73.8308C66.8224 73.7468 66.7364 73.6128 66.6804 73.4288C66.6324 73.2768 66.5844 73.1148 66.5364 72.9428C66.4884 72.7668 66.4304 72.6068 66.3624 72.4628C66.2984 72.3148 66.2184 72.1928 66.1224 72.0968C66.0264 71.9968 65.9064 71.9468 65.7624 71.9468H65.5824C65.4744 71.9468 65.4124 71.9688 65.3964 72.0128V73.3148C65.3964 73.5748 65.5804 73.7048 65.9484 73.7048V73.8848H64.2564V73.7048C64.6084 73.7048 64.7844 73.5748 64.7844 73.3148V70.4768C64.7844 70.2208 64.5944 70.0928 64.2144 70.0928V69.9068H64.9644C65.0964 69.9068 65.2084 69.9068 65.3004 69.9068C65.3924 69.9028 65.4804 69.8988 65.5644 69.8948C65.6524 69.8908 65.7444 69.8888 65.8404 69.8888C65.9404 69.8848 66.0604 69.8828 66.2004 69.8828C66.3724 69.8828 66.5344 69.9088 66.6864 69.9608C66.8384 70.0088 66.9684 70.0768 67.0764 70.1648C67.1884 70.2528 67.2764 70.3568 67.3404 70.4768C67.4044 70.5968 67.4364 70.7268 67.4364 70.8668C67.4364 71.0068 67.4104 71.1308 67.3584 71.2388C67.3064 71.3468 67.2324 71.4408 67.1364 71.5208C67.0444 71.6008 66.9344 71.6688 66.8064 71.7248C66.6784 71.7808 66.5364 71.8248 66.3804 71.8568V71.8748C66.5724 71.9668 66.7304 72.0828 66.8544 72.2228C66.9824 72.3588 67.0684 72.4908 67.1124 72.6188C67.1364 72.6988 67.1644 72.7948 67.1964 72.9068C67.2284 73.0188 67.2644 73.1248 67.3044 73.2248C67.3484 73.3248 67.3984 73.4108 67.4544 73.4828C67.5104 73.5508 67.5784 73.5848 67.6584 73.5848C67.7544 73.5848 67.8244 73.4948 67.8684 73.3148L68.0064 73.3628Z" fill="#F9FAFA"/>
</g>
</g>
</g>
</g>
</g>
</g>
</g>
</g>
</g>
</g>
</g>
</g>
<defs>
<filter id="filter0_d_0_1" x="-35" y="-31.8848" width="160" height="138.77" filterUnits="userSpaceOnUse" color-interpolation-filters="sRGB">
<feFlood flood-opacity="0" result="BackgroundImageFix"/>
<feColorMatrix in="SourceAlpha" type="matrix" values="0 0 0 0 0 0 0 0 0 0 0 0 0 0 0 0 0 0 127 0" result="hardAlpha"/>
<feOffset dy="4"/>
<feGaussianBlur stdDeviation="25"/>
<feComposite in2="hardAlpha" operator="out"/>
<feColorMatrix type="matrix" values="0 0 0 0 1 0 0 0 0 0.89139 0 0 0 0 0.963797 0 0 0 1 0"/>
<feBlend mode="normal" in2="BackgroundImageFix" result="effect1_dropShadow_0_1"/>
<feBlend mode="normal" in="SourceGraphic" in2="effect1_dropShadow_0_1" result="shape"/>
</filter>
<clipPath id="clip0_0_1">
<rect width="360" height="7602" fill="white" transform="translate(-135 -7436)"/>
</clipPath>
<clipPath id="clip1_0_1">
<rect width="90" height="90" rx="45" fill="white"/>
</clipPath>
</defs>
</svg>
