<svg width="32" height="33" viewBox="0 0 32 33" fill="none" xmlns="http://www.w3.org/2000/svg">
<g id="Frame" clip-path="url(#clip0_605_1127)">
<path id="Vector" d="M1.23077 16.4841C1.23077 24.6411 7.84296 31.2533 16 31.2533C24.1571 31.2533 30.7692 24.6411 30.7692 16.4841C30.7692 8.32703 24.1571 1.71484 16 1.71484C7.84296 1.71484 1.23077 8.32703 1.23077 16.4841Z" stroke="#F9FAFA" stroke-width="1.5" stroke-linecap="round" stroke-linejoin="round"/>
<path id="Vector_2" d="M17.4769 1.78857C17.4769 1.78857 21.9077 7.62242 21.9077 16.484C21.9077 25.3455 17.4769 31.1793 17.4769 31.1793M14.5231 31.1793C14.5231 31.1793 10.0923 25.3455 10.0923 16.484C10.0923 7.62242 14.5231 1.78857 14.5231 1.78857M2.16119 21.6532H29.8388M2.16119 11.3147H29.8388" stroke="#F9FAFA" stroke-width="1.5" stroke-linecap="round" stroke-linejoin="round"/>
</g>
<defs>
<clipPath id="clip0_605_1127">
<rect width="32" height="32" fill="white" transform="translate(0 0.483887)"/>
</clipPath>
</defs>
</svg>
