<svg width="33" height="32" viewBox="0 0 33 32" fill="none" xmlns="http://www.w3.org/2000/svg">
<g clip-path="url(#clip0_336_9120)">
<path d="M28.26 10.9429C28.26 10.9429 28.02 9.14286 27.3 8.37143C26.42 7.34286 25.38 7.34286 24.9 7.25714C21.54 7 16.5 7 16.5 7C16.5 7 11.46 7 8.1 7.25714C7.62 7.34286 6.58 7.34286 5.7 8.37143C4.98 9.14286 4.74 10.9429 4.74 10.9429C4.74 10.9429 4.5 13 4.5 15.0571V16.9429C4.5 19 4.74 21.1429 4.74 21.1429C4.74 21.1429 4.98 22.9429 5.7 23.7143C6.58 24.7429 7.78 24.7429 8.34 24.8286C10.26 24.9143 16.5 25 16.5 25C16.5 25 21.54 25 24.9 24.7429C25.38 24.6571 26.42 24.6571 27.3 23.6286C28.02 22.8571 28.26 21.0571 28.26 21.0571C28.26 21.0571 28.5 19 28.5 16.9429V15.0571C28.5 13 28.26 10.9429 28.26 10.9429ZM13.5 20V12L20.5 16L13.5 20Z" fill="#F9FAFA"/>
</g>
<defs>
<clipPath id="clip0_336_9120">
<rect width="24" height="24" fill="white" transform="translate(4.5 4)"/>
</clipPath>
</defs>
</svg>
