<svg width="32" height="32" viewBox="0 0 32 32" fill="none" xmlns="http://www.w3.org/2000/svg">
<g clip-path="url(#clip0_155_2146)">
<path d="M15.9921 19.976C18.2034 19.976 19.9961 18.1833 19.9961 15.972C19.9961 13.7606 18.2034 11.968 15.9921 11.968C13.7808 11.968 11.9881 13.7606 11.9881 15.972C11.9881 18.1833 13.7808 19.976 15.9921 19.976Z" fill="#F9FAFA"/>
<path d="M27.9227 11.0837C27.908 10.0765 27.7215 9.07728 27.3643 8.13527C26.7392 6.52667 25.4665 5.25468 23.8552 4.632C22.9236 4.28207 21.9387 4.09447 20.9418 4.07318C19.6597 4.01597 19.2532 4 15.9987 4C12.7441 4 12.327 4 11.0542 4.07318C10.0586 4.09447 9.07375 4.28207 8.14216 4.632C6.53088 5.25468 5.25677 6.52667 4.63305 8.13527C4.28254 9.06531 4.09329 10.0486 4.07463 11.0425C4.01733 12.3238 4 12.7296 4 15.9787C4 19.2279 4 19.643 4.07463 20.915C4.09462 21.9102 4.28254 22.8921 4.63305 23.8248C5.25811 25.4321 6.53088 26.7041 8.14349 27.3268C9.07108 27.6887 10.056 27.8936 11.0555 27.9255C12.339 27.9827 12.7454 28 16 28C19.2546 28 19.6717 28 20.9445 27.9255C21.94 27.9055 22.9249 27.7179 23.8578 27.368C25.4691 26.744 26.7419 25.472 27.3669 23.8647C27.7175 22.9334 27.9054 21.9514 27.9254 20.9549C27.9827 19.6749 28 19.2691 28 16.0186C27.9973 12.7695 27.9973 12.357 27.9227 11.0837ZM15.9907 22.1231C12.5869 22.1231 9.82941 19.3702 9.82941 15.9721C9.82941 12.5739 12.5869 9.82104 15.9907 9.82104C19.3918 9.82104 22.1519 12.5739 22.1519 15.9721C22.1519 19.3702 19.3918 22.1231 15.9907 22.1231ZM22.3972 11.0278C21.6015 11.0278 20.9605 10.3865 20.9605 9.59353C20.9605 8.80053 21.6015 8.15922 22.3972 8.15922C23.1901 8.15922 23.8325 8.80053 23.8325 9.59353C23.8325 10.3865 23.1901 11.0278 22.3972 11.0278Z" fill="#F9FAFA"/>
</g>
<defs>
<clipPath id="clip0_155_2146">
<rect width="32" height="32" rx="8" fill="white"/>
</clipPath>
</defs>
</svg>
