<svg width="57" height="57" viewBox="0 0 57 57" fill="none" xmlns="http://www.w3.org/2000/svg">
<g clip-path="url(#clip0_421_1500)">
<g filter="url(#filter0_d_421_1500)">
<path fill-rule="evenodd" clip-rule="evenodd" d="M28.4999 8.09999C28.0028 8.09999 27.5999 8.50294 27.5999 8.99999C27.5999 9.49705 28.0028 9.89999 28.4999 9.89999C28.997 9.89999 29.3999 9.49705 29.3999 8.99999C29.3999 8.50294 28.997 8.09999 28.4999 8.09999ZM27.3999 8.99999C27.3999 8.39248 27.8924 7.89999 28.4999 7.89999C29.1074 7.89999 29.5999 8.39248 29.5999 8.99999C29.5999 9.60751 29.1074 10.1 28.4999 10.1C27.8924 10.1 27.3999 9.60751 27.3999 8.99999ZM19.9999 12.1C19.779 12.1 19.5999 12.2791 19.5999 12.5C19.5999 12.7209 19.779 12.9 19.9999 12.9C20.2208 12.9 20.3999 12.7209 20.3999 12.5C20.3999 12.2791 20.2208 12.1 19.9999 12.1ZM19.3999 12.5C19.3999 12.1686 19.6685 11.9 19.9999 11.9C20.3313 11.9 20.5999 12.1686 20.5999 12.5C20.5999 12.8314 20.3313 13.1 19.9999 13.1C19.6685 13.1 19.3999 12.8314 19.3999 12.5ZM36.9999 12.1C36.779 12.1 36.5999 12.2791 36.5999 12.5C36.5999 12.7209 36.779 12.9 36.9999 12.9C37.2208 12.9 37.3999 12.7209 37.3999 12.5C37.3999 12.2791 37.2208 12.1 36.9999 12.1ZM36.3999 12.5C36.3999 12.1686 36.6685 11.9 36.9999 11.9C37.3313 11.9 37.5999 12.1686 37.5999 12.5C37.5999 12.8314 37.3313 13.1 36.9999 13.1C36.6685 13.1 36.3999 12.8314 36.3999 12.5Z" fill="#6091D4"/>
<path fill-rule="evenodd" clip-rule="evenodd" d="M15.1116 25.3438C18.5674 29.4755 27.4439 30.7442 27.5626 30.7816C27.6814 30.8189 27.5766 30.8757 27.5766 30.8757C21.2837 35.6892 13.0679 31.8034 10.4728 27.5928C10.4193 27.5058 10.3653 27.4203 10.3109 27.3341C9.9421 26.7497 9.55426 26.1353 9.15732 24.8296L9 24.1609C9 23.7995 9.03746 23.6126 9.15732 23.4811C9.27719 23.3497 9.92896 23.3231 9.94394 23.3231C10.6631 23.3231 12.1614 23.6845 13.1054 23.9638L14.1463 24.2651C14.1463 24.2651 14.3189 24.3385 14.3222 24.3435C14.5868 24.7366 14.7916 24.996 15.1116 25.3438ZM41.5071 25.7365C38.9919 28.3119 34.6053 29.5171 31.3265 30.3426C30.9283 30.4459 30.526 30.4953 30.1239 30.5447C29.755 30.5901 29.3863 30.6354 29.0209 30.7223C29.7695 31.3496 30.7876 31.9274 31.6559 32.3237C34.74 33.6939 39.8152 32.9051 42.7496 31.1882C45.4295 29.6363 47.259 27.6517 47.8878 24.2178C47.8949 24.1786 47.903 24.1365 47.9115 24.0925C47.9878 23.696 48.095 23.1392 47.8375 23.0819C47.4856 23.0035 46.6562 23.1986 46.6562 23.1986C46.6562 23.1986 43.0941 23.871 42.4353 24.5478C42.2812 24.7097 42.1379 24.9113 41.9912 25.1175C41.9722 25.1443 41.953 25.1712 41.9338 25.1981C41.7994 25.3862 41.6607 25.5745 41.5071 25.7365ZM36.7969 28.4579C35.5101 29.038 34.1784 29.5186 32.772 29.6512C32.6181 29.6268 32.9027 29.3943 33.1068 29.2192C33.1719 29.1634 33.3704 28.8676 33.3823 28.85C33.4404 28.7643 33.4726 28.5794 33.5201 28.3578C33.5609 28.1674 33.6376 27.9651 33.7274 27.8655C33.9334 27.4963 34.3825 27.3528 34.7654 27.0667C34.9985 26.8926 35.2169 26.7294 35.3754 26.5852C37.0363 25.1103 37.8592 23.5856 38.3679 21.1494C38.3927 21.032 38.409 20.9136 38.4252 20.7972C38.4773 20.4206 38.5267 20.0641 38.8467 19.8236C39.4901 19.2435 41.3604 18.3983 42.1384 18.0503C42.8561 17.7191 43.189 17.5616 43.3556 17.4829C43.4838 17.4222 43.5138 17.4081 43.5445 17.3973C43.5536 17.3941 43.5629 17.3912 43.5748 17.3874C43.5854 17.384 43.596 17.3805 43.6065 17.377C43.6997 17.346 43.7843 17.3179 43.7843 17.4371V19.1938C43.7843 19.3927 43.6197 20.8842 43.3803 21.5637C43.3273 21.7141 43.2802 21.8693 43.2317 22.0309L43.2219 22.0633C43.0535 22.6239 42.8623 23.2608 42.3479 24.033C41.6746 25.044 41.121 25.8063 40.4477 26.3532C39.7744 26.9001 38.066 27.8655 38.066 27.8655L36.7969 28.4579ZM23.5372 29.5585C22.5453 29.3072 20.9985 28.8913 20.0853 28.5088C19.1348 28.1149 17.724 27.2151 16.5716 26.4152C15.4726 25.5484 14.855 24.619 14.855 24.619C13.5527 22.7397 12.8087 20.5593 13.0737 18.1994C13.1051 17.9249 13.3581 17.8667 13.6275 17.9C13.9569 17.9333 14.3311 18.033 14.5706 18.0996C15.0347 18.216 15.4227 18.3908 15.6772 18.474C15.9317 18.5571 16.5316 18.8147 16.816 18.981C17.4148 19.3136 18.268 19.8126 18.4177 20.0454C18.5632 20.2824 18.5579 20.4915 18.5524 20.7089C18.5494 20.827 18.5463 20.9477 18.5674 21.0766C18.8818 23.1056 19.8548 24.9683 21.217 26.3487C21.217 26.3487 23.0484 27.8379 23.1773 28.0031C23.3063 28.1684 23.4562 29.0212 23.7767 29.5252C23.754 29.5883 23.6623 29.5748 23.5932 29.5646C23.5713 29.5614 23.5517 29.5585 23.5372 29.5585ZM29.3061 28.867C28.636 27.9975 26.9979 28.5389 27.1915 29.7037C27.2496 30.0557 27.4588 30.2274 27.6021 30.345C27.6792 30.4083 27.7373 30.4559 27.7425 30.5076C26.7298 30.3927 25.6725 30.2451 24.7492 29.7529C24.1834 29.4576 23.8557 29.2443 23.6175 28.5717C22.9176 26.5702 24.1387 24.782 25.3449 23.4367C25.3449 23.4367 25.881 22.8461 26.6852 22.354C27.4893 21.8618 28.085 21.6321 28.353 21.6321C28.6211 21.6321 28.787 21.6837 29.364 21.9132C29.6117 22.0117 29.8647 22.1569 29.9803 22.2305C30.1127 22.3147 30.2523 22.4134 30.6702 22.7127C31.2658 23.1392 31.7781 23.7484 31.7781 23.7484C32.5376 24.5195 33.312 25.7663 33.3864 26.9312C33.4162 27.2757 33.3269 28.3256 33.2226 28.6373C33.029 29.2443 31.8675 29.9334 31.3165 30.081C30.838 30.1994 30.3212 30.2613 29.8121 30.3222L29.7627 30.3281C29.5162 30.3577 29.2718 30.3875 29.0349 30.4238C29.0761 30.361 29.1269 30.2959 29.1801 30.2277C29.444 29.8891 29.7695 29.4715 29.3061 28.867ZM35.1731 26.5118C34.8976 26.758 34.6221 26.881 34.2089 27.1272C34.1868 27.1349 33.9604 27.2579 33.9363 27.2676C33.8378 27.3074 33.7347 27.3491 33.7274 27.2735C33.6015 25.1736 32.3767 23.5867 30.8567 22.4847C30.6648 22.3462 30.6123 22.0591 30.7412 21.8496L30.7442 21.8447C30.8775 21.6332 30.9989 21.438 31.1112 21.2575L31.1124 21.2555L31.1134 21.2539C32.0852 19.6913 32.3957 19.192 34.2222 18.0836C35.0467 17.5393 35.7677 17.0972 35.7677 17.0972L36.2415 16.863C36.3764 16.7953 36.5173 16.7425 36.6627 16.7079C37.2223 16.5746 37.7935 16.9219 37.9475 17.8677C38.7825 21.3946 37.0672 24.5247 35.8619 25.7735L35.1731 26.5118Z" fill="#6091D4"/>
<path d="M27.3055 29.5148C27.2948 29.3332 27.3887 29.1087 27.6065 28.9141C27.8821 28.668 28.2953 28.545 28.7086 28.668C29.1218 28.7911 29.5096 29.2687 29.3718 29.644C29.2341 30.0192 29.1673 30.0526 29.0963 30.1301C29.0254 30.2076 28.8159 30.4238 28.4516 30.4166C28.3578 30.4166 28.075 30.4051 27.9304 30.3378C27.761 30.2591 27.5671 30.0738 27.4433 29.884C27.3443 29.7322 27.3163 29.6965 27.3055 29.5148Z" fill="#6091D4"/>
<path d="M28.2858 32.5413H28.4516L28.5395 30.7834C28.5591 30.6835 28.7108 30.7177 28.6926 30.6492C28.6333 30.5657 28.468 30.579 28.3578 30.5657C28.2225 30.5494 28.1059 30.6731 28.22 30.6888C28.3814 30.7961 28.3091 31.4021 28.2873 31.9565L28.2859 31.991L28.2838 32.0449C28.2735 32.3102 28.2667 32.5151 28.2858 32.5413Z" fill="#6091D4"/>
<path d="M26.3669 16.192C25.4026 17.4227 24.9775 18.4058 25.2648 19.7608C25.4 20.398 25.9418 21.0467 26.5322 21.5505C27.1658 21.8704 27.7444 21.3606 28.4332 21.3606C29.1219 21.3606 30.0862 21.8458 30.3617 21.5505C30.6372 21.2551 31.078 20.6644 31.3811 20.0491C32.0698 18.6216 30.9403 16.8988 30.4719 16.2589C30.0561 15.7159 29.5845 15.2799 29.1219 14.8384C28.7877 14.5194 28.4332 14.1 28.1577 14.1C27.8822 14.1 27.5861 14.6214 27.3311 14.9614C26.97 15.4432 26.6495 15.8313 26.3669 16.192Z" fill="#6091D4"/>
<path d="M23.3914 18.5408C23.8504 18.8956 24.63 19.5631 25.124 20.2949C25.3183 20.5827 25.4815 20.8937 25.6451 21.2055C25.72 21.3482 25.8149 21.4971 25.9075 21.6425C26.0334 21.84 26.1551 22.0309 26.2167 22.1909C24.7023 23.4027 22.8404 25.8985 23.1773 27.7035C22.9781 27.4574 22.2952 26.9358 21.9078 26.6254C21.8053 26.5432 21.7162 26.4718 21.6511 26.4152C20.3787 25.2843 18.8518 22.6233 18.8518 20.7606C18.777 19.7793 18.8724 18.2826 18.8965 18.0719C18.8965 18.0457 18.9141 17.9151 18.9844 17.6015C19.0724 17.2095 19.1939 16.8769 19.2483 16.7942L19.2561 16.7825C19.3418 16.6518 19.469 16.5025 19.8959 16.5786L20.4799 16.7391C21.2072 16.9678 22.315 17.7668 23.048 18.2955L23.3914 18.5408Z" fill="#6091D4"/>
</g>
<path d="M21.7224 41.164L19.8904 36.556C19.7358 36.2147 19.5038 36.044 19.1944 36.044V35.796H21.3544V36.044H20.9864C20.8051 36.044 20.7144 36.0947 20.7144 36.196C20.7144 36.244 20.7198 36.2973 20.7304 36.356C20.7411 36.4147 20.7544 36.4813 20.7704 36.556L22.1144 40.156L23.3704 36.716C23.3864 36.62 23.3944 36.5267 23.3944 36.436C23.3944 36.1747 23.1518 36.044 22.6664 36.044V35.796H24.5864V36.044H24.3384C24.1518 36.044 24.0104 36.1853 23.9144 36.468L21.9944 41.22L21.7224 41.164ZM25.3488 41.1V40.86C25.8555 40.86 26.1088 40.676 26.1088 40.308V36.748C26.1088 36.2787 25.8448 36.044 25.3168 36.044V35.796H27.6288V36.044C27.1381 36.044 26.8928 36.2787 26.8928 36.748V40.308C26.8928 40.676 27.1488 40.86 27.6608 40.86V41.1H25.3488ZM32.1944 41.1V40.86C32.4984 40.86 32.6504 40.8173 32.6504 40.732C32.6504 40.6627 32.581 40.532 32.4424 40.34L31.0024 38.484L30.6424 38.812C30.5837 38.8653 30.5304 38.9267 30.4824 38.996C30.4397 39.0653 30.4104 39.148 30.3944 39.244V40.308C30.3944 40.676 30.661 40.86 31.1944 40.86V41.1H28.8744V40.86C29.365 40.86 29.6104 40.676 29.6104 40.308V36.628C29.6104 36.2387 29.3464 36.044 28.8184 36.044V35.796H31.0984V36.044C30.629 36.044 30.3944 36.2387 30.3944 36.628V38.572L32.2584 36.804C32.381 36.692 32.461 36.604 32.4984 36.54C32.541 36.4707 32.5624 36.3773 32.5624 36.26C32.5624 36.116 32.3784 36.044 32.0104 36.044V35.796H34.0824V36.044C33.9224 36.06 33.789 36.084 33.6824 36.116C33.581 36.1427 33.485 36.1853 33.3944 36.244C33.3037 36.2973 33.2077 36.372 33.1064 36.468C33.005 36.5587 32.8744 36.6813 32.7144 36.836L31.5864 37.932L33.4104 40.308C33.485 40.388 33.5544 40.4627 33.6184 40.532C33.6824 40.6013 33.749 40.66 33.8184 40.708C33.893 40.756 33.973 40.7933 34.0584 40.82C34.149 40.8467 34.2584 40.86 34.3864 40.86V41.1H32.1944ZM35.016 41.1V40.86C35.5227 40.86 35.776 40.676 35.776 40.308V36.748C35.776 36.2787 35.512 36.044 34.984 36.044V35.796H37.296V36.044C36.8053 36.044 36.56 36.2787 36.56 36.748V40.308C36.56 40.676 36.816 40.86 37.328 40.86V41.1H35.016Z" fill="#6091D4"/>
<path d="M14.784 46.652C14.864 46.652 14.9413 46.6467 15.016 46.636C15.0907 46.6253 15.1573 46.6013 15.216 46.564C15.2747 46.5267 15.3213 46.4733 15.356 46.404C15.3933 46.3347 15.412 46.24 15.412 46.12C15.412 46.0187 15.3933 45.9347 15.356 45.868C15.3213 45.8013 15.2747 45.7493 15.216 45.712C15.16 45.672 15.0973 45.644 15.028 45.628C14.9587 45.612 14.8907 45.604 14.824 45.604H14.632C14.5307 45.604 14.48 45.6787 14.48 45.828V46.592C14.4907 46.632 14.5227 46.652 14.576 46.652H14.784ZM16.22 47.752C16.22 47.784 16.212 47.8227 16.196 47.868C16.1827 47.9133 16.16 47.956 16.128 47.996C16.0987 48.036 16.0613 48.0707 16.016 48.1C15.9733 48.1293 15.924 48.144 15.868 48.144C15.7053 48.144 15.5853 48.1173 15.508 48.064C15.4307 48.008 15.3733 47.9187 15.336 47.796C15.304 47.6947 15.272 47.5867 15.24 47.472C15.208 47.3547 15.1693 47.248 15.124 47.152C15.0813 47.0533 15.028 46.972 14.964 46.908C14.9 46.8413 14.82 46.808 14.724 46.808H14.604C14.532 46.808 14.4907 46.8227 14.48 46.852V47.72C14.48 47.8933 14.6027 47.98 14.848 47.98V48.1H13.72V47.98C13.9547 47.98 14.072 47.8933 14.072 47.72V45.828C14.072 45.6573 13.9453 45.572 13.692 45.572V45.448H14.192C14.28 45.448 14.3547 45.448 14.416 45.448C14.4773 45.4453 14.536 45.4427 14.592 45.44C14.6507 45.4373 14.712 45.436 14.776 45.436C14.8427 45.4333 14.9227 45.432 15.016 45.432C15.1307 45.432 15.2387 45.4493 15.34 45.484C15.4413 45.516 15.528 45.5613 15.6 45.62C15.6747 45.6787 15.7333 45.748 15.776 45.828C15.8187 45.908 15.84 45.9947 15.84 46.088C15.84 46.1813 15.8227 46.264 15.788 46.336C15.7533 46.408 15.704 46.4707 15.64 46.524C15.5787 46.5773 15.5053 46.6227 15.42 46.66C15.3347 46.6973 15.24 46.7267 15.136 46.748V46.76C15.264 46.8213 15.3693 46.8987 15.452 46.992C15.5373 47.0827 15.5947 47.1707 15.624 47.256C15.64 47.3093 15.6587 47.3733 15.68 47.448C15.7013 47.5227 15.7253 47.5933 15.752 47.66C15.7813 47.7267 15.8147 47.784 15.852 47.832C15.8893 47.8773 15.9347 47.9 15.988 47.9C16.052 47.9 16.0987 47.84 16.128 47.72L16.22 47.752ZM16.4641 48.1V47.98C16.7094 47.98 16.8321 47.8933 16.8321 47.72V45.908C16.8321 45.684 16.7001 45.572 16.4361 45.572V45.448H18.5361L18.5681 46.196L18.4441 46.212C18.4201 46.068 18.3841 45.956 18.3361 45.876C18.2881 45.796 18.2294 45.7373 18.1601 45.7C18.0934 45.66 18.0161 45.6373 17.9281 45.632C17.8401 45.624 17.7441 45.62 17.6401 45.62H17.5281C17.3254 45.62 17.2241 45.68 17.2241 45.8V46.516C17.2241 46.596 17.2561 46.636 17.3201 46.636H17.4561C17.5227 46.636 17.5841 46.6333 17.6401 46.628C17.6987 46.62 17.7494 46.6027 17.7921 46.576C17.8374 46.5467 17.8734 46.504 17.9001 46.448C17.9294 46.3893 17.9494 46.3107 17.9601 46.212H18.1081V47.248H17.9601C17.9494 47.1493 17.9334 47.072 17.9121 47.016C17.8907 46.9573 17.8601 46.9133 17.8201 46.884C17.7801 46.852 17.7307 46.832 17.6721 46.824C17.6134 46.8133 17.5414 46.808 17.4561 46.808H17.4081C17.2854 46.808 17.2241 46.852 17.2241 46.94V47.704C17.2241 47.856 17.3307 47.932 17.5441 47.932H17.6681C17.8361 47.932 17.9707 47.92 18.0721 47.896C18.1761 47.8693 18.2601 47.8293 18.3241 47.776C18.3881 47.72 18.4387 47.6507 18.4761 47.568C18.5161 47.4853 18.5561 47.388 18.5961 47.276L18.7041 47.308L18.5961 48.1H16.4641ZM19.1102 48.1V47.98C19.3635 47.98 19.4902 47.888 19.4902 47.704V45.924C19.4902 45.6893 19.3582 45.572 19.0942 45.572V45.448H20.2502V45.572C20.0049 45.572 19.8822 45.6893 19.8822 45.924V47.704C19.8822 47.888 20.0102 47.98 20.2662 47.98V48.1H19.1102ZM22.413 48.1V47.98C22.565 47.98 22.641 47.9587 22.641 47.916C22.641 47.8813 22.6063 47.816 22.537 47.72L21.817 46.792L21.637 46.956C21.6076 46.9827 21.581 47.0133 21.557 47.048C21.5356 47.0827 21.521 47.124 21.513 47.172V47.704C21.513 47.888 21.6463 47.98 21.913 47.98V48.1H20.753V47.98C20.9983 47.98 21.121 47.888 21.121 47.704V45.864C21.121 45.6693 20.989 45.572 20.725 45.572V45.448H21.865V45.572C21.6303 45.572 21.513 45.6693 21.513 45.864V46.836L22.445 45.952C22.5063 45.896 22.5463 45.852 22.565 45.82C22.5863 45.7853 22.597 45.7387 22.597 45.68C22.597 45.608 22.505 45.572 22.321 45.572V45.448H23.357V45.572C23.277 45.58 23.2103 45.592 23.157 45.608C23.1063 45.6213 23.0583 45.6427 23.013 45.672C22.9676 45.6987 22.9196 45.736 22.869 45.784C22.8183 45.8293 22.753 45.8907 22.673 45.968L22.109 46.516L23.021 47.704C23.0583 47.744 23.093 47.7813 23.125 47.816C23.157 47.8507 23.1903 47.88 23.225 47.904C23.2623 47.928 23.3023 47.9467 23.345 47.96C23.3903 47.9733 23.445 47.98 23.509 47.98V48.1H22.413ZM23.7038 48.1V47.98C23.9571 47.98 24.0838 47.888 24.0838 47.704V45.924C24.0838 45.6893 23.9518 45.572 23.6878 45.572V45.448H24.8438V45.572C24.5984 45.572 24.4758 45.6893 24.4758 45.924V47.704C24.4758 47.888 24.6038 47.98 24.8598 47.98V48.1H23.7038ZM28.6538 48.1V47.98C28.8884 47.98 29.0058 47.8827 29.0058 47.688L28.9778 45.828L28.1258 48.1H28.0138L27.1018 45.864L27.0858 47.628C27.0831 47.8627 27.2164 47.98 27.4858 47.98V48.1H26.5218V47.98C26.7644 47.98 26.8924 47.852 26.9058 47.596L26.9378 45.812V45.772C26.9378 45.7427 26.9338 45.716 26.9258 45.692C26.9204 45.668 26.9031 45.6467 26.8738 45.628C26.8471 45.6093 26.8071 45.596 26.7538 45.588C26.7004 45.5773 26.6284 45.572 26.5378 45.572V45.448H27.3618L28.1698 47.476L28.9418 45.448H29.7538V45.572C29.6658 45.572 29.5964 45.5787 29.5458 45.592C29.4951 45.6027 29.4564 45.62 29.4298 45.644C29.4058 45.6653 29.3898 45.6907 29.3818 45.72C29.3764 45.7493 29.3738 45.78 29.3738 45.812L29.4178 47.66C29.4178 47.8733 29.5391 47.98 29.7818 47.98V48.1H28.6538ZM31.6202 48.1V47.98C31.6575 47.9747 31.6962 47.9693 31.7362 47.964C31.7789 47.9587 31.8162 47.952 31.8482 47.944C31.8829 47.936 31.9109 47.9267 31.9322 47.916C31.9562 47.9027 31.9682 47.888 31.9682 47.872C31.9655 47.8613 31.9629 47.8467 31.9602 47.828C31.9602 47.8067 31.9535 47.7813 31.9402 47.752L31.7602 47.26C31.7309 47.1907 31.6495 47.156 31.5162 47.156H30.9202C30.8189 47.156 30.7575 47.1907 30.7362 47.26L30.6002 47.676C30.5895 47.7 30.5842 47.7347 30.5842 47.78C30.5842 47.9027 30.7015 47.964 30.9362 47.964V48.1H30.0362V47.964C30.1135 47.9587 30.1789 47.932 30.2322 47.884C30.2882 47.836 30.3349 47.7667 30.3722 47.676L31.3322 45.388L31.4522 45.436L32.4002 47.812C32.4375 47.868 32.4669 47.9027 32.4882 47.916C32.4935 47.9213 32.5149 47.9293 32.5522 47.94C32.5922 47.948 32.6469 47.9613 32.7162 47.98V48.1H31.6202ZM31.2722 45.952L30.9202 46.792C30.8909 46.856 30.8762 46.9013 30.8762 46.928C30.8762 46.968 30.9255 46.988 31.0242 46.988H31.5282C31.6082 46.988 31.6482 46.972 31.6482 46.94C31.6482 46.9267 31.6335 46.8827 31.6042 46.808L31.2722 45.952ZM34.5132 46.256C34.4599 46.04 34.3705 45.868 34.2452 45.74C34.1199 45.6093 33.9652 45.544 33.7812 45.544C33.6292 45.544 33.5079 45.584 33.4172 45.664C33.3265 45.744 33.2812 45.8453 33.2812 45.968C33.2812 46.064 33.3132 46.148 33.3772 46.22C33.4439 46.2893 33.5425 46.352 33.6732 46.408C33.8359 46.4773 33.9839 46.536 34.1172 46.584C34.2505 46.6293 34.3639 46.6827 34.4572 46.744C34.5532 46.8053 34.6265 46.8827 34.6772 46.976C34.7305 47.0693 34.7572 47.196 34.7572 47.356C34.7572 47.4547 34.7412 47.552 34.7092 47.648C34.6799 47.744 34.6332 47.8307 34.5692 47.908C34.5052 47.9827 34.4212 48.044 34.3172 48.092C34.2159 48.1373 34.0932 48.16 33.9492 48.16C33.8559 48.16 33.7745 48.1533 33.7052 48.14C33.6385 48.1267 33.5812 48.1107 33.5332 48.092C33.4879 48.0733 33.4519 48.0547 33.4252 48.036C33.3985 48.0173 33.3799 48.004 33.3692 47.996C33.3185 48.0333 33.2679 48.0667 33.2172 48.096C33.1665 48.1253 33.1159 48.1467 33.0652 48.16C33.0359 47.96 33.0132 47.7827 32.9972 47.628C32.9839 47.4707 32.9772 47.3333 32.9772 47.216H33.1092C33.1092 47.3333 33.1332 47.4413 33.1812 47.54C33.2292 47.636 33.2905 47.7187 33.3652 47.788C33.4399 47.8573 33.5239 47.912 33.6172 47.952C33.7105 47.9893 33.8012 48.008 33.8892 48.008C33.9452 48.008 34.0065 47.9987 34.0732 47.98C34.1425 47.9613 34.2065 47.932 34.2652 47.892C34.3265 47.852 34.3772 47.8013 34.4172 47.74C34.4599 47.6787 34.4812 47.6053 34.4812 47.52C34.4812 47.4133 34.4519 47.32 34.3932 47.24C34.3372 47.16 34.2465 47.0973 34.1212 47.052C33.9745 46.9987 33.8332 46.9493 33.6972 46.904C33.5639 46.8587 33.4452 46.8053 33.3412 46.744C33.2399 46.68 33.1585 46.6013 33.0972 46.508C33.0359 46.412 33.0052 46.2867 33.0052 46.132C33.0052 46.02 33.0252 45.9187 33.0652 45.828C33.1052 45.7373 33.1585 45.66 33.2252 45.596C33.2945 45.5293 33.3745 45.4787 33.4652 45.444C33.5559 45.4067 33.6505 45.388 33.7492 45.388C33.8639 45.388 33.9612 45.4093 34.0412 45.452C34.1239 45.492 34.1999 45.528 34.2692 45.56C34.3519 45.4933 34.4385 45.4467 34.5292 45.42C34.5665 45.5427 34.5932 45.6733 34.6092 45.812C34.6252 45.948 34.6332 46.096 34.6332 46.256H34.5132ZM35.5372 48.1V47.98C35.8225 47.98 35.9652 47.8573 35.9652 47.612V45.768C35.9652 45.6693 35.8998 45.62 35.7692 45.62C35.5932 45.62 35.4505 45.6773 35.3412 45.792C35.2318 45.904 35.1505 46.0747 35.0972 46.304L34.9732 46.272L35.0812 45.42C35.1425 45.428 35.1998 45.4347 35.2532 45.44C35.3092 45.4453 35.3625 45.448 35.4132 45.448H36.9532C37.0092 45.448 37.0665 45.4453 37.1252 45.44C37.1838 45.4347 37.2438 45.428 37.3052 45.42V46.256L37.1972 46.272C37.1652 45.8453 36.9518 45.632 36.5572 45.632C36.4238 45.632 36.3572 45.6773 36.3572 45.768V47.612C36.3572 47.8573 36.5012 47.98 36.7892 47.98V48.1H35.5372ZM37.6411 48.1V47.98C37.8864 47.98 38.0091 47.8933 38.0091 47.72V45.908C38.0091 45.684 37.8771 45.572 37.6131 45.572V45.448H39.7131L39.7451 46.196L39.6211 46.212C39.5971 46.068 39.5611 45.956 39.5131 45.876C39.4651 45.796 39.4064 45.7373 39.3371 45.7C39.2704 45.66 39.1931 45.6373 39.1051 45.632C39.0171 45.624 38.9211 45.62 38.8171 45.62H38.7051C38.5024 45.62 38.4011 45.68 38.4011 45.8V46.516C38.4011 46.596 38.4331 46.636 38.4971 46.636H38.6331C38.6998 46.636 38.7611 46.6333 38.8171 46.628C38.8758 46.62 38.9264 46.6027 38.9691 46.576C39.0144 46.5467 39.0504 46.504 39.0771 46.448C39.1064 46.3893 39.1264 46.3107 39.1371 46.212H39.2851V47.248H39.1371C39.1264 47.1493 39.1104 47.072 39.0891 47.016C39.0678 46.9573 39.0371 46.9133 38.9971 46.884C38.9571 46.852 38.9078 46.832 38.8491 46.824C38.7904 46.8133 38.7184 46.808 38.6331 46.808H38.5851C38.4624 46.808 38.4011 46.852 38.4011 46.94V47.704C38.4011 47.856 38.5078 47.932 38.7211 47.932H38.8451C39.0131 47.932 39.1478 47.92 39.2491 47.896C39.3531 47.8693 39.4371 47.8293 39.5011 47.776C39.5651 47.72 39.6158 47.6507 39.6531 47.568C39.6931 47.4853 39.7331 47.388 39.7731 47.276L39.8811 47.308L39.7731 48.1H37.6411ZM41.3632 46.652C41.4432 46.652 41.5206 46.6467 41.5952 46.636C41.6699 46.6253 41.7366 46.6013 41.7952 46.564C41.8539 46.5267 41.9006 46.4733 41.9352 46.404C41.9726 46.3347 41.9912 46.24 41.9912 46.12C41.9912 46.0187 41.9726 45.9347 41.9352 45.868C41.9006 45.8013 41.8539 45.7493 41.7952 45.712C41.7392 45.672 41.6766 45.644 41.6072 45.628C41.5379 45.612 41.4699 45.604 41.4032 45.604H41.2112C41.1099 45.604 41.0592 45.6787 41.0592 45.828V46.592C41.0699 46.632 41.1019 46.652 41.1552 46.652H41.3632ZM42.7992 47.752C42.7992 47.784 42.7912 47.8227 42.7752 47.868C42.7619 47.9133 42.7392 47.956 42.7072 47.996C42.6779 48.036 42.6406 48.0707 42.5952 48.1C42.5526 48.1293 42.5032 48.144 42.4472 48.144C42.2846 48.144 42.1646 48.1173 42.0872 48.064C42.0099 48.008 41.9526 47.9187 41.9152 47.796C41.8832 47.6947 41.8512 47.5867 41.8192 47.472C41.7872 47.3547 41.7486 47.248 41.7032 47.152C41.6606 47.0533 41.6072 46.972 41.5432 46.908C41.4792 46.8413 41.3992 46.808 41.3032 46.808H41.1832C41.1112 46.808 41.0699 46.8227 41.0592 46.852V47.72C41.0592 47.8933 41.1819 47.98 41.4272 47.98V48.1H40.2992V47.98C40.5339 47.98 40.6512 47.8933 40.6512 47.72V45.828C40.6512 45.6573 40.5246 45.572 40.2712 45.572V45.448H40.7712C40.8592 45.448 40.9339 45.448 40.9952 45.448C41.0566 45.4453 41.1152 45.4427 41.1712 45.44C41.2299 45.4373 41.2912 45.436 41.3552 45.436C41.4219 45.4333 41.5019 45.432 41.5952 45.432C41.7099 45.432 41.8179 45.4493 41.9192 45.484C42.0206 45.516 42.1072 45.5613 42.1792 45.62C42.2539 45.6787 42.3126 45.748 42.3552 45.828C42.3979 45.908 42.4192 45.9947 42.4192 46.088C42.4192 46.1813 42.4019 46.264 42.3672 46.336C42.3326 46.408 42.2832 46.4707 42.2192 46.524C42.1579 46.5773 42.0846 46.6227 41.9992 46.66C41.9139 46.6973 41.8192 46.7267 41.7152 46.748V46.76C41.8432 46.8213 41.9486 46.8987 42.0312 46.992C42.1166 47.0827 42.1739 47.1707 42.2032 47.256C42.2192 47.3093 42.2379 47.3733 42.2592 47.448C42.2806 47.5227 42.3046 47.5933 42.3312 47.66C42.3606 47.7267 42.3939 47.784 42.4312 47.832C42.4686 47.8773 42.5139 47.9 42.5672 47.9C42.6312 47.9 42.6779 47.84 42.7072 47.72L42.7992 47.752Z" fill="#6091D4"/>
</g>
<rect x="0.25" y="0.25" width="56.5" height="56.5" rx="28.25" stroke="#6091D4" stroke-width="0.5"/>
<defs>
<filter id="filter0_d_421_1500" x="-41" y="-38.1" width="139" height="125.2" filterUnits="userSpaceOnUse" color-interpolation-filters="sRGB">
<feFlood flood-opacity="0" result="BackgroundImageFix"/>
<feColorMatrix in="SourceAlpha" type="matrix" values="0 0 0 0 0 0 0 0 0 0 0 0 0 0 0 0 0 0 127 0" result="hardAlpha"/>
<feOffset dy="4"/>
<feGaussianBlur stdDeviation="25"/>
<feComposite in2="hardAlpha" operator="out"/>
<feColorMatrix type="matrix" values="0 0 0 0 1 0 0 0 0 0.89139 0 0 0 0 0.963797 0 0 0 1 0"/>
<feBlend mode="normal" in2="BackgroundImageFix" result="effect1_dropShadow_421_1500"/>
<feBlend mode="normal" in="SourceGraphic" in2="effect1_dropShadow_421_1500" result="shape"/>
</filter>
<clipPath id="clip0_421_1500">
<rect width="57" height="57" rx="28.5" fill="white"/>
</clipPath>
</defs>
</svg>
