<svg aria-hidden="true" style="position: absolute; width: 0; height: 0; overflow: hidden;" version="1.1" xmlns="http://www.w3.org/2000/svg" xmlns:xlink="http://www.w3.org/1999/xlink">
<defs>
<symbol id="logo-header" viewBox="0 0 32 32">
<path d="M16 4.745c-0.274 0-0.497 0.222-0.497 0.497s0.222 0.497 0.497 0.497v0c0.274 0 0.497-0.222 0.497-0.497s-0.222-0.497-0.497-0.497v0zM15.393 5.241c0-0.335 0.272-0.607 0.607-0.607s0.607 0.272 0.607 0.607v0c0 0.335-0.272 0.607-0.607 0.607s-0.607-0.272-0.607-0.607v0zM11.31 6.952c-0.122 0-0.221 0.099-0.221 0.221s0.099 0.221 0.221 0.221v0c0.122 0 0.221-0.099 0.221-0.221s-0.099-0.221-0.221-0.221v0zM10.979 7.172c0-0.183 0.148-0.331 0.331-0.331s0.331 0.148 0.331 0.331v0c0 0.183-0.148 0.331-0.331 0.331s-0.331-0.148-0.331-0.331v0zM20.69 6.952c-0.122 0-0.221 0.099-0.221 0.221s0.099 0.221 0.221 0.221v0c0.122 0 0.221-0.099 0.221-0.221s-0.099-0.221-0.221-0.221v0zM20.359 7.172c0-0.183 0.148-0.331 0.331-0.331s0.331 0.148 0.331 0.331v0c0 0.183-0.148 0.331-0.331 0.331s-0.331-0.148-0.331-0.331v0zM8.614 14.259c1.906 2.279 6.804 2.979 6.869 3 0.066 0.020 0.008 0.052 0.008 0.052-3.472 2.655-8.006 0.511-9.437-1.811l-0.089-0.143c-0.204-0.322-0.418-0.662-0.637-1.382l-0.087-0.37c0-0.199 0.020-0.302 0.087-0.375s0.426-0.087 0.434-0.087c0.397 0 1.223 0.199 1.744 0.353l0.574 0.167s0.095 0.040 0.097 0.043c0.146 0.217 0.259 0.36 0.436 0.552zM23.176 14.475c-1.388 1.421-3.808 2.086-5.617 2.542-0.22 0.057-0.442 0.084-0.664 0.111-0.204 0.025-0.407 0.050-0.609 0.098 0.413 0.346 0.975 0.665 1.454 0.884 1.702 0.756 4.502 0.321 6.121-0.627 1.479-0.856 2.488-1.951 2.835-3.846l0.013-0.069c0.042-0.219 0.102-0.526-0.041-0.558-0.194-0.044-0.651 0.065-0.651 0.065s-1.966 0.371-2.329 0.744c-0.085 0.089-0.164 0.2-0.245 0.314l-0.031 0.044c-0.077 0.111-0.154 0.208-0.238 0.299l0.002-0.002zM20.578 15.977c-0.71 0.32-1.445 0.585-2.221 0.658-0.085-0.013 0.072-0.142 0.185-0.238 0.036-0.031 0.145-0.194 0.152-0.204 0.032-0.047 0.050-0.149 0.076-0.271 0.022-0.105 0.065-0.217 0.114-0.271 0.114-0.204 0.362-0.283 0.573-0.441 0.129-0.095 0.249-0.186 0.337-0.265 0.916-0.814 1.37-1.655 1.651-3 0.014-0.065 0.023-0.13 0.031-0.194 0.029-0.207 0.056-0.404 0.233-0.537 0.355-0.32 1.386-0.787 1.816-0.979 0.396-0.182 0.58-0.269 0.672-0.313 0.071-0.033 0.087-0.041 0.104-0.047l0.017-0.006c0.017-0.005 0.023-0.007 0.029-0.009l-0.011 0.003c0.052-0.017 0.098-0.033 0.098 0.033v0.969c0 0.11-0.090 0.932-0.223 1.308-0.029 0.083-0.055 0.168-0.082 0.258l-0.006 0.018c-0.093 0.309-0.199 0.661-0.482 1.087-0.371 0.558-0.677 0.978-1.048 1.28s-1.314 0.834-1.314 0.834l-0.701 0.327zM13.262 16.584c-0.547-0.138-1.4-0.368-1.905-0.579-0.524-0.217-1.303-0.713-1.938-1.155-0.607-0.478-0.947-0.991-0.947-0.991-0.718-1.037-1.129-2.24-0.983-3.542 0.017-0.151 0.157-0.183 0.305-0.165 0.182 0.018 0.388 0.073 0.521 0.11 0.256 0.064 0.47 0.16 0.61 0.206s0.472 0.188 0.628 0.28c0.33 0.184 0.801 0.459 0.884 0.587 0.080 0.131 0.077 0.246 0.074 0.366-0.002 0.065-0.003 0.132 0.008 0.203 0.184 1.143 0.708 2.14 1.463 2.91l-0.001-0.001s1.010 0.822 1.081 0.913c0.072 0.091 0.154 0.562 0.331 0.84-0.013 0.035-0.063 0.028-0.102 0.022-0.012-0.002-0.023-0.004-0.031-0.004zM16.445 16.202c-0.37-0.48-1.274-0.181-1.167 0.462 0.032 0.194 0.147 0.289 0.226 0.354 0.042 0.035 0.074 0.061 0.077 0.090-0.558-0.063-1.142-0.145-1.651-0.417-0.312-0.163-0.493-0.281-0.624-0.652-0.386-1.105 0.287-2.091 0.953-2.833 0 0 0.296-0.326 0.739-0.598s0.772-0.398 0.92-0.398 0.239 0.029 0.558 0.155c0.137 0.055 0.276 0.135 0.34 0.175 0.073 0.047 0.15 0.101 0.381 0.266 0.329 0.235 0.611 0.571 0.611 0.571 0.419 0.425 0.846 1.113 0.887 1.756 0.017 0.19-0.033 0.77-0.090 0.941-0.107 0.335-0.748 0.715-1.052 0.797-0.264 0.065-0.55 0.099-0.83 0.133l-0.028 0.003c-0.136 0.017-0.27 0.033-0.401 0.053 0.023-0.035 0.051-0.071 0.080-0.108 0.146-0.187 0.326-0.418 0.070-0.751zM19.682 14.903c-0.152 0.136-0.303 0.204-0.532 0.339-0.012 0.004-0.137 0.072-0.151 0.077-0.054 0.022-0.111 0.045-0.115 0.003-0.069-1.159-0.745-2.034-1.583-2.642-0.063-0.049-0.103-0.126-0.103-0.211 0-0.052 0.015-0.1 0.040-0.14l-0.001 0.001 0.002-0.003c0.074-0.117 0.141-0.225 0.202-0.324l0.001-0.002c0.536-0.862 0.708-1.138 1.716-1.749 0.455-0.301 0.852-0.545 0.852-0.545l0.262-0.129c0.074-0.038 0.152-0.066 0.232-0.086 0.309-0.073 0.625 0.118 0.709 0.64 0.461 1.946-0.486 3.673-1.15 4.361l-0.38 0.408z"></path>
<path d="M15.341 16.56c-0.006-0.1 0.046-0.224 0.167-0.331 0.152-0.136 0.38-0.204 0.608-0.136s0.441 0.331 0.366 0.538c-0.076 0.207-0.113 0.226-0.152 0.268-0.085 0.097-0.209 0.158-0.347 0.158-0.003 0-0.006-0-0.009-0h0c-0.052 0-0.208-0.007-0.288-0.044-0.093-0.043-0.2-0.145-0.269-0.25-0.055-0.084-0.070-0.104-0.076-0.204zM15.882 18.23h0.092l0.048-0.97c0.011-0.055 0.095-0.036 0.085-0.074-0.033-0.046-0.124-0.039-0.185-0.046-0.075-0.009-0.139 0.059-0.076 0.068 0.089 0.059 0.050 0.393 0.037 0.699l-0.001 0.019-0.001 0.030c-0.006 0.146-0.009 0.259 0.001 0.274zM14.823 9.209c-0.532 0.679-0.767 1.222-0.608 1.969 0.074 0.351 0.374 0.71 0.699 0.988 0.35 0.177 0.669-0.105 1.049-0.105s0.912 0.268 1.064 0.105c0.215-0.24 0.402-0.513 0.553-0.807l0.010-0.022c0.38-0.787-0.244-1.738-0.502-2.091-0.23-0.3-0.49-0.541-0.745-0.783-0.184-0.177-0.38-0.408-0.532-0.408s-0.316 0.287-0.456 0.475c-0.199 0.266-0.376 0.48-0.532 0.679zM13.181 10.505c0.254 0.196 0.684 0.564 0.956 0.968 0.107 0.159 0.198 0.33 0.287 0.502 0.041 0.079 0.094 0.161 0.145 0.242 0.070 0.109 0.137 0.214 0.171 0.302-0.836 0.669-1.863 2.045-1.677 3.041-0.11-0.136-0.487-0.423-0.701-0.595-0.056-0.045-0.105-0.084-0.141-0.116-0.702-0.623-1.545-2.092-1.545-3.119-0.041-0.542 0.012-1.367 0.025-1.484 0-0.014 0.009-0.086 0.048-0.259 0.049-0.216 0.116-0.399 0.146-0.445l0.004-0.007c0.047-0.072 0.118-0.154 0.353-0.112l0.322 0.088c0.401 0.126 1.012 0.567 1.417 0.858l0.189 0.136z"></path>
<path d="M12.26 22.987l-1.011-2.542c-0.085-0.188-0.213-0.282-0.384-0.282v-0.137h1.192v0.137h-0.203c-0.099 0-0.15 0.028-0.15 0.084 0 0.026 0.003 0.056 0.009 0.088l0.022 0.11 0.742 1.986 0.693-1.898c0.009-0.053 0.013-0.105 0.013-0.154 0-0.144-0.134-0.216-0.402-0.216v-0.137h1.059v0.137h-0.137c-0.103 0-0.181 0.078-0.234 0.234l-1.059 2.622-0.15-0.031zM14.262 22.952v-0.132c0.279 0 0.419-0.102 0.419-0.305v-1.964c0-0.259-0.146-0.388-0.437-0.388v-0.137h1.276v0.137c-0.27 0-0.406 0.13-0.406 0.388v1.964c0 0.203 0.141 0.305 0.424 0.305v0.132h-1.276zM18.038 22.952v-0.132c0.168 0 0.252-0.024 0.252-0.071 0-0.039-0.038-0.11-0.115-0.216l-0.794-1.024-0.199 0.181c-0.033 0.030-0.062 0.063-0.087 0.1l-0.001 0.002c-0.024 0.039-0.041 0.085-0.048 0.135l-0 0.002v0.587c0 0.203 0.147 0.305 0.441 0.305v0.132h-1.28v-0.132c0.271 0 0.406-0.102 0.406-0.305v-2.030c0-0.215-0.146-0.322-0.437-0.322v-0.137h1.258v0.137c-0.259 0-0.388 0.108-0.388 0.322v1.073l1.028-0.975c0.068-0.062 0.112-0.11 0.132-0.146 0.022-0.041 0.036-0.089 0.036-0.14 0-0.005-0-0.010-0-0.015l0 0.001c0-0.079-0.102-0.119-0.305-0.119v-0.137h1.143v0.137c-0.082 0.007-0.157 0.021-0.229 0.042l0.008-0.002c-0.060 0.016-0.113 0.040-0.161 0.072l0.002-0.001c-0.050 0.029-0.103 0.071-0.159 0.124-0.056 0.050-0.128 0.118-0.216 0.203l-0.622 0.605 1.006 1.311 0.115 0.124c0.035 0.039 0.072 0.071 0.11 0.097 0.038 0.025 0.082 0.046 0.129 0.061l0.004 0.001c0.050 0.015 0.11 0.022 0.181 0.022v0.132h-1.209zM19.595 22.952v-0.132c0.28 0 0.419-0.102 0.419-0.305v-1.964c0-0.259-0.146-0.388-0.437-0.388v-0.137h1.276v0.137c-0.27 0-0.406 0.13-0.406 0.388v1.964c0 0.203 0.141 0.305 0.424 0.305v0.132h-1.276zM8.433 26.015c0.044 0 0.087-0.003 0.128-0.009s0.079-0.020 0.111-0.040l-0.001 0.001c0.033-0.022 0.060-0.052 0.077-0.087l0.001-0.001c0.020-0.041 0.031-0.090 0.031-0.141 0-0.006-0-0.011-0-0.017l0 0.001c0-0.003 0-0.007 0-0.010 0-0.047-0.011-0.091-0.032-0.13l0.001 0.002c-0.018-0.036-0.044-0.065-0.076-0.086l-0.001-0c-0.029-0.021-0.064-0.037-0.102-0.046l-0.002-0c-0.034-0.008-0.073-0.013-0.112-0.013h-0.106c-0.056 0-0.084 0.041-0.084 0.124v0.422c0.006 0.022 0.024 0.033 0.053 0.033h0.115zM9.225 26.622c-0.001 0.023-0.006 0.045-0.014 0.065l0-0.001c-0.008 0.027-0.021 0.051-0.038 0.071l0-0c-0.017 0.023-0.038 0.042-0.061 0.057l-0.001 0.001c-0.022 0.015-0.050 0.024-0.079 0.024-0.001 0-0.002 0-0.003-0h0c-0.090 0-0.156-0.015-0.199-0.044-0.046-0.037-0.080-0.088-0.095-0.146l-0-0.002c-0.008-0.020-0.026-0.080-0.043-0.14l-0.009-0.039c-0.018-0.068-0.040-0.127-0.067-0.183l0.003 0.007c-0.022-0.052-0.052-0.097-0.088-0.135l0 0c-0.032-0.034-0.078-0.055-0.128-0.055-0.002 0-0.003 0-0.005 0h-0.066c-0.040 0-0.062 0.008-0.068 0.024v0.479c0 0.095 0.068 0.143 0.203 0.143v0.066h-0.622v-0.066c0.13 0 0.194-0.048 0.194-0.143v-1.044c0-0.094-0.070-0.141-0.21-0.141v-0.068h0.399l0.097-0.004c0.030-0.001 0.064-0.002 0.099-0.002 0.001 0 0.002 0 0.003 0h-0c0.036-0.001 0.079-0.002 0.122-0.002 0.004 0 0.007 0 0.011 0h-0.001c0 0 0.001 0 0.001 0 0.12 0 0.232 0.039 0.322 0.105l-0.002-0.001c0.040 0.031 0.072 0.069 0.096 0.113l0.001 0.002c0.024 0.044 0.035 0.092 0.035 0.143 0 0.002 0 0.004 0 0.006 0 0.047-0.011 0.092-0.030 0.133l0.001-0.002c-0.020 0.041-0.048 0.076-0.081 0.103l-0.001 0c-0.035 0.030-0.075 0.055-0.118 0.074l-0.003 0.001c-0.047 0.020-0.099 0.037-0.157 0.049v0.007c0.068 0.032 0.126 0.075 0.174 0.128l0 0c0.047 0.050 0.079 0.099 0.095 0.146l0.031 0.106c0.012 0.041 0.025 0.080 0.040 0.117s0.034 0.067 0.056 0.096l-0.001-0.001c0.017 0.023 0.044 0.038 0.075 0.038v0c0.035 0 0.061-0.033 0.077-0.099l0.051 0.018zM9.359 26.814v-0.066c0.135 0 0.203-0.048 0.203-0.143v-1c0-0.124-0.073-0.185-0.218-0.185v-0.068h1.159l0.018 0.413-0.068 0.009c-0.009-0.069-0.030-0.132-0.061-0.188l0.001 0.003c-0.047-0.078-0.13-0.13-0.224-0.135l-0.001-0c-0.046-0.004-0.099-0.007-0.153-0.007-0.002 0-0.004 0-0.006 0h-0.061c-0.112 0-0.168 0.033-0.168 0.099v0.395c0 0.044 0.018 0.066 0.053 0.066h0.075c0.037 0 0.071-0.002 0.102-0.004 0.031-0.004 0.060-0.014 0.085-0.029l-0.001 0.001c0.026-0.018 0.046-0.041 0.059-0.070l0-0.001c0.018-0.038 0.029-0.082 0.033-0.129l0-0.001h0.082v0.572h-0.082c-0.004-0.047-0.013-0.091-0.028-0.132l0.001 0.004c-0.010-0.030-0.027-0.054-0.050-0.073l-0-0c-0.023-0.018-0.050-0.029-0.081-0.033l-0.001-0c-0.033-0.006-0.071-0.009-0.11-0.009-0.003 0-0.007 0-0.010 0h-0.026c-0.068 0-0.102 0.024-0.102 0.073v0.422c0 0.084 0.059 0.126 0.177 0.126h0.068c0.093 0 0.167-0.007 0.223-0.020 0.053-0.012 0.1-0.035 0.14-0.067l-0.001 0.001c0.035-0.031 0.064-0.070 0.083-0.113l0.001-0.002c0.022-0.046 0.044-0.099 0.066-0.161l0.060 0.018-0.060 0.437h-1.176zM10.819 26.814v-0.066c0.14 0 0.21-0.051 0.21-0.152v-0.982c0-0.13-0.073-0.194-0.218-0.194v-0.068h0.638v0.068c-0.135 0-0.203 0.065-0.203 0.194v0.982c0 0.102 0.071 0.152 0.212 0.152v0.066h-0.638zM12.642 26.814v-0.066c0.084 0 0.126-0.012 0.126-0.035 0-0.019-0.019-0.055-0.057-0.108l-0.397-0.512-0.099 0.090c-0.016 0.015-0.031 0.032-0.043 0.050l-0.001 0.001c-0.012 0.020-0.020 0.043-0.024 0.067l-0 0.001v0.294c0 0.102 0.073 0.152 0.221 0.152v0.066h-0.64v-0.066c0.135 0 0.203-0.051 0.203-0.152v-1.015c0-0.108-0.073-0.161-0.218-0.161v-0.068h0.629v0.068c-0.13 0-0.194 0.054-0.194 0.161v0.536l0.514-0.488c0.025-0.021 0.047-0.045 0.065-0.072l0.001-0.001c0.011-0.020 0.018-0.044 0.018-0.070 0-0.003-0-0.005-0-0.007v0c0-0.040-0.051-0.060-0.152-0.060v-0.068h0.572v0.068c-0.044 0.004-0.081 0.011-0.11 0.020s-0.057 0.020-0.080 0.036l0.001-0.001c-0.030 0.018-0.056 0.039-0.080 0.062l0-0c-0.028 0.025-0.064 0.059-0.108 0.102l-0.311 0.302 0.503 0.655 0.057 0.062c0.032 0.036 0.073 0.064 0.119 0.079l0.002 0.001c0.025 0.007 0.055 0.011 0.090 0.011v0.066h-0.605zM13.353 26.814v-0.066c0.14 0 0.21-0.051 0.21-0.152v-0.982c0-0.13-0.072-0.194-0.218-0.194v-0.068h0.638v0.068c-0.136 0-0.203 0.065-0.203 0.194v0.982c0 0.102 0.071 0.152 0.212 0.152v0.066h-0.638zM16.084 26.814v-0.066c0.13 0 0.195-0.054 0.195-0.161l-0.015-1.026-0.47 1.254h-0.062l-0.503-1.234-0.009 0.973c-0.002 0.13 0.072 0.194 0.221 0.194v0.066h-0.532v-0.066c0.134 0 0.204-0.071 0.212-0.212l0.018-0.984v-0.022c0-0 0-0.001 0-0.002 0-0.015-0.002-0.030-0.007-0.043l0 0.001c-0.003-0.013-0.013-0.025-0.029-0.035-0.019-0.012-0.041-0.020-0.066-0.022l-0.001-0c-0.032-0.006-0.069-0.009-0.106-0.009-0.005 0-0.009 0-0.014 0h0.001v-0.068h0.455l0.446 1.119 0.426-1.119h0.448v0.068c-0.004-0-0.008-0-0.013-0-0.036 0-0.071 0.004-0.105 0.012l0.003-0.001c-0.025 0.004-0.046 0.014-0.064 0.029l0-0c-0.012 0.011-0.022 0.025-0.026 0.041l-0 0.001c-0.003 0.015-0.004 0.032-0.004 0.049 0 0 0 0.001 0 0.001v-0l0.024 1.020c0 0.118 0.067 0.177 0.201 0.177v0.066h-0.622zM17.721 26.814v-0.066l0.064-0.009c0.024-0.003 0.045-0.007 0.065-0.012l-0.004 0.001c0.018-0.004 0.033-0.009 0.048-0.016l-0.001 0.001c0.013-0.007 0.020-0.015 0.020-0.024-0.002-0.006-0.003-0.015-0.004-0.023l-0-0.001c-0.001-0.015-0.005-0.030-0.011-0.043l0 0.001-0.099-0.271c-0.017-0.039-0.061-0.057-0.135-0.057h-0.329c-0.056 0-0.090 0.019-0.102 0.057l-0.075 0.23c-0.006 0.015-0.009 0.032-0.009 0.050 0 0.002 0 0.005 0 0.007v-0c0 0.068 0.065 0.102 0.194 0.102v0.075h-0.497v-0.075c0.042-0.002 0.079-0.018 0.108-0.044l-0 0c0.034-0.031 0.060-0.069 0.077-0.113l0.001-0.002 0.53-1.262 0.066 0.026 0.523 1.311c0.021 0.031 0.037 0.050 0.049 0.057 0.010 0.006 0.022 0.010 0.035 0.013l0.001 0c0.041 0.008 0.071 0.016 0.101 0.025l-0.011-0.003v0.066h-0.605zM17.529 25.629l-0.194 0.463c-0.012 0.022-0.020 0.047-0.024 0.074l-0 0.001c0 0.022 0.028 0.033 0.082 0.033h0.278c0.044 0 0.066-0.009 0.066-0.026-0.006-0.028-0.015-0.052-0.025-0.075l0.001 0.002-0.183-0.472zM19.318 25.796c-0.024-0.111-0.076-0.208-0.148-0.285l0 0c-0.062-0.067-0.151-0.108-0.249-0.108-0.003 0-0.005 0-0.007 0h0c-0.005-0-0.010-0-0.015-0-0.071 0-0.136 0.025-0.186 0.067l0-0c-0.046 0.040-0.075 0.098-0.075 0.163 0 0.002 0 0.003 0 0.005v-0c0 0.053 0.018 0.099 0.053 0.139 0.046 0.044 0.1 0.079 0.16 0.103l0.003 0.001c0.090 0.039 0.171 0.071 0.245 0.097 0.074 0.025 0.136 0.055 0.188 0.088 0.051 0.032 0.092 0.075 0.12 0.126l0.001 0.002c0.029 0.051 0.044 0.121 0.044 0.21-0.001 0.115-0.040 0.221-0.105 0.306l0.001-0.001c-0.038 0.043-0.084 0.077-0.137 0.101l-0.003 0.001c-0.056 0.024-0.121 0.038-0.19 0.038-0.005 0-0.009-0-0.014-0h0.001c-0.003 0-0.006 0-0.009 0-0.045 0-0.088-0.004-0.131-0.012l0.004 0.001c-0.036-0.007-0.068-0.016-0.099-0.028l0.004 0.001c-0.035-0.013-0.065-0.031-0.091-0.053l0 0c-0.028 0.020-0.056 0.039-0.084 0.055-0.024 0.015-0.052 0.027-0.081 0.035l-0.002 0.001c-0.017-0.11-0.029-0.208-0.038-0.294-0.006-0.067-0.010-0.146-0.011-0.226v-0.001h0.073c0 0.001-0 0.003-0 0.004 0 0.063 0.015 0.123 0.041 0.177l-0.001-0.002c0.051 0.102 0.135 0.182 0.237 0.226l0.003 0.001c0.044 0.019 0.096 0.030 0.15 0.031h0c0.031 0 0.065-0.006 0.102-0.015 0.040-0.011 0.076-0.028 0.107-0.049l-0.001 0.001c0.034-0.022 0.062-0.050 0.083-0.083l0.001-0.001c0.022-0.032 0.035-0.073 0.035-0.116 0-0.002-0-0.004-0-0.006v0c0-0.002 0-0.003 0-0.005 0-0.056-0.018-0.108-0.049-0.15l0 0.001c-0.038-0.048-0.089-0.085-0.148-0.103l-0.002-0.001c-0.013-0.008-0.091-0.036-0.169-0.062l-0.065-0.019c-0.075-0.025-0.14-0.055-0.201-0.091l0.005 0.003c-0.054-0.034-0.099-0.077-0.134-0.129l-0.001-0.002c-0.032-0.055-0.051-0.12-0.051-0.19 0-0.006 0-0.012 0-0.018l-0 0.001c-0-0.003-0-0.006-0-0.009 0-0.168 0.104-0.311 0.251-0.37l0.003-0.001c0.046-0.020 0.1-0.031 0.156-0.031 0 0 0.001 0 0.001 0h-0c0.063 0 0.117 0.012 0.161 0.035l0.126 0.060c0.040-0.034 0.088-0.060 0.14-0.076l0.003-0.001c0.020 0.068 0.035 0.14 0.044 0.216 0.009 0.075 0.013 0.157 0.013 0.245h-0.066zM19.882 26.814v-0.066c0.157 0 0.236-0.068 0.236-0.203v-1.017c0-0.055-0.036-0.082-0.108-0.082-0.004-0-0.008-0-0.012-0-0.088 0-0.167 0.036-0.224 0.095l-0 0c-0.061 0.062-0.105 0.156-0.135 0.282l-0.068-0.018 0.060-0.47c0.034 0.004 0.066 0.008 0.095 0.011 0.031 0.003 0.061 0.004 0.088 0.004h0.85c0.031 0 0.062-0.002 0.095-0.004s0.066-0.007 0.099-0.011v0.461l-0.060 0.009c-0.018-0.236-0.135-0.353-0.353-0.353-0.073 0-0.11 0.025-0.11 0.075v1.017c0 0.135 0.079 0.203 0.238 0.203v0.066h-0.691zM21.043 26.814v-0.066c0.135 0 0.203-0.048 0.203-0.143v-1c0-0.124-0.073-0.185-0.218-0.185v-0.068h1.159l0.018 0.413-0.068 0.009c-0.009-0.069-0.030-0.132-0.061-0.188l0.001 0.003c-0.047-0.078-0.13-0.13-0.224-0.135l-0.001-0c-0.046-0.004-0.099-0.007-0.153-0.007-0.002 0-0.004 0-0.006 0h-0.061c-0.112 0-0.168 0.033-0.168 0.099v0.395c0 0.044 0.018 0.066 0.053 0.066h0.075c0.037 0 0.071-0.002 0.102-0.004 0.031-0.004 0.060-0.014 0.085-0.029l-0.001 0.001c0.026-0.018 0.046-0.041 0.059-0.070l0-0.001c0.018-0.038 0.029-0.082 0.033-0.129l0-0.001h0.082v0.572h-0.082c-0.004-0.047-0.013-0.091-0.028-0.132l0.001 0.004c-0.010-0.030-0.027-0.054-0.050-0.073l-0-0c-0.023-0.018-0.050-0.029-0.081-0.033l-0.001-0c-0.033-0.006-0.071-0.009-0.11-0.009-0.003 0-0.007 0-0.010 0h-0.026c-0.068 0-0.102 0.024-0.102 0.073v0.422c0 0.084 0.059 0.126 0.177 0.126h0.068c0.093 0 0.167-0.007 0.223-0.020 0.053-0.012 0.1-0.035 0.14-0.067l-0.001 0.001c0.035-0.031 0.064-0.070 0.083-0.113l0.001-0.002c0.022-0.046 0.044-0.099 0.066-0.161l0.060 0.018-0.060 0.437h-1.176zM23.097 26.015c0.044 0 0.087-0.003 0.128-0.009s0.079-0.020 0.111-0.040l-0.001 0.001c0.033-0.022 0.060-0.052 0.077-0.087l0.001-0.001c0.020-0.041 0.031-0.090 0.031-0.141 0-0.006-0-0.011-0-0.017l0 0.001c0-0.003 0-0.007 0-0.010 0-0.047-0.012-0.091-0.032-0.13l0.001 0.002c-0.018-0.036-0.044-0.065-0.076-0.086l-0.001-0c-0.029-0.021-0.064-0.037-0.102-0.046l-0.002-0c-0.034-0.008-0.073-0.013-0.112-0.013h-0.106c-0.056 0-0.084 0.041-0.084 0.124v0.422c0.006 0.022 0.024 0.033 0.053 0.033h0.115zM23.889 26.622c-0.001 0.023-0.006 0.045-0.014 0.065l0-0.001c-0.008 0.027-0.021 0.051-0.038 0.071l0-0c-0.017 0.023-0.038 0.042-0.061 0.057l-0.001 0.001c-0.022 0.015-0.050 0.024-0.079 0.024-0.001 0-0.002 0-0.003-0h0c-0.089 0-0.156-0.015-0.199-0.044-0.046-0.037-0.080-0.088-0.095-0.146l-0-0.002c-0.008-0.020-0.026-0.080-0.043-0.14l-0.009-0.039c-0.018-0.068-0.040-0.127-0.067-0.183l0.003 0.007c-0.022-0.052-0.052-0.097-0.088-0.135l0 0c-0.032-0.034-0.078-0.055-0.128-0.055-0.002 0-0.003 0-0.005 0h-0.066c-0.040 0-0.062 0.008-0.068 0.024v0.479c0 0.095 0.068 0.143 0.203 0.143v0.066h-0.622v-0.066c0.13 0 0.194-0.048 0.194-0.143v-1.044c0-0.094-0.070-0.141-0.21-0.141v-0.068h0.399l0.097-0.004c0.029-0.001 0.064-0.002 0.099-0.002 0.001 0 0.002 0 0.003 0h-0c0.036-0.001 0.079-0.002 0.122-0.002 0.004 0 0.007 0 0.011 0h-0.001c0 0 0.001 0 0.001 0 0.12 0 0.232 0.039 0.322 0.105l-0.002-0.001c0.040 0.031 0.072 0.069 0.096 0.113l0.001 0.002c0.024 0.044 0.035 0.092 0.035 0.143 0 0.002 0 0.004 0 0.006 0 0.047-0.011 0.092-0.030 0.133l0.001-0.002c-0.020 0.041-0.048 0.076-0.081 0.103l-0.001 0c-0.035 0.030-0.075 0.055-0.118 0.074l-0.003 0.001c-0.047 0.020-0.099 0.037-0.157 0.049v0.007c0.068 0.032 0.126 0.075 0.174 0.128l0 0c0.047 0.050 0.079 0.099 0.095 0.146l0.031 0.106c0.012 0.041 0.025 0.080 0.040 0.117 0.017 0.037 0.035 0.068 0.055 0.095 0.017 0.023 0.044 0.038 0.075 0.038v0c0.035 0 0.061-0.033 0.077-0.099l0.051 0.018z"></path>
</symbol>
<symbol id="icon-language-header" viewBox="0 0 32 32">
<path fill="none" stroke="#d3cce3" style="stroke: var(--color2, #d3cce3)" stroke-linejoin="round" stroke-linecap="round" stroke-miterlimit="4" stroke-width="1.5" d="M1.23 16c0 8.157 6.613 14.77 14.77 14.77s14.769-6.614 14.769-14.77-6.612-14.77-14.77-14.77c-8.155 0-14.769 6.614-14.769 14.77z"></path>
<path fill="none" stroke="#d3cce3" style="stroke: var(--color2, #d3cce3)" stroke-linejoin="round" stroke-linecap="round" stroke-miterlimit="4" stroke-width="1.5" d="M17.477 1.305s4.43 5.833 4.43 14.695c0 8.861-4.43 14.695-4.43 14.695M14.523 30.695s-4.43-5.834-4.43-14.695c0-8.862 4.43-14.695 4.43-14.695M2.161 21.169h27.679M2.16 10.831h27.68"></path>
</symbol>
<symbol id="icon-burger" viewBox="0 0 32 32">
<path stroke-linejoin="miter" stroke-linecap="round" stroke-miterlimit="4" stroke-width="1.0667" d="M4.267 8.533h23.467M4.267 16h23.467M4.267 23.467h23.467"></path>
</symbol>
<symbol id="icon-arrow-left-services" viewBox="0 0 32 32">
<path fill="none" stroke="#4194b7" style="stroke: var(--color3, #4194b7)" stroke-linejoin="miter" stroke-linecap="butt" stroke-miterlimit="4" stroke-width="0.7273" d="M24.727 1.818h-17.455c-3.816 0-6.909 3.093-6.909 6.909v14.545c0 3.816 3.093 6.909 6.909 6.909h17.455c3.816 0 6.909-3.093 6.909-6.909v-14.545c0-3.816-3.093-6.909-6.909-6.909z"></path>
<path fill="none" stroke="#4194b7" style="stroke: var(--color3, #4194b7)" stroke-linejoin="round" stroke-linecap="round" stroke-miterlimit="4" stroke-width="1.4545" d="M14.545 10.909l-5.091 5.091M9.455 16l5.091 5.091M9.455 16h13.091"></path>
</symbol>
<symbol id="icon-arrow-rigth-services" viewBox="0 0 32 32">
<path fill="none" stroke="#4194b7" style="stroke: var(--color3, #4194b7)" stroke-linejoin="miter" stroke-linecap="butt" stroke-miterlimit="4" stroke-width="0.7273" d="M24.727 1.818h-17.455c-3.816 0-6.909 3.093-6.909 6.909v14.545c0 3.816 3.093 6.909 6.909 6.909h17.455c3.816 0 6.909-3.093 6.909-6.909v-14.545c0-3.816-3.093-6.909-6.909-6.909z"></path>
<path fill="none" stroke="#4194b7" style="stroke: var(--color3, #4194b7)" stroke-linejoin="round" stroke-linecap="round" stroke-miterlimit="4" stroke-width="1.4545" d="M17.455 10.909l5.091 5.091M22.545 16l-5.091 5.091M22.545 16h-13.091"></path>
</symbol>
<symbol id="icon-video-play" viewBox="0 0 32 32">
<path fill="#1e1e1e" style="fill: var(--color4, #1e1e1e)" d="M0 0h32v32h-32z"></path>
<path fill="#444" style="fill: var(--color5, #444)" d="M-268.48-1601.6c0-0.352 0.286-0.64 0.64-0.64h1926.4c0.352 0 0.64 0.288 0.64 0.64v3321.6c0 0.352-0.288 0.64-0.64 0.64h-1926.4c-0.354 0-0.64-0.288-0.64-0.64v-3321.6z"></path>
<path fill="#fff" style="fill: var(--color6, #fff)" opacity="0.1" d="M-267.84-1601.92h0zM1658.88-1601.6v3321.6h0.64v-3321.6h-0.64zM1658.56 1720.32v0zM-268.16 1720v-3321.6h-0.64v3321.6h0.64zM-267.84 1720.32c-0.177 0-0.32-0.144-0.32-0.32h-0.64c0 0.531 0.43 0.96 0.96 0.96v-0.64zM1658.88 1720c0 0.176-0.144 0.32-0.32 0.32v0.64c0.531 0 0.96-0.429 0.96-0.96h-0.64zM1658.56-1601.92c0.176 0 0.32 0.144 0.32 0.32h0.64c0-0.531-0.429-0.96-0.96-0.96v0.64zM-267.84-1602.56c-0.53 0-0.96 0.429-0.96 0.96h0.64c0-0.176 0.143-0.32 0.32-0.32v-0.64z"></path>
<path fill="#fff" style="fill: var(--color6, #fff)" d="M-214.4-1484.8h460.8v2540.8h-460.8z"></path>
<path fill="none" stroke="#f9fafa" style="stroke: var(--color7, #f9fafa)" stroke-linejoin="miter" stroke-linecap="butt" stroke-miterlimit="4" stroke-width="0.96" d="M31.52 16c0 8.571-6.949 15.52-15.52 15.52s-15.52-6.949-15.52-15.52c0-8.571 6.949-15.52 15.52-15.52s15.52 6.949 15.52 15.52z"></path>
<path fill="none" stroke="#f9fafa" style="stroke: var(--color7, #f9fafa)" stroke-linejoin="miter" stroke-linecap="butt" stroke-miterlimit="4" stroke-width="0.96" d="M20.48 14.244c0.259 0.134 0.489 0.074 0.64 0.319s0.32 0.67 0.32 0.957c0 0.286-0.169 0.711-0.32 0.957s-0.381 0.184-0.64 0.319l-7.040 3.827c-1.112 0.591-2.24-0.38-2.24-1.595v-7.015c0-1.216 1.128-2.184 2.24-1.595l7.040 3.827z"></path>
</symbol>
<symbol id="icon-accordeon-chevron-down" viewBox="0 0 32 32">
<path stroke-linejoin="round" stroke-linecap="round" stroke-miterlimit="4" stroke-width="2.6667" d="M25.333 12l-9.333 9.333-9.333-9.333"></path>
</symbol>
<symbol id="icon-logo-footer" viewBox="0 0 32 32">
<path fill="#f9fafa" style="fill: var(--color7, #f9fafa)" d="M16 5.128c-0.272 0-0.492 0.22-0.492 0.492s0.22 0.492 0.492 0.492c0.272 0 0.492-0.22 0.492-0.492s-0.22-0.492-0.492-0.492zM15.398 5.62c0-0.332 0.269-0.602 0.602-0.602s0.602 0.269 0.602 0.602c0 0.332-0.269 0.602-0.602 0.602s-0.602-0.269-0.602-0.602zM11.35 7.316c-0.121 0-0.219 0.098-0.219 0.219s0.098 0.219 0.219 0.219c0.121 0 0.219-0.098 0.219-0.219s-0.098-0.219-0.219-0.219zM11.022 7.535c0-0.181 0.147-0.328 0.328-0.328s0.328 0.147 0.328 0.328c0 0.181-0.147 0.328-0.328 0.328s-0.328-0.147-0.328-0.328zM20.65 7.316c-0.121 0-0.219 0.098-0.219 0.219s0.098 0.219 0.219 0.219c0.121 0 0.219-0.098 0.219-0.219s-0.098-0.219-0.219-0.219zM20.321 7.535c0-0.181 0.147-0.328 0.328-0.328s0.328 0.147 0.328 0.328c0 0.181-0.147 0.328-0.328 0.328s-0.328-0.147-0.328-0.328z"></path>
<path fill="#f9fafa" style="fill: var(--color7, #f9fafa)" d="M15.508 5.62c0-0.272 0.22-0.492 0.492-0.492s0.492 0.22 0.492 0.492c0 0.272-0.22 0.492-0.492 0.492s-0.492-0.22-0.492-0.492z"></path>
<path fill="#f9fafa" style="fill: var(--color7, #f9fafa)" d="M11.132 7.535c0-0.121 0.098-0.219 0.219-0.219s0.219 0.098 0.219 0.219c0 0.121-0.098 0.219-0.219 0.219s-0.219-0.098-0.219-0.219z"></path>
<path fill="#f9fafa" style="fill: var(--color7, #f9fafa)" d="M20.431 7.535c0-0.121 0.098-0.219 0.219-0.219s0.219 0.098 0.219 0.219c0 0.121-0.098 0.219-0.219 0.219s-0.219-0.098-0.219-0.219z"></path>
<path fill="#f9fafa" style="fill: var(--color7, #f9fafa)" d="M8.676 14.561c1.89 2.26 6.746 2.954 6.811 2.974s0.008 0.052 0.008 0.052c-3.442 2.633-7.936 0.507-9.356-1.796-0.029-0.048-0.059-0.094-0.089-0.142-0.202-0.32-0.414-0.656-0.631-1.37l-0.086-0.366c0-0.198 0.020-0.3 0.086-0.372s0.422-0.086 0.43-0.086c0.393 0 1.213 0.198 1.729 0.35l0.569 0.165c0 0 0.094 0.040 0.096 0.043 0.145 0.215 0.257 0.357 0.432 0.547zM23.115 14.775c-1.376 1.409-3.775 2.068-5.569 2.52-0.218 0.057-0.438 0.084-0.658 0.111-0.202 0.025-0.404 0.050-0.603 0.097 0.41 0.343 0.966 0.659 1.441 0.876 1.687 0.75 4.463 0.318 6.068-0.621 1.466-0.849 2.467-1.934 2.811-3.813 0.004-0.021 0.008-0.044 0.013-0.069 0.042-0.217 0.1-0.521-0.041-0.553-0.192-0.043-0.646 0.064-0.646 0.064s-1.949 0.368-2.309 0.738c-0.084 0.089-0.163 0.199-0.243 0.312-0.010 0.015-0.021 0.029-0.031 0.044-0.074 0.103-0.149 0.206-0.233 0.294zM20.538 16.264c-0.704 0.317-1.432 0.58-2.202 0.653-0.084-0.013 0.072-0.14 0.183-0.236 0.036-0.031 0.144-0.192 0.151-0.202 0.032-0.047 0.049-0.148 0.075-0.269 0.022-0.104 0.064-0.215 0.113-0.269 0.113-0.202 0.358-0.28 0.568-0.437 0.128-0.095 0.247-0.184 0.334-0.263 0.908-0.807 1.359-1.641 1.637-2.973 0.014-0.064 0.023-0.129 0.031-0.193 0.029-0.206 0.056-0.401 0.231-0.533 0.352-0.317 1.375-0.78 1.801-0.97 0.393-0.181 0.575-0.267 0.666-0.31 0.070-0.033 0.087-0.041 0.103-0.047 0.005-0.002 0.010-0.003 0.017-0.005s0.012-0.004 0.017-0.006c0.051-0.017 0.097-0.032 0.097 0.033v0.961c0 0.109-0.090 0.925-0.221 1.296-0.029 0.082-0.055 0.167-0.081 0.256l-0.005 0.018c-0.092 0.307-0.197 0.655-0.478 1.077-0.368 0.553-0.671 0.97-1.039 1.269s-1.303 0.827-1.303 0.827l-0.694 0.324zM13.285 16.866c-0.543-0.137-1.389-0.365-1.888-0.574-0.52-0.215-1.292-0.708-1.922-1.145-0.601-0.474-0.939-0.982-0.939-0.982-0.712-1.028-1.119-2.221-0.974-3.512 0.017-0.15 0.156-0.182 0.303-0.164 0.18 0.018 0.385 0.073 0.516 0.109 0.254 0.064 0.466 0.159 0.605 0.205s0.467 0.186 0.623 0.277c0.328 0.182 0.794 0.455 0.876 0.582 0.080 0.13 0.077 0.244 0.074 0.363-0.002 0.065-0.003 0.131 0.008 0.201 0.172 1.11 0.704 2.129 1.449 2.884 0 0 1.002 0.815 1.072 0.905s0.153 0.557 0.328 0.833c-0.012 0.035-0.063 0.027-0.1 0.022-0.012-0.002-0.023-0.003-0.031-0.003zM16.441 16.488c-0.367-0.476-1.263-0.18-1.157 0.458 0.032 0.193 0.146 0.286 0.225 0.351 0.042 0.035 0.074 0.061 0.077 0.089-0.554-0.063-1.132-0.144-1.637-0.413-0.31-0.162-0.489-0.278-0.619-0.646-0.383-1.095 0.285-2.073 0.945-2.809 0 0 0.293-0.323 0.733-0.592s0.766-0.395 0.912-0.395 0.237 0.028 0.553 0.154c0.135 0.054 0.274 0.133 0.337 0.174 0.072 0.046 0.149 0.1 0.377 0.264 0.326 0.233 0.606 0.567 0.606 0.567 0.415 0.422 0.839 1.104 0.88 1.741 0.016 0.188-0.033 0.763-0.090 0.933-0.106 0.332-0.741 0.709-1.043 0.79-0.262 0.065-0.544 0.099-0.823 0.132l-0.027 0.003c-0.135 0.016-0.269 0.032-0.398 0.052 0.023-0.034 0.050-0.070 0.079-0.107 0.144-0.185 0.322-0.414 0.069-0.744zM19.65 15.2c-0.151 0.135-0.301 0.202-0.527 0.337-0.012 0.004-0.136 0.072-0.149 0.077-0.054 0.022-0.11 0.045-0.114 0.003-0.069-1.149-0.739-2.017-1.57-2.62-0.105-0.076-0.134-0.233-0.063-0.347l0.002-0.003c0.073-0.116 0.139-0.222 0.201-0.321l0.001-0.002c0.532-0.855 0.701-1.128 1.701-1.734 0.451-0.298 0.845-0.54 0.845-0.54l0.259-0.128c0.074-0.037 0.151-0.066 0.23-0.085 0.306-0.073 0.619 0.117 0.703 0.634 0.457 1.929-0.482 3.641-1.141 4.324l-0.377 0.404z"></path>
<path fill="#f9fafa" style="fill: var(--color7, #f9fafa)" d="M15.347 16.842c-0.006-0.099 0.046-0.222 0.165-0.329 0.151-0.135 0.377-0.202 0.603-0.135s0.438 0.329 0.363 0.534-0.112 0.224-0.151 0.266c-0.039 0.042-0.153 0.161-0.353 0.157-0.051 0-0.206-0.006-0.285-0.043-0.093-0.043-0.199-0.144-0.266-0.248-0.054-0.083-0.069-0.103-0.075-0.202z"></path>
<path fill="#f9fafa" style="fill: var(--color7, #f9fafa)" d="M15.883 18.498h0.091l0.048-0.962c0.011-0.055 0.094-0.036 0.084-0.073-0.032-0.046-0.123-0.038-0.183-0.046-0.074-0.009-0.138 0.059-0.075 0.067 0.088 0.059 0.049 0.39 0.037 0.693l-0.001 0.019-0.001 0.029c-0.006 0.145-0.009 0.257 0.001 0.272z"></path>
<path fill="#f9fafa" style="fill: var(--color7, #f9fafa)" d="M14.833 9.555c-0.527 0.673-0.76 1.211-0.603 1.952 0.074 0.349 0.37 0.703 0.693 0.979 0.347 0.175 0.663-0.104 1.040-0.104s0.904 0.265 1.055 0.104c0.151-0.162 0.392-0.485 0.558-0.821 0.377-0.781-0.241-1.723-0.497-2.073-0.227-0.297-0.485-0.536-0.738-0.777-0.183-0.175-0.377-0.404-0.527-0.404s-0.313 0.285-0.452 0.471c-0.198 0.264-0.373 0.476-0.527 0.673z"></path>
<path fill="#f9fafa" style="fill: var(--color7, #f9fafa)" d="M13.206 10.839c0.251 0.194 0.678 0.559 0.948 0.96 0.106 0.157 0.196 0.328 0.285 0.498 0.041 0.078 0.093 0.16 0.144 0.239 0.069 0.108 0.135 0.212 0.169 0.3-0.828 0.663-1.847 2.028-1.663 3.015-0.109-0.135-0.483-0.42-0.694-0.59-0.056-0.045-0.105-0.084-0.14-0.115-0.696-0.619-1.531-2.074-1.531-3.093-0.041-0.537 0.011-1.355 0.024-1.471 0-0.014 0.010-0.086 0.048-0.257 0.048-0.214 0.115-0.396 0.144-0.442l0.004-0.006c0.047-0.072 0.116-0.153 0.35-0.111l0.319 0.088c0.398 0.125 1.004 0.562 1.405 0.851l0.188 0.134z"></path>
<path fill="#f9fafa" style="fill: var(--color7, #f9fafa)" d="M12.811 23.099l-0.814-2.048c-0.069-0.152-0.172-0.228-0.309-0.228v-0.11h0.96v0.11h-0.164c-0.081 0-0.121 0.023-0.121 0.068 0 0.021 0.002 0.045 0.007 0.071s0.011 0.056 0.018 0.089l0.597 1.6 0.558-1.529c0.007-0.043 0.011-0.084 0.011-0.124 0-0.116-0.108-0.174-0.324-0.174v-0.11h0.853v0.11h-0.11c-0.083 0-0.146 0.063-0.188 0.188l-0.853 2.112-0.121-0.025zM14.422 23.070v-0.107c0.225 0 0.338-0.082 0.338-0.245v-1.582c0-0.209-0.117-0.313-0.352-0.313v-0.11h1.028v0.11c-0.218 0-0.327 0.104-0.327 0.313v1.582c0 0.164 0.114 0.245 0.341 0.245v0.107h-1.028zM17.465 23.070v-0.107c0.135 0 0.203-0.019 0.203-0.057 0-0.031-0.031-0.089-0.092-0.174l-0.64-0.825-0.16 0.146c-0.026 0.024-0.050 0.051-0.071 0.082-0.019 0.031-0.032 0.068-0.039 0.11v0.473c0 0.164 0.119 0.245 0.356 0.245v0.107h-1.031v-0.107c0.218 0 0.327-0.082 0.327-0.245v-1.636c0-0.173-0.117-0.26-0.352-0.26v-0.11h1.013v0.11c-0.209 0-0.313 0.087-0.313 0.26v0.864l0.828-0.786c0.055-0.050 0.090-0.089 0.107-0.117 0.019-0.031 0.028-0.072 0.028-0.124 0-0.064-0.082-0.096-0.245-0.096v-0.11h0.921v0.11c-0.071 0.007-0.13 0.018-0.178 0.032-0.045 0.012-0.088 0.031-0.128 0.057-0.040 0.024-0.083 0.057-0.128 0.1-0.045 0.040-0.103 0.095-0.174 0.164l-0.501 0.487 0.811 1.056c0.033 0.036 0.064 0.069 0.092 0.1s0.058 0.057 0.089 0.078c0.033 0.021 0.069 0.038 0.107 0.050 0.040 0.012 0.089 0.018 0.146 0.018v0.107h-0.974zM18.719 23.070v-0.107c0.225 0 0.338-0.082 0.338-0.245v-1.582c0-0.209-0.117-0.313-0.352-0.313v-0.11h1.028v0.11c-0.218 0-0.327 0.104-0.327 0.313v1.582c0 0.164 0.114 0.245 0.341 0.245v0.107h-1.028z"></path>
<path fill="#f9fafa" style="fill: var(--color7, #f9fafa)" d="M8.507 25.498c0.043 0 0.084-0.003 0.124-0.009s0.075-0.018 0.107-0.038c0.031-0.020 0.056-0.048 0.075-0.085 0.020-0.037 0.030-0.087 0.030-0.151 0-0.054-0.010-0.099-0.030-0.134-0.018-0.036-0.043-0.063-0.075-0.083-0.030-0.021-0.063-0.036-0.1-0.045s-0.073-0.013-0.109-0.013h-0.102c-0.054 0-0.081 0.040-0.081 0.119v0.407c0.006 0.021 0.023 0.032 0.051 0.032h0.111zM9.273 26.084c0 0.017-0.004 0.038-0.013 0.062-0.007 0.024-0.019 0.047-0.036 0.068-0.016 0.021-0.036 0.040-0.060 0.055-0.023 0.016-0.049 0.023-0.079 0.023-0.087 0-0.151-0.014-0.192-0.043-0.041-0.030-0.072-0.078-0.092-0.143-0.017-0.054-0.034-0.112-0.051-0.173-0.017-0.063-0.038-0.119-0.062-0.171-0.023-0.053-0.051-0.096-0.085-0.13-0.034-0.036-0.077-0.053-0.128-0.053h-0.064c-0.038 0-0.060 0.008-0.066 0.023v0.463c0 0.092 0.065 0.139 0.196 0.139v0.064h-0.602v-0.064c0.125 0 0.188-0.046 0.188-0.139v-1.009c0-0.091-0.068-0.137-0.203-0.137v-0.066h0.267c0.047 0 0.087 0 0.119 0 0.033-0.001 0.064-0.003 0.094-0.004 0.031-0.001 0.064-0.002 0.098-0.002 0.036-0.001 0.078-0.002 0.128-0.002 0.061 0 0.119 0.009 0.173 0.028 0.054 0.017 0.1 0.041 0.139 0.073 0.040 0.031 0.071 0.068 0.094 0.111s0.034 0.089 0.034 0.139c0 0.050-0.009 0.094-0.028 0.132s-0.045 0.072-0.079 0.1c-0.033 0.028-0.072 0.053-0.117 0.073s-0.096 0.036-0.151 0.047v0.006c0.068 0.033 0.124 0.074 0.169 0.124 0.046 0.048 0.076 0.095 0.092 0.141 0.009 0.028 0.018 0.063 0.030 0.102s0.024 0.078 0.038 0.113c0.016 0.036 0.033 0.066 0.053 0.092 0.020 0.024 0.044 0.036 0.073 0.036 0.034 0 0.059-0.032 0.075-0.096l0.049 0.017zM9.467 26.27v-0.064c0.131 0 0.196-0.046 0.196-0.139v-0.966c0-0.119-0.070-0.179-0.211-0.179v-0.066h1.12l0.017 0.399-0.066 0.009c-0.013-0.077-0.032-0.137-0.058-0.179s-0.057-0.074-0.094-0.094c-0.036-0.021-0.077-0.033-0.124-0.036-0.047-0.004-0.098-0.006-0.154-0.006h-0.060c-0.108 0-0.162 0.032-0.162 0.096v0.382c0 0.043 0.017 0.064 0.051 0.064h0.073c0.036 0 0.068-0.001 0.098-0.004 0.031-0.004 0.058-0.014 0.081-0.028 0.024-0.016 0.043-0.038 0.058-0.068 0.016-0.031 0.026-0.073 0.032-0.126h0.079v0.553h-0.079c-0.006-0.053-0.014-0.094-0.026-0.124-0.011-0.031-0.028-0.055-0.049-0.070-0.021-0.017-0.048-0.028-0.079-0.032-0.031-0.006-0.070-0.009-0.115-0.009h-0.026c-0.065 0-0.098 0.023-0.098 0.070v0.407c0 0.081 0.057 0.122 0.171 0.122h0.066c0.090 0 0.161-0.006 0.215-0.019 0.055-0.014 0.1-0.036 0.134-0.064 0.034-0.030 0.061-0.067 0.081-0.111 0.021-0.044 0.043-0.096 0.064-0.156l0.058 0.017-0.058 0.422h-1.137zM10.942 26.27v-0.064c0.135 0 0.203-0.049 0.203-0.147v-0.949c0-0.125-0.070-0.188-0.211-0.188v-0.066h0.617v0.066c-0.131 0-0.196 0.063-0.196 0.188v0.949c0 0.098 0.068 0.147 0.205 0.147v0.064h-0.617zM12.768 26.27v-0.064c0.081 0 0.122-0.011 0.122-0.034 0-0.018-0.018-0.053-0.055-0.105l-0.384-0.495-0.096 0.087c-0.016 0.014-0.030 0.031-0.043 0.049-0.011 0.018-0.019 0.041-0.023 0.066v0.284c0 0.098 0.071 0.147 0.213 0.147v0.064h-0.619v-0.064c0.131 0 0.196-0.049 0.196-0.147v-0.981c0-0.104-0.070-0.156-0.211-0.156v-0.066h0.608v0.066c-0.125 0-0.188 0.052-0.188 0.156v0.518l0.497-0.471c0.033-0.030 0.054-0.053 0.064-0.070 0.011-0.018 0.017-0.043 0.017-0.075 0-0.038-0.049-0.058-0.147-0.058v-0.066h0.553v0.066c-0.043 0.004-0.078 0.011-0.107 0.019-0.027 0.007-0.053 0.018-0.077 0.034-0.024 0.014-0.050 0.034-0.077 0.060-0.027 0.024-0.062 0.057-0.105 0.098l-0.301 0.292 0.486 0.634c0.020 0.021 0.038 0.041 0.055 0.060s0.035 0.034 0.053 0.047c0.020 0.013 0.041 0.023 0.064 0.030 0.024 0.007 0.053 0.011 0.087 0.011v0.064h-0.585zM13.52 26.27v-0.064c0.135 0 0.203-0.049 0.203-0.147v-0.949c0-0.125-0.070-0.188-0.211-0.188v-0.066h0.617v0.066c-0.131 0-0.196 0.063-0.196 0.188v0.949c0 0.098 0.068 0.147 0.205 0.147v0.064h-0.617zM16.288 26.27v-0.064c0.125 0 0.188-0.052 0.188-0.156l-0.015-0.992-0.454 1.212h-0.060l-0.486-1.193-0.009 0.941c-0.001 0.125 0.070 0.188 0.213 0.188v0.064h-0.514v-0.064c0.129 0 0.198-0.068 0.205-0.205l0.017-0.951v-0.021c0-0.016-0.002-0.030-0.006-0.043-0.003-0.013-0.012-0.024-0.028-0.034-0.014-0.010-0.036-0.017-0.064-0.021-0.028-0.006-0.067-0.009-0.115-0.009v-0.066h0.439l0.431 1.082 0.412-1.082h0.433v0.066c-0.047 0-0.084 0.004-0.111 0.011-0.027 0.006-0.048 0.015-0.062 0.028-0.013 0.011-0.021 0.025-0.026 0.041-0.003 0.016-0.004 0.032-0.004 0.049l0.023 0.986c0 0.114 0.065 0.171 0.194 0.171v0.064h-0.602zM17.934 26.27v-0.064c0.020-0.003 0.041-0.006 0.062-0.009 0.023-0.003 0.043-0.006 0.060-0.011 0.018-0.004 0.033-0.009 0.045-0.015 0.013-0.007 0.019-0.015 0.019-0.023-0.001-0.006-0.003-0.014-0.004-0.023 0-0.011-0.004-0.025-0.011-0.041l-0.096-0.262c-0.016-0.037-0.059-0.055-0.13-0.055h-0.318c-0.054 0-0.087 0.018-0.098 0.055l-0.073 0.222c-0.006 0.013-0.009 0.031-0.009 0.055 0 0.065 0.063 0.098 0.188 0.098v0.073h-0.48v-0.073c0.041-0.003 0.076-0.017 0.105-0.043 0.030-0.026 0.055-0.063 0.075-0.111l0.512-1.22 0.064 0.026 0.506 1.267c0.020 0.030 0.036 0.048 0.047 0.055 0.003 0.003 0.014 0.007 0.034 0.013 0.021 0.004 0.050 0.011 0.087 0.021v0.064h-0.585zM17.749 25.124l-0.188 0.448c-0.016 0.034-0.023 0.058-0.023 0.073 0 0.021 0.026 0.032 0.079 0.032h0.269c0.043 0 0.064-0.009 0.064-0.026 0-0.007-0.008-0.031-0.023-0.070l-0.177-0.457zM19.541 25.287c-0.028-0.115-0.076-0.207-0.143-0.275-0.067-0.070-0.149-0.105-0.247-0.105-0.081 0-0.146 0.021-0.194 0.064s-0.073 0.097-0.073 0.162c0 0.051 0.017 0.096 0.051 0.134 0.036 0.037 0.088 0.070 0.158 0.1 0.087 0.037 0.166 0.068 0.237 0.094 0.071 0.024 0.132 0.053 0.181 0.085 0.051 0.033 0.090 0.074 0.117 0.124 0.028 0.050 0.043 0.117 0.043 0.203 0 0.053-0.009 0.105-0.026 0.156-0.016 0.051-0.041 0.097-0.075 0.139-0.034 0.040-0.079 0.073-0.134 0.098-0.054 0.024-0.119 0.036-0.196 0.036-0.050 0-0.093-0.004-0.13-0.011-0.036-0.007-0.066-0.016-0.092-0.026-0.024-0.010-0.043-0.020-0.058-0.030s-0.024-0.017-0.030-0.021c-0.027 0.020-0.054 0.038-0.081 0.053s-0.054 0.027-0.081 0.034c-0.016-0.107-0.028-0.201-0.036-0.284-0.007-0.084-0.011-0.157-0.011-0.22h0.070c0 0.063 0.013 0.12 0.038 0.173 0.026 0.051 0.058 0.095 0.098 0.132s0.085 0.066 0.134 0.087c0.050 0.020 0.098 0.030 0.145 0.030 0.030 0 0.063-0.005 0.098-0.015 0.037-0.010 0.071-0.026 0.102-0.047 0.033-0.021 0.060-0.048 0.081-0.081 0.023-0.033 0.034-0.072 0.034-0.117 0-0.057-0.016-0.107-0.047-0.149-0.030-0.043-0.078-0.076-0.145-0.1-0.078-0.028-0.154-0.055-0.226-0.079-0.071-0.024-0.134-0.053-0.19-0.085-0.054-0.034-0.097-0.076-0.13-0.126-0.033-0.051-0.049-0.118-0.049-0.201 0-0.060 0.011-0.114 0.032-0.162s0.050-0.090 0.085-0.124c0.037-0.036 0.080-0.063 0.128-0.081 0.048-0.020 0.099-0.030 0.151-0.030 0.061 0 0.113 0.011 0.156 0.034 0.044 0.021 0.085 0.041 0.122 0.058 0.044-0.036 0.090-0.060 0.139-0.075 0.020 0.065 0.034 0.135 0.043 0.209 0.009 0.073 0.013 0.151 0.013 0.237h-0.064zM20.151 26.27v-0.064c0.152 0 0.228-0.065 0.228-0.196v-0.983c0-0.053-0.035-0.079-0.105-0.079-0.094 0-0.17 0.031-0.228 0.092-0.058 0.060-0.102 0.151-0.13 0.273l-0.066-0.017 0.058-0.454c0.033 0.004 0.063 0.008 0.092 0.011 0.030 0.003 0.058 0.004 0.085 0.004h0.821c0.030 0 0.060-0.001 0.092-0.004s0.063-0.006 0.096-0.011v0.446l-0.058 0.009c-0.017-0.228-0.131-0.341-0.341-0.341-0.071 0-0.107 0.024-0.107 0.073v0.983c0 0.131 0.077 0.196 0.23 0.196v0.064h-0.668zM21.337 26.27v-0.064c0.131 0 0.196-0.046 0.196-0.139v-0.966c0-0.119-0.070-0.179-0.211-0.179v-0.066h1.12l0.017 0.399-0.066 0.009c-0.013-0.077-0.032-0.137-0.058-0.179s-0.057-0.074-0.094-0.094c-0.036-0.021-0.077-0.033-0.124-0.036-0.047-0.004-0.098-0.006-0.154-0.006h-0.060c-0.108 0-0.162 0.032-0.162 0.096v0.382c0 0.043 0.017 0.064 0.051 0.064h0.073c0.036 0 0.068-0.001 0.098-0.004 0.031-0.004 0.058-0.014 0.081-0.028 0.024-0.016 0.043-0.038 0.058-0.068 0.016-0.031 0.026-0.073 0.032-0.126h0.079v0.553h-0.079c-0.006-0.053-0.014-0.094-0.026-0.124-0.011-0.031-0.028-0.055-0.049-0.070-0.021-0.017-0.048-0.028-0.079-0.032-0.031-0.006-0.070-0.009-0.115-0.009h-0.026c-0.065 0-0.098 0.023-0.098 0.070v0.407c0 0.081 0.057 0.122 0.171 0.122h0.066c0.090 0 0.161-0.006 0.215-0.019 0.055-0.014 0.1-0.036 0.134-0.064 0.034-0.030 0.061-0.067 0.081-0.111 0.021-0.044 0.043-0.096 0.064-0.156l0.058 0.017-0.058 0.422h-1.137zM23.387 25.498c0.043 0 0.084-0.003 0.124-0.009s0.075-0.018 0.107-0.038c0.031-0.020 0.056-0.048 0.075-0.085 0.020-0.037 0.030-0.087 0.030-0.151 0-0.054-0.010-0.099-0.030-0.134-0.018-0.036-0.043-0.063-0.075-0.083-0.030-0.021-0.063-0.036-0.1-0.045s-0.073-0.013-0.109-0.013h-0.102c-0.054 0-0.081 0.040-0.081 0.119v0.407c0.006 0.021 0.023 0.032 0.051 0.032h0.111zM24.152 26.084c0 0.017-0.004 0.038-0.013 0.062-0.007 0.024-0.019 0.047-0.036 0.068-0.016 0.021-0.036 0.040-0.060 0.055-0.023 0.016-0.049 0.023-0.079 0.023-0.087 0-0.151-0.014-0.192-0.043-0.041-0.030-0.072-0.078-0.092-0.143-0.017-0.054-0.034-0.112-0.051-0.173-0.017-0.063-0.038-0.119-0.062-0.171-0.023-0.053-0.051-0.096-0.085-0.13-0.034-0.036-0.077-0.053-0.128-0.053h-0.064c-0.038 0-0.060 0.008-0.066 0.023v0.463c0 0.092 0.065 0.139 0.196 0.139v0.064h-0.602v-0.064c0.125 0 0.188-0.046 0.188-0.139v-1.009c0-0.091-0.068-0.137-0.203-0.137v-0.066h0.267c0.047 0 0.087 0 0.119 0 0.033-0.001 0.064-0.003 0.094-0.004 0.031-0.001 0.064-0.002 0.098-0.002 0.036-0.001 0.078-0.002 0.128-0.002 0.061 0 0.119 0.009 0.173 0.028 0.054 0.017 0.1 0.041 0.139 0.073 0.040 0.031 0.071 0.068 0.094 0.111s0.034 0.089 0.034 0.139c0 0.050-0.009 0.094-0.028 0.132s-0.045 0.072-0.079 0.1c-0.033 0.028-0.072 0.053-0.117 0.073s-0.096 0.036-0.151 0.047v0.006c0.068 0.033 0.124 0.074 0.169 0.124 0.046 0.048 0.076 0.095 0.092 0.141 0.009 0.028 0.018 0.063 0.030 0.102s0.024 0.078 0.038 0.113c0.016 0.036 0.033 0.066 0.053 0.092 0.020 0.024 0.044 0.036 0.073 0.036 0.034 0 0.059-0.032 0.075-0.096l0.049 0.017z"></path>
</symbol>
<symbol id="icon-gmail" viewBox="0 0 32 32">
<path fill="#f9fafa" style="fill: var(--color8, #f9fafa)" d="M24.499 0h-16.998c-4.143 0-7.501 3.358-7.501 7.501v0 16.998c0 4.143 3.358 7.501 7.501 7.501v0h16.998c4.143 0 7.501-3.358 7.501-7.501v0-16.998c0-4.143-3.358-7.501-7.501-7.501v0z"></path>
<path fill="#414343cc" style="fill: var(--color9, #414343cc)" d="M5.204 25.38h3.977v-9.659l-5.682-4.262v12.216c0 0.943 0.764 1.705 1.705 1.705z"></path>
<path fill="#414343cc" style="fill: var(--color10, #414343cc)" d="M22.819 25.38h3.977c0.943 0 1.705-0.764 1.705-1.705v-12.215l-5.683 4.261z"></path>
<path fill="#414343" style="fill: var(--color11, #414343)" d="M22.819 8.334v7.386l5.682-4.26v-2.273c0-2.108-2.406-3.31-4.091-2.045z"></path>
<path fill="#808080" style="fill: var(--color12, #808080)" d="M9.181 15.721v-7.386l6.819 5.112 6.819-5.114v7.386l-6.819 5.116z"></path>
<path fill="#414343" style="fill: var(--color13, #414343)" d="M3.5 9.187v2.273l5.683 4.261v-7.386l-1.592-1.196c-1.687-1.265-4.091-0.063-4.091 2.045z"></path>
</symbol>
<symbol id="icon-telegram" viewBox="0 0 32 32">
<path fill="#F9FAFA" style="fill: var(--color14, #F9FAFA)" d="M26.38 6.131l-21.26 8.146c-1.45 0.58-1.442 1.384-0.266 1.742l5.459 1.692 12.627-7.917c0.597-0.361 1.143-0.167 0.694 0.229l-10.231 9.176-0.377 5.59c0.552 0 0.795-0.251 1.105-0.548l2.65-2.561 5.515 4.047c1.017 0.556 1.747 0.27 2-0.935l3.62-16.952c0.37-1.476-0.567-2.145-1.537-1.708z"></path>
</symbol>
<symbol id="icon-facebook" viewBox="0 0 32 32">
<path fill="#212121" style="fill: var(--color15, #212121)" d="M8 0h16c4.418 0 8 3.582 8 8v16c0 4.418-3.582 8-8 8h-16c-4.418 0-8-3.582-8-8v-16c0-4.418 3.582-8 8-8z"></path>
<path fill="#fff" style="fill: var(--color6, #fff)" d="M17.788 27v-10.035h3.538l0.53-3.911h-4.068v-2.496c0-1.132 0.332-1.905 2.036-1.905h2.176v-3.504c-0.905-0.095-1.955-0.149-3.018-0.149-0.054 0-0.108 0-0.162 0l0.008-0c-3.133 0-5.29 1.818-5.29 5.17v2.884h-3.538v3.91h3.538v10.036h4.25z"></path>
</symbol>

<symbol id="icon-youtube" viewBox="0 0 32 32">
<path fill="#F9FAFA" style="fill: var(--color16, #F9FAFA)" d="M27.76 10.943s-0.24-1.8-0.96-2.572c-0.88-1.028-1.92-1.028-2.4-1.114-3.36-0.257-8.4-0.257-8.4-0.257s-5.040 0-8.4 0.257c-0.48 0.086-1.52 0.086-2.4 1.114-0.72 0.772-0.96 2.572-0.96 2.572s-0.24 2.057-0.24 4.114v1.886c0 2.057 0.24 4.2 0.24 4.2s0.24 1.8 0.96 2.571c0.88 1.029 2.080 1.029 2.64 1.115 1.92 0.085 8.16 0.171 8.16 0.171s5.040 0 8.4-0.257c0.48-0.086 1.52-0.086 2.4-1.114 0.72-0.772 0.96-2.572 0.96-2.572s0.24-2.057 0.24-4.114v-1.886c0-2.057-0.24-4.114-0.24-4.114zM13 20v-8l7 4-7 4z"></path>
<path fill="#1e1e1e" style="fill: var(--color6, #1e1e1e)" d="M13 20l7-4-7-4v8z"></path>
</symbol>
</defs>
</svg>
