<svg width="52" height="115" viewBox="0 0 52 115" fill="none" xmlns="http://www.w3.org/2000/svg">
<path d="M51.3592 57.4829C48.6622 57.6843 46.4301 59.3968 44.6027 61.0464C39.5305 65.6231 35.4614 71.3049 32.7215 77.6064C32.8365 71.4753 32.5284 65.3315 31.7864 59.264C32.2864 55.4144 34.8398 52.672 37.5445 49.7727C38.7783 48.45 40.0538 47.0825 41.1594 45.5749C47.2454 37.2727 48.8249 25.7795 45.2821 15.5804C45.1856 15.3002 44.8989 15.1347 44.6176 15.185C44.3309 15.2366 44.1223 15.4913 44.1246 15.7872C44.186 23.5824 40.7452 30.9209 37.4176 38.0174C34.8898 43.4075 32.2989 48.9449 31.1522 54.7818C29.6752 45.4402 27.1761 36.3394 23.6625 27.8123C23.7001 27.7674 23.7406 27.7244 23.7639 27.6692C23.8336 27.5048 23.8282 27.318 23.7508 27.1579C23.5469 26.7419 23.6774 26.2137 23.7734 25.936C23.8831 25.6176 24.0458 25.3071 24.218 24.9784C24.3116 24.7989 24.4058 24.6194 24.4928 24.4356C25.3952 22.5345 25.5096 20.2894 24.8421 18.296C26.7625 15.6465 29.236 13.3481 32.0045 11.6471L32.0665 11.6095C32.6011 11.282 33.2085 10.9108 33.572 10.268C33.8295 9.81441 33.8945 9.22554 33.7419 8.7319C33.6144 8.31831 33.3467 7.99631 32.9861 7.82408C32.8061 7.73796 32.6262 7.69975 32.4807 7.66943C32.3997 7.65245 32.2656 7.62395 32.2417 7.61001C32.2143 7.5342 32.2995 7.25766 32.4879 7.07876C32.5904 6.98173 32.703 6.89258 32.8157 6.80343C33.1709 6.52022 33.5732 6.20003 33.7669 5.66758C33.944 5.18122 33.8754 4.62995 33.5786 4.1545C33.2252 3.58809 32.6101 3.203 31.9741 3.14842C31.6183 3.11628 31.2535 3.17148 30.8876 3.29944C31.1283 2.34187 30.9555 1.04833 29.9953 0.386096C28.4224 -0.700643 26.5115 0.800901 25.8839 1.29333C25.1979 1.83306 23.9349 2.65054 23.1953 2.07807C23.0129 1.93676 22.8597 1.70146 22.697 1.45221C22.452 1.07743 22.1743 0.652927 21.7004 0.38852C20.7087 -0.16152 19.4945 0.377605 18.8949 1.21995C18.7215 1.46434 18.551 1.82155 18.3931 2.21452C17.9508 1.32669 17.145 0.734807 16.2963 0.698421C15.1108 0.651725 14.0576 1.58018 13.4252 3.26002L13.2989 3.60023C13.1022 4.13754 12.9013 4.68575 12.6182 5.11207C12.3065 4.33826 11.6711 3.69483 10.8832 3.43467C9.70605 3.04533 8.31552 3.5511 7.64678 4.60752C7.11811 5.44198 7.08772 6.42684 7.0603 7.29587C7.05196 7.54087 7.0448 7.78587 7.02573 8.0248C6.95659 8.90293 6.54294 9.83198 5.88732 9.9084C5.61017 9.93932 5.28652 9.82532 4.94381 9.70282C4.53017 9.55606 4.06348 9.39051 3.54136 9.42932C2.16455 9.53484 1.34682 10.9545 1.25145 12.3026C1.14894 13.7374 1.59773 15.0322 2.34992 16.1487C1.77058 16.3057 1.12033 16.5786 0.6298 17.1099C-0.0472838 17.8436 -0.296436 19.1548 0.481376 19.9935C0.736474 20.2694 1.04582 20.4289 1.31821 20.5696C1.55602 20.6921 1.76104 20.7982 1.85581 20.9383C2.00601 21.1597 1.92675 21.5065 1.77834 22.0499C1.63649 22.5714 1.47496 23.1633 1.6341 23.771C1.90231 24.7965 2.97633 25.3338 3.89838 25.3344C4.66249 25.3344 5.34137 25.0627 5.997 24.8001L6.1901 24.7231C8.78816 23.6958 11.63 23.1864 14.4224 23.2561C14.476 23.2537 14.5267 23.2361 14.5774 23.2209C15.1489 25.0378 16.2975 26.5824 17.7315 27.412C18.7734 28.0148 20.0018 28.3259 21.2439 28.3259C21.6748 28.3259 22.1075 28.2835 22.5343 28.2083C24.7497 33.5747 26.558 39.1721 27.9599 44.9151C25.1735 40.032 20.8177 36.058 15.6961 33.8858C15.4767 33.7924 15.2216 33.8415 15.0506 34.0113C14.8795 34.1811 14.8247 34.4382 14.9111 34.665C17.2821 40.8762 22.7113 46.7429 29.084 49.9831C29.6949 53.0401 30.198 56.1293 30.583 59.2404C30.5818 59.2592 30.5794 59.2774 30.5788 59.2968C30.574 59.3865 30.5919 59.4708 30.6229 59.5491C31.517 66.9276 31.7738 74.4201 31.3876 81.8605C29.5179 75.7052 25.8845 70.1811 22.3507 64.816C18.048 58.284 13.5993 51.5307 12.5509 43.8089C12.5115 43.5154 12.2684 43.2941 11.9775 43.2856C11.6938 43.2837 11.4321 43.4839 11.3755 43.775C9.32161 54.3889 12.5205 65.5279 19.724 72.8464C21.0329 74.1752 22.4902 75.3407 23.8992 76.4681C27.0253 78.9678 29.978 81.3287 30.9871 85.1426C31.0157 85.2505 31.0765 85.3385 31.1498 85.4119C30.3642 95.2756 28.4474 105.001 25.3725 114.198C25.2659 114.515 25.4333 114.859 25.7445 114.967C25.8076 114.99 25.8732 115 25.9364 115C26.1843 115 26.4162 114.841 26.5002 114.589C30.0793 103.885 32.1076 92.4714 32.6184 80.9521C32.6202 80.9503 32.6226 80.9497 32.6244 80.9485C34.1061 79.4269 35.611 77.9466 37.0659 76.5142C42.7341 70.9368 48.0876 65.668 51.9296 58.3744C52.0321 58.1797 52.022 57.9426 51.9039 57.7576C51.7859 57.5721 51.575 57.4678 51.3604 57.4835L51.3592 57.4829ZM40.204 44.8496C39.1413 46.2996 37.8896 47.641 36.6803 48.937C36.1749 49.4785 35.6712 50.028 35.1741 50.5835L41.3549 38.7415C42.9714 35.6457 44.6426 32.4431 45.5652 28.9603C45.7023 28.4436 45.8317 27.8796 45.9419 27.2792C45.8257 33.6365 43.8708 39.8477 40.204 44.849V44.8496ZM38.4934 38.5396C41.104 32.9719 43.7772 27.2574 44.8381 21.2318C45.3477 23.9766 44.937 26.6722 44.4137 28.6449C43.5262 31.9961 41.8872 35.1363 40.3023 38.1739L33.004 52.1578C34.3046 47.4839 36.4204 42.9611 38.4934 38.5396ZM31.8728 4.35706C32.1374 4.3801 32.4187 4.56023 32.5725 4.80523C32.6405 4.91499 32.7096 5.08053 32.6494 5.2473C32.5731 5.45713 32.3448 5.63846 32.0814 5.84828C31.9425 5.95926 31.803 6.07086 31.6767 6.19033C31.2738 6.57178 31.0264 7.1388 31.0473 7.63608C31.0628 8.00783 31.2237 8.33408 31.5009 8.55483C31.7506 8.75374 32.0212 8.81075 32.2381 8.85684C32.3347 8.87686 32.4259 8.89626 32.4789 8.92173C32.535 8.94841 32.5767 9.00663 32.6041 9.09457C32.6572 9.2668 32.6303 9.50027 32.5391 9.66159C32.3293 10.0321 31.9026 10.2935 31.4514 10.5694L31.3888 10.6082C28.9755 12.091 26.7809 14.011 24.9506 16.2105C25.7218 12.4573 27.2804 8.87927 29.5066 5.7834L29.6514 5.58328C29.7122 5.49959 29.7724 5.41347 29.8326 5.32918C29.9542 5.31341 30.0728 5.27036 30.1687 5.17879C30.5901 4.77248 31.2332 4.30369 31.8728 4.35706ZM19.8599 1.9313C20.1442 1.53045 20.7349 1.23633 21.1277 1.45343C21.3428 1.57351 21.5097 1.82881 21.7028 2.12415C21.9031 2.4304 22.1302 2.7779 22.4711 3.04291C23.1899 3.60084 24.4928 3.9186 26.6105 2.25453C27.8419 1.28847 28.7562 0.994964 29.3248 1.39036C29.7992 1.71723 29.8838 2.47042 29.7235 3.04654C29.5447 3.68754 29.1305 4.2582 28.6924 4.86282L28.5446 5.06719C25.9417 8.68642 24.2151 12.9363 23.5344 17.3682C23.2721 17.4319 23.0194 17.5125 22.784 17.6193C21.999 14.0607 22.0479 10.3305 22.9467 6.79797C23.0296 6.47353 22.8376 6.14242 22.5194 6.05873C22.2005 5.97261 21.8751 6.16971 21.7928 6.49355C20.8076 10.3644 20.782 14.4609 21.7177 18.3428C21.4865 18.5623 21.2814 18.8042 21.1175 19.0729C20.0262 17.404 19.3318 15.2433 19.0559 12.6313C18.8711 10.8793 18.8753 9.0697 18.8795 7.31891C18.8812 6.49173 18.8818 5.66515 18.8652 4.83858C18.9766 4.10357 19.4892 2.45405 19.8605 1.93069L19.8599 1.9313ZM2.43873 12.3912C2.49774 11.5706 2.95846 10.6907 3.62958 10.6392C3.89898 10.6143 4.21607 10.7301 4.54925 10.849C4.98256 11.0024 5.47369 11.1789 6.02203 11.1134C7.38513 10.9551 8.10513 9.49724 8.21361 8.12184C8.23387 7.86349 8.24221 7.59969 8.25055 7.33529C8.27499 6.55419 8.29825 5.81676 8.64811 5.26429C9.02718 4.66453 9.8473 4.36797 10.5143 4.58871C11.1806 4.80885 11.6723 5.539 11.6342 6.25157C11.6223 6.46807 11.7248 6.67487 11.9042 6.79312C12.0836 6.91138 12.3107 6.92412 12.5002 6.82527C13.5981 6.254 14.0314 5.06901 14.4146 4.02412L14.5368 3.69423C14.6965 3.27154 15.2819 1.91008 16.2039 1.91008C16.217 1.91008 16.2307 1.91008 16.2444 1.91069C16.7505 1.93252 17.176 2.39644 17.3739 2.84581C17.6224 3.41344 17.6576 4.09448 17.6725 4.79977C17.6904 5.63847 17.6886 6.47778 17.6874 7.31709C17.6832 9.09942 17.6791 10.943 17.871 12.7605C18.1839 15.7266 19.0171 18.1693 20.3361 20.0444C19.7306 20.0074 19.1059 20.0505 18.4831 20.1706C16.5573 16.8661 15.224 13.1231 14.6298 9.33046C14.5785 8.99995 14.274 8.77315 13.948 8.82712C13.6225 8.87988 13.4014 9.19097 13.4532 9.52088C14.0534 13.3511 15.3826 17.1293 17.2916 20.492C16.9573 20.6102 16.6342 20.7527 16.3201 20.9122C16.3106 20.9013 16.307 20.8868 16.2963 20.8764C14.1542 18.7187 12.145 16.387 10.3241 13.9449C10.125 13.6792 9.75134 13.6259 9.48909 13.8284C9.22684 14.031 9.17559 14.4112 9.37466 14.6781C11.1764 17.0941 13.1612 19.401 15.2729 21.5453C15.1227 21.6557 14.985 21.7764 14.8468 21.8971C13.3782 20.9504 11.7427 20.3519 10.1572 19.7746C9.08499 19.3834 7.97698 18.9801 6.95361 18.4762C4.74891 17.3907 2.24382 15.145 2.43992 12.3912H2.43873ZM5.75739 23.5939L5.55951 23.6728C4.98137 23.9044 4.43541 24.1227 3.8978 24.1227C3.43648 24.1221 2.8935 23.8747 2.78502 23.4599C2.70933 23.17 2.81482 22.7843 2.92568 22.375C3.09793 21.7431 3.31249 20.9559 2.83746 20.2524C2.57044 19.8576 2.19138 19.6611 1.85701 19.4889C1.65317 19.3834 1.46065 19.2839 1.348 19.162C1.06787 18.86 1.1966 18.2682 1.49879 17.9407C1.82601 17.5859 2.35468 17.353 3.16408 17.2087C3.17302 17.2069 3.17959 17.2008 3.18853 17.199C4.12369 18.1984 5.28712 19.0032 6.43387 19.5684C7.51386 20.1002 8.65347 20.5144 9.75493 20.9165C10.7646 21.284 11.7331 21.6491 12.657 22.0821C10.3021 22.2191 7.94659 22.7291 5.75799 23.5939H5.75739ZM18.3198 26.3593C17.1152 25.6625 16.1437 24.3313 15.6746 22.7558C17.0979 21.5544 19.3503 20.9559 21.0698 21.3574C21.2427 21.3962 21.4233 21.358 21.5639 21.2488C21.7046 21.1397 21.7904 20.9735 21.7988 20.7934C21.8447 19.7509 22.598 18.8867 23.6828 18.5738C24.2937 20.2961 24.2037 22.2561 23.42 23.9086C23.3395 24.0772 23.2531 24.2434 23.1661 24.409C22.9813 24.7625 22.7888 25.1282 22.6493 25.5339C22.4741 26.0415 22.4157 26.5394 22.4753 26.9906C21.0537 27.2726 19.5083 27.0458 18.3204 26.3587L18.3198 26.3593ZM28.7305 78.1607L19.5184 65.3975C17.5193 62.6279 15.4511 59.7637 14.094 56.5751C13.2953 54.7 12.5056 52.0923 12.6194 49.3015C14.5267 55.1075 17.9848 60.3684 21.3601 65.4934C24.041 69.5632 26.7792 73.7264 28.7305 78.1607ZM20.565 71.9883C16.2254 67.5801 13.4074 61.7231 12.3876 55.4507C12.5813 56.0281 12.7899 56.566 12.9985 57.0572C14.4099 60.3714 16.518 63.2914 18.557 66.1156L26.356 76.9205C25.7862 76.4444 25.2104 75.9757 24.6341 75.5148C23.2525 74.4104 21.8232 73.2673 20.5644 71.9889L20.565 71.9883Z" fill="url(#paint0_linear_1074_5427)"/>
<defs>
<linearGradient id="paint0_linear_1074_5427" x1="25.999" y1="115" x2="25.999" y2="0.000397562" gradientUnits="userSpaceOnUse">
<stop stop-color="#A07718"/>
<stop offset="0.182" stop-color="#B89539"/>
<stop offset="0.4" stop-color="#F6C84D"/>
<stop offset="0.585" stop-color="#FFDA78"/>
<stop offset="0.824" stop-color="#B89539"/>
<stop offset="1" stop-color="#A07718"/>
</linearGradient>
</defs>
</svg>
